G04 EAGLE Gerber RS-274X export*
G75*
%MOMM*%
%FSLAX34Y34*%
%LPD*%
%IN*%
%IPPOS*%
%AMOC8*
5,1,8,0,0,1.08239X$1,22.5*%
G01*
G04 Define Apertures*
%ADD10C,0.254000*%
D10*
X0Y-50800D02*
X1419100Y-50800D01*
X1419100Y584100D01*
X0Y584100D01*
X0Y-50800D01*
X1057176Y141560D02*
X1058244Y141484D01*
X1059305Y141331D01*
X1060352Y141103D01*
X1061380Y140801D01*
X1062384Y140427D01*
X1063359Y139982D01*
X1064299Y139468D01*
X1065200Y138889D01*
X1066058Y138247D01*
X1066868Y137545D01*
X1067625Y136788D01*
X1068327Y135978D01*
X1068969Y135120D01*
X1069548Y134219D01*
X1070062Y133279D01*
X1070507Y132304D01*
X1070881Y131300D01*
X1071183Y130272D01*
X1071411Y129225D01*
X1071564Y128164D01*
X1071640Y127096D01*
X1071640Y126024D01*
X1071564Y124956D01*
X1071411Y123895D01*
X1071183Y122848D01*
X1070881Y121820D01*
X1070507Y120816D01*
X1070062Y119841D01*
X1069548Y118901D01*
X1068969Y118000D01*
X1068327Y117142D01*
X1067625Y116332D01*
X1066868Y115575D01*
X1066058Y114873D01*
X1065200Y114231D01*
X1064299Y113652D01*
X1063359Y113138D01*
X1062384Y112693D01*
X1061380Y112319D01*
X1060352Y112017D01*
X1059305Y111789D01*
X1058244Y111636D01*
X1057176Y111560D01*
X1056104Y111560D01*
X1055036Y111636D01*
X1053975Y111789D01*
X1052928Y112017D01*
X1051900Y112319D01*
X1050896Y112693D01*
X1049921Y113138D01*
X1048981Y113652D01*
X1048080Y114231D01*
X1047222Y114873D01*
X1046412Y115575D01*
X1045655Y116332D01*
X1044953Y117142D01*
X1044311Y118000D01*
X1043732Y118901D01*
X1043218Y119841D01*
X1042773Y120816D01*
X1042399Y121820D01*
X1042097Y122848D01*
X1041869Y123895D01*
X1041716Y124956D01*
X1041640Y126024D01*
X1041640Y127096D01*
X1041716Y128164D01*
X1041869Y129225D01*
X1042097Y130272D01*
X1042399Y131300D01*
X1042773Y132304D01*
X1043218Y133279D01*
X1043732Y134219D01*
X1044311Y135120D01*
X1044953Y135978D01*
X1045655Y136788D01*
X1046412Y137545D01*
X1047222Y138247D01*
X1048080Y138889D01*
X1048981Y139468D01*
X1049921Y139982D01*
X1050896Y140427D01*
X1051900Y140801D01*
X1052928Y141103D01*
X1053975Y141331D01*
X1055036Y141484D01*
X1056104Y141560D01*
X1057176Y141560D01*
X1057176Y431560D02*
X1058244Y431484D01*
X1059305Y431331D01*
X1060352Y431103D01*
X1061380Y430801D01*
X1062384Y430427D01*
X1063359Y429982D01*
X1064299Y429468D01*
X1065200Y428889D01*
X1066058Y428247D01*
X1066868Y427545D01*
X1067625Y426788D01*
X1068327Y425978D01*
X1068969Y425120D01*
X1069548Y424219D01*
X1070062Y423279D01*
X1070507Y422304D01*
X1070881Y421300D01*
X1071183Y420272D01*
X1071411Y419225D01*
X1071564Y418164D01*
X1071640Y417096D01*
X1071640Y416024D01*
X1071564Y414956D01*
X1071411Y413895D01*
X1071183Y412848D01*
X1070881Y411820D01*
X1070507Y410816D01*
X1070062Y409841D01*
X1069548Y408901D01*
X1068969Y408000D01*
X1068327Y407142D01*
X1067625Y406332D01*
X1066868Y405575D01*
X1066058Y404873D01*
X1065200Y404231D01*
X1064299Y403652D01*
X1063359Y403138D01*
X1062384Y402693D01*
X1061380Y402319D01*
X1060352Y402017D01*
X1059305Y401789D01*
X1058244Y401636D01*
X1057176Y401560D01*
X1056104Y401560D01*
X1055036Y401636D01*
X1053975Y401789D01*
X1052928Y402017D01*
X1051900Y402319D01*
X1050896Y402693D01*
X1049921Y403138D01*
X1048981Y403652D01*
X1048080Y404231D01*
X1047222Y404873D01*
X1046412Y405575D01*
X1045655Y406332D01*
X1044953Y407142D01*
X1044311Y408000D01*
X1043732Y408901D01*
X1043218Y409841D01*
X1042773Y410816D01*
X1042399Y411820D01*
X1042097Y412848D01*
X1041869Y413895D01*
X1041716Y414956D01*
X1041640Y416024D01*
X1041640Y417096D01*
X1041716Y418164D01*
X1041869Y419225D01*
X1042097Y420272D01*
X1042399Y421300D01*
X1042773Y422304D01*
X1043218Y423279D01*
X1043732Y424219D01*
X1044311Y425120D01*
X1044953Y425978D01*
X1045655Y426788D01*
X1046412Y427545D01*
X1047222Y428247D01*
X1048080Y428889D01*
X1048981Y429468D01*
X1049921Y429982D01*
X1050896Y430427D01*
X1051900Y430801D01*
X1052928Y431103D01*
X1053975Y431331D01*
X1055036Y431484D01*
X1056104Y431560D01*
X1057176Y431560D01*
X1347176Y431560D02*
X1348244Y431484D01*
X1349305Y431331D01*
X1350352Y431103D01*
X1351380Y430801D01*
X1352384Y430427D01*
X1353359Y429982D01*
X1354299Y429468D01*
X1355200Y428889D01*
X1356058Y428247D01*
X1356868Y427545D01*
X1357625Y426788D01*
X1358327Y425978D01*
X1358969Y425120D01*
X1359548Y424219D01*
X1360062Y423279D01*
X1360507Y422304D01*
X1360881Y421300D01*
X1361183Y420272D01*
X1361411Y419225D01*
X1361564Y418164D01*
X1361640Y417096D01*
X1361640Y416024D01*
X1361564Y414956D01*
X1361411Y413895D01*
X1361183Y412848D01*
X1360881Y411820D01*
X1360507Y410816D01*
X1360062Y409841D01*
X1359548Y408901D01*
X1358969Y408000D01*
X1358327Y407142D01*
X1357625Y406332D01*
X1356868Y405575D01*
X1356058Y404873D01*
X1355200Y404231D01*
X1354299Y403652D01*
X1353359Y403138D01*
X1352384Y402693D01*
X1351380Y402319D01*
X1350352Y402017D01*
X1349305Y401789D01*
X1348244Y401636D01*
X1347176Y401560D01*
X1346104Y401560D01*
X1345036Y401636D01*
X1343975Y401789D01*
X1342928Y402017D01*
X1341900Y402319D01*
X1340896Y402693D01*
X1339921Y403138D01*
X1338981Y403652D01*
X1338080Y404231D01*
X1337222Y404873D01*
X1336412Y405575D01*
X1335655Y406332D01*
X1334953Y407142D01*
X1334311Y408000D01*
X1333732Y408901D01*
X1333218Y409841D01*
X1332773Y410816D01*
X1332399Y411820D01*
X1332097Y412848D01*
X1331869Y413895D01*
X1331716Y414956D01*
X1331640Y416024D01*
X1331640Y417096D01*
X1331716Y418164D01*
X1331869Y419225D01*
X1332097Y420272D01*
X1332399Y421300D01*
X1332773Y422304D01*
X1333218Y423279D01*
X1333732Y424219D01*
X1334311Y425120D01*
X1334953Y425978D01*
X1335655Y426788D01*
X1336412Y427545D01*
X1337222Y428247D01*
X1338080Y428889D01*
X1338981Y429468D01*
X1339921Y429982D01*
X1340896Y430427D01*
X1341900Y430801D01*
X1342928Y431103D01*
X1343975Y431331D01*
X1345036Y431484D01*
X1346104Y431560D01*
X1347176Y431560D01*
X1347176Y141560D02*
X1348244Y141484D01*
X1349305Y141331D01*
X1350352Y141103D01*
X1351380Y140801D01*
X1352384Y140427D01*
X1353359Y139982D01*
X1354299Y139468D01*
X1355200Y138889D01*
X1356058Y138247D01*
X1356868Y137545D01*
X1357625Y136788D01*
X1358327Y135978D01*
X1358969Y135120D01*
X1359548Y134219D01*
X1360062Y133279D01*
X1360507Y132304D01*
X1360881Y131300D01*
X1361183Y130272D01*
X1361411Y129225D01*
X1361564Y128164D01*
X1361640Y127096D01*
X1361640Y126024D01*
X1361564Y124956D01*
X1361411Y123895D01*
X1361183Y122848D01*
X1360881Y121820D01*
X1360507Y120816D01*
X1360062Y119841D01*
X1359548Y118901D01*
X1358969Y118000D01*
X1358327Y117142D01*
X1357625Y116332D01*
X1356868Y115575D01*
X1356058Y114873D01*
X1355200Y114231D01*
X1354299Y113652D01*
X1353359Y113138D01*
X1352384Y112693D01*
X1351380Y112319D01*
X1350352Y112017D01*
X1349305Y111789D01*
X1348244Y111636D01*
X1347176Y111560D01*
X1346104Y111560D01*
X1345036Y111636D01*
X1343975Y111789D01*
X1342928Y112017D01*
X1341900Y112319D01*
X1340896Y112693D01*
X1339921Y113138D01*
X1338981Y113652D01*
X1338080Y114231D01*
X1337222Y114873D01*
X1336412Y115575D01*
X1335655Y116332D01*
X1334953Y117142D01*
X1334311Y118000D01*
X1333732Y118901D01*
X1333218Y119841D01*
X1332773Y120816D01*
X1332399Y121820D01*
X1332097Y122848D01*
X1331869Y123895D01*
X1331716Y124956D01*
X1331640Y126024D01*
X1331640Y127096D01*
X1331716Y128164D01*
X1331869Y129225D01*
X1332097Y130272D01*
X1332399Y131300D01*
X1332773Y132304D01*
X1333218Y133279D01*
X1333732Y134219D01*
X1334311Y135120D01*
X1334953Y135978D01*
X1335655Y136788D01*
X1336412Y137545D01*
X1337222Y138247D01*
X1338080Y138889D01*
X1338981Y139468D01*
X1339921Y139982D01*
X1340896Y140427D01*
X1341900Y140801D01*
X1342928Y141103D01*
X1343975Y141331D01*
X1345036Y141484D01*
X1346104Y141560D01*
X1347176Y141560D01*
M02*
