G04 EAGLE Gerber RS-274X export*
G75*
%MOMM*%
%FSLAX34Y34*%
%LPD*%
%INSolderpaste Top*%
%IPPOS*%
%AMOC8*
5,1,8,0,0,1.08239X$1,22.5*%
G01*
G04 Define Apertures*
%ADD10R,0.920900X0.970200*%
%ADD11R,0.601900X1.965400*%
%ADD12R,0.798700X0.973900*%
%ADD13R,0.973900X0.798700*%
%ADD14R,0.300000X1.650000*%
%ADD15R,2.000000X1.730000*%
%ADD16R,1.650000X0.300000*%
%ADD17R,1.730000X2.000000*%
D10*
X815784Y273050D03*
X800292Y273050D03*
D11*
X814388Y221551D03*
X801688Y221551D03*
X788988Y221551D03*
X776288Y221551D03*
X776288Y172149D03*
X788988Y172149D03*
X801688Y172149D03*
X814388Y172149D03*
D12*
X831636Y139700D03*
X847940Y139700D03*
X879690Y215900D03*
X863386Y215900D03*
X847940Y234950D03*
X831636Y234950D03*
X879690Y234950D03*
X863386Y234950D03*
X847940Y254000D03*
X831636Y254000D03*
X879690Y254000D03*
X863386Y254000D03*
X847940Y273050D03*
X831636Y273050D03*
X879690Y273050D03*
X863386Y273050D03*
X799886Y247650D03*
X816190Y247650D03*
X761786Y247650D03*
X778090Y247650D03*
X879690Y139700D03*
X863386Y139700D03*
X847940Y158750D03*
X831636Y158750D03*
X879690Y158750D03*
X863386Y158750D03*
X847940Y177800D03*
X831636Y177800D03*
X879690Y177800D03*
X863386Y177800D03*
X847940Y196850D03*
X831636Y196850D03*
X879690Y196850D03*
X863386Y196850D03*
X847940Y215900D03*
X831636Y215900D03*
D10*
X762192Y273050D03*
X777684Y273050D03*
D13*
X1063625Y353798D03*
X1063625Y370102D03*
X1155700Y353798D03*
X1155700Y370102D03*
X1155700Y269978D03*
X1155700Y286282D03*
X1155700Y296648D03*
X1155700Y312952D03*
D12*
X1236448Y482600D03*
X1252752Y482600D03*
X1236448Y463550D03*
X1252752Y463550D03*
X1334873Y514350D03*
X1351177Y514350D03*
X1334873Y495300D03*
X1351177Y495300D03*
X1351177Y476250D03*
X1334873Y476250D03*
X1351177Y533400D03*
X1334873Y533400D03*
D14*
X197325Y423050D03*
X192325Y423050D03*
X187325Y423050D03*
X182325Y423050D03*
X177325Y423050D03*
X177325Y377050D03*
X182325Y377050D03*
X187325Y377050D03*
X192325Y377050D03*
X197325Y377050D03*
D15*
X187325Y400050D03*
D14*
X508475Y423050D03*
X503475Y423050D03*
X498475Y423050D03*
X493475Y423050D03*
X488475Y423050D03*
X488475Y377050D03*
X493475Y377050D03*
X498475Y377050D03*
X503475Y377050D03*
X508475Y377050D03*
D15*
X498475Y400050D03*
D16*
X896125Y415450D03*
X896125Y420450D03*
X896125Y425450D03*
X896125Y430450D03*
X896125Y435450D03*
X850125Y435450D03*
X850125Y430450D03*
X850125Y425450D03*
X850125Y420450D03*
X850125Y415450D03*
D17*
X873125Y425450D03*
M02*
