G04 EAGLE Gerber RS-274X export*
G75*
%MOMM*%
%FSLAX34Y34*%
%LPD*%
%INTop Copper*%
%IPPOS*%
%AMOC8*
5,1,8,0,0,1.08239X$1,22.5*%
G01*
G04 Define Apertures*
%ADD10R,15.000000X10.000000*%
%ADD11R,3.016250X1.587500*%
%ADD12R,2.857500X1.587500*%
%ADD13R,1.700000X1.700000*%
%ADD14R,0.920900X0.970200*%
%ADD15R,0.601900X1.965400*%
%ADD16R,0.798700X0.973900*%
%ADD17C,1.260000*%
%ADD18C,1.727200*%
%ADD19P,1.73204X8X22.5*%
%ADD20C,1.600200*%
%ADD21C,2.040000*%
%ADD22C,1.878669*%
%ADD23R,0.973900X0.798700*%
%ADD24P,1.8695X8X292.5*%
%ADD25R,0.300000X1.650000*%
%ADD26R,2.000000X1.730000*%
%ADD27C,2.000000*%
%ADD28R,1.650000X0.300000*%
%ADD29R,1.730000X2.000000*%
%ADD30P,1.73204X8X292.5*%
%ADD31P,1.73204X8X202.5*%
%ADD32P,2.20808X8X202.5*%
%ADD33P,2.20808X8X112.5*%
%ADD34C,2.374900*%
%ADD35P,1.73204X8X112.5*%
%ADD36C,0.406400*%
%ADD37C,0.304800*%
%ADD38C,0.711200*%
%ADD39R,0.812800X0.812800*%
%ADD40C,0.812800*%
%ADD41C,1.016000*%
%ADD42C,0.203200*%
%ADD43C,0.756400*%
%ADD44C,0.660400*%
%ADD45C,0.609600*%
G36*
X1406461Y-40318D02*
X1407795Y-39404D01*
X1408667Y-38041D01*
X1408940Y-36576D01*
X1408940Y569876D01*
X1408618Y571461D01*
X1407704Y572795D01*
X1406341Y573667D01*
X1404876Y573940D01*
X1090394Y573940D01*
X1088809Y573618D01*
X1087475Y572704D01*
X1086603Y571341D01*
X1086332Y569746D01*
X1086704Y568172D01*
X1087520Y567002D01*
X1120554Y533969D01*
X1121791Y530981D01*
X1121791Y432880D01*
X1122113Y431294D01*
X1123028Y429960D01*
X1124390Y429089D01*
X1125855Y428816D01*
X1160492Y428816D01*
X1163479Y427578D01*
X1194341Y396717D01*
X1195578Y393729D01*
X1195578Y330171D01*
X1194341Y327183D01*
X1174592Y307434D01*
X1171604Y306197D01*
X1170730Y306197D01*
X1169144Y305875D01*
X1167810Y304961D01*
X1166939Y303598D01*
X1166666Y302133D01*
X1166666Y281076D01*
X1165737Y278835D01*
X1164300Y277398D01*
X1163407Y276049D01*
X1163110Y274524D01*
X1163110Y273972D01*
X1148291Y273972D01*
X1148291Y274090D01*
X1147969Y275675D01*
X1147054Y277009D01*
X1145692Y277881D01*
X1144227Y278154D01*
X1144026Y278154D01*
X1143367Y278427D01*
X1141780Y278736D01*
X1140197Y278402D01*
X1138871Y277476D01*
X1138010Y276107D01*
X1137751Y274510D01*
X1138058Y273117D01*
X1139439Y269781D01*
X1139439Y263619D01*
X1137081Y257926D01*
X1136029Y256874D01*
X1135136Y255525D01*
X1134839Y253935D01*
X1135186Y252355D01*
X1136029Y251126D01*
X1137081Y250074D01*
X1139439Y244381D01*
X1139439Y238219D01*
X1137081Y232526D01*
X1136029Y231474D01*
X1135136Y230125D01*
X1134839Y228535D01*
X1135186Y226955D01*
X1136029Y225726D01*
X1137081Y224674D01*
X1139439Y218981D01*
X1139439Y212819D01*
X1137081Y207126D01*
X1136029Y206074D01*
X1135136Y204725D01*
X1134839Y203135D01*
X1135186Y201555D01*
X1136029Y200326D01*
X1137081Y199274D01*
X1139439Y193581D01*
X1139439Y187419D01*
X1137081Y181726D01*
X1133514Y178159D01*
X1132621Y176811D01*
X1132325Y175221D01*
X1132672Y173641D01*
X1133514Y172412D01*
X1134067Y171860D01*
X1135183Y169164D01*
X1119886Y169164D01*
X1119886Y153867D01*
X1117190Y154983D01*
X1116638Y155536D01*
X1115290Y156429D01*
X1113700Y156725D01*
X1112120Y156378D01*
X1110891Y155536D01*
X1109900Y154545D01*
X1109007Y153197D01*
X1108710Y151671D01*
X1108710Y110692D01*
X1107163Y106957D01*
X1099640Y99434D01*
X1098746Y98085D01*
X1098450Y96495D01*
X1098797Y94915D01*
X1099733Y93596D01*
X1101109Y92746D01*
X1102513Y92496D01*
X1111650Y92496D01*
X1121196Y82950D01*
X1121196Y69450D01*
X1118120Y66374D01*
X1117226Y65025D01*
X1116930Y63435D01*
X1117277Y61855D01*
X1118120Y60626D01*
X1121196Y57550D01*
X1121196Y44050D01*
X1118120Y40974D01*
X1117226Y39625D01*
X1116930Y38035D01*
X1117277Y36455D01*
X1118120Y35226D01*
X1121196Y32150D01*
X1121196Y18650D01*
X1118120Y15574D01*
X1117226Y14225D01*
X1116930Y12635D01*
X1117277Y11055D01*
X1118120Y9826D01*
X1121196Y6750D01*
X1121196Y-6750D01*
X1111650Y-16296D01*
X1097808Y-16296D01*
X1097472Y-16073D01*
X1095882Y-15776D01*
X1094302Y-16124D01*
X1092983Y-17059D01*
X1092133Y-18435D01*
X1091883Y-19840D01*
X1091883Y-20566D01*
X1090722Y-23366D01*
X1083816Y-30272D01*
X1081016Y-31433D01*
X897009Y-31433D01*
X894209Y-30272D01*
X882540Y-18604D01*
X881380Y-15803D01*
X881380Y7222D01*
X881058Y8807D01*
X880144Y10141D01*
X878871Y10976D01*
X877855Y11397D01*
X876268Y11706D01*
X874745Y11397D01*
X873313Y10804D01*
X853887Y10804D01*
X852455Y11397D01*
X850868Y11706D01*
X849345Y11397D01*
X847913Y10804D01*
X828487Y10804D01*
X827055Y11397D01*
X825468Y11706D01*
X823945Y11397D01*
X822513Y10804D01*
X803087Y10804D01*
X801655Y11397D01*
X800068Y11706D01*
X798545Y11397D01*
X797113Y10804D01*
X777687Y10804D01*
X776255Y11397D01*
X774668Y11706D01*
X773145Y11397D01*
X771713Y10804D01*
X752287Y10804D01*
X750855Y11397D01*
X749268Y11706D01*
X747745Y11397D01*
X746313Y10804D01*
X726887Y10804D01*
X724647Y11732D01*
X722932Y13447D01*
X722004Y15687D01*
X722004Y31179D01*
X721682Y32764D01*
X720768Y34098D01*
X719405Y34969D01*
X717940Y35243D01*
X704460Y35243D01*
X702875Y34921D01*
X701541Y34006D01*
X700669Y32644D01*
X700396Y31179D01*
X700396Y15687D01*
X699468Y13447D01*
X697753Y11732D01*
X695513Y10804D01*
X690014Y10804D01*
X688429Y10482D01*
X687140Y9614D01*
X643824Y-33702D01*
X642931Y-35051D01*
X642634Y-36641D01*
X642981Y-38221D01*
X643917Y-39540D01*
X645293Y-40390D01*
X646698Y-40640D01*
X1404876Y-40640D01*
X1406461Y-40318D01*
G37*
%LPC*%
G36*
X1277233Y450088D02*
X1271819Y455502D01*
X1270471Y456395D01*
X1268945Y456692D01*
X1265061Y456692D01*
X1263476Y456370D01*
X1262188Y455502D01*
X1260199Y453513D01*
X1257958Y452585D01*
X1247546Y452585D01*
X1246155Y453161D01*
X1244568Y453470D01*
X1243045Y453161D01*
X1241654Y452585D01*
X1231242Y452585D01*
X1229001Y453513D01*
X1228282Y454232D01*
X1226934Y455125D01*
X1225409Y455422D01*
X1220758Y455422D01*
X1217771Y456659D01*
X1212309Y462121D01*
X1211072Y465108D01*
X1211072Y534006D01*
X1210763Y535561D01*
X1209802Y537881D01*
X1209802Y541619D01*
X1211233Y545074D01*
X1213876Y547717D01*
X1217331Y549148D01*
X1221069Y549148D01*
X1224524Y547717D01*
X1227167Y545074D01*
X1228598Y541619D01*
X1228598Y537881D01*
X1227637Y535561D01*
X1227328Y534006D01*
X1227328Y494074D01*
X1227650Y492488D01*
X1228565Y491154D01*
X1229927Y490283D01*
X1231392Y490010D01*
X1232455Y490010D01*
X1232455Y478607D01*
X1240442Y478607D01*
X1240442Y490010D01*
X1240994Y490010D01*
X1242579Y490331D01*
X1243868Y491200D01*
X1245305Y492637D01*
X1247546Y493566D01*
X1257958Y493566D01*
X1260199Y492637D01*
X1261665Y491171D01*
X1263014Y490277D01*
X1264604Y489981D01*
X1266184Y490328D01*
X1267503Y491264D01*
X1268353Y492640D01*
X1268603Y494044D01*
X1268603Y496322D01*
X1272327Y500046D01*
X1273220Y501395D01*
X1273517Y502985D01*
X1273170Y504565D01*
X1272327Y505794D01*
X1268603Y509518D01*
X1268603Y521722D01*
X1274842Y527961D01*
X1275735Y529309D01*
X1276031Y530899D01*
X1275684Y532479D01*
X1274842Y533708D01*
X1272159Y536391D01*
X1272159Y536956D01*
X1287399Y536956D01*
X1287399Y552196D01*
X1287964Y552196D01*
X1290647Y549513D01*
X1291995Y548620D01*
X1293585Y548324D01*
X1295165Y548671D01*
X1296394Y549513D01*
X1302633Y555752D01*
X1314837Y555752D01*
X1323660Y546929D01*
X1323789Y546295D01*
X1324704Y544960D01*
X1326066Y544089D01*
X1327661Y543818D01*
X1329086Y544125D01*
X1329667Y544366D01*
X1340079Y544366D01*
X1342320Y543437D01*
X1343757Y542000D01*
X1345106Y541107D01*
X1346631Y540810D01*
X1347184Y540810D01*
X1347184Y529407D01*
X1355171Y529407D01*
X1355171Y540810D01*
X1355676Y540810D01*
X1356609Y540423D01*
X1357324Y539708D01*
X1357635Y538957D01*
X1358539Y537616D01*
X1359895Y536733D01*
X1361390Y536448D01*
X1363944Y536448D01*
X1367399Y535017D01*
X1370042Y532374D01*
X1371473Y528919D01*
X1371473Y525181D01*
X1370512Y522861D01*
X1370203Y521306D01*
X1370203Y512733D01*
X1369657Y511415D01*
X1369348Y509827D01*
X1369682Y508245D01*
X1369795Y508079D01*
X1371473Y504027D01*
X1371473Y500289D01*
X1370512Y497969D01*
X1370203Y496414D01*
X1370203Y493683D01*
X1368966Y490696D01*
X1366679Y488409D01*
X1363692Y487172D01*
X1362216Y487172D01*
X1360631Y486850D01*
X1359343Y485982D01*
X1358833Y485472D01*
X1357939Y484123D01*
X1357643Y482533D01*
X1357711Y482206D01*
X1357711Y480244D01*
X1347184Y480244D01*
X1347184Y468841D01*
X1346631Y468841D01*
X1345046Y468519D01*
X1343757Y467650D01*
X1342320Y466213D01*
X1340079Y465285D01*
X1329667Y465285D01*
X1329086Y465525D01*
X1327499Y465834D01*
X1325916Y465500D01*
X1324589Y464575D01*
X1323729Y463205D01*
X1323467Y461770D01*
X1323467Y458718D01*
X1314837Y450088D01*
X1302633Y450088D01*
X1298909Y453812D01*
X1297560Y454705D01*
X1295970Y455002D01*
X1294390Y454655D01*
X1293161Y453812D01*
X1289437Y450088D01*
X1277233Y450088D01*
G37*
G36*
X1272159Y545084D02*
X1272159Y545649D01*
X1278706Y552196D01*
X1279271Y552196D01*
X1279271Y545084D01*
X1272159Y545084D01*
G37*
G36*
X1355171Y468841D02*
X1355171Y472257D01*
X1357711Y472257D01*
X1357711Y470875D01*
X1357324Y469942D01*
X1356609Y469227D01*
X1355676Y468841D01*
X1355171Y468841D01*
G37*
G36*
X1342655Y391400D02*
X1339593Y392395D01*
X1339389Y392455D01*
X1336929Y393115D01*
X1336720Y393235D01*
X1335944Y393581D01*
X1335075Y393863D01*
X1333091Y395305D01*
X1332734Y395537D01*
X1331191Y396427D01*
X1330475Y397143D01*
X1329991Y397557D01*
X1328627Y398547D01*
X1327637Y399911D01*
X1327223Y400395D01*
X1326507Y401111D01*
X1325617Y402654D01*
X1325385Y403011D01*
X1323943Y404995D01*
X1323661Y405864D01*
X1323315Y406640D01*
X1323195Y406849D01*
X1322535Y409309D01*
X1322475Y409513D01*
X1321480Y412575D01*
X1321480Y420545D01*
X1322475Y423607D01*
X1322535Y423811D01*
X1323195Y426271D01*
X1323315Y426480D01*
X1323661Y427256D01*
X1323943Y428125D01*
X1325385Y430110D01*
X1325617Y430466D01*
X1326507Y432009D01*
X1327223Y432725D01*
X1327637Y433210D01*
X1328627Y434573D01*
X1329991Y435563D01*
X1330475Y435977D01*
X1331191Y436693D01*
X1332734Y437584D01*
X1333091Y437815D01*
X1335075Y439257D01*
X1335944Y439539D01*
X1336720Y439885D01*
X1336929Y440005D01*
X1339389Y440665D01*
X1339593Y440725D01*
X1342655Y441720D01*
X1350625Y441720D01*
X1353687Y440725D01*
X1353891Y440665D01*
X1356351Y440005D01*
X1356560Y439885D01*
X1357336Y439539D01*
X1358205Y439257D01*
X1360190Y437815D01*
X1360546Y437584D01*
X1362089Y436693D01*
X1362805Y435977D01*
X1363290Y435563D01*
X1364653Y434573D01*
X1365643Y433210D01*
X1366057Y432725D01*
X1366773Y432009D01*
X1367664Y430466D01*
X1367895Y430110D01*
X1369337Y428125D01*
X1369619Y427256D01*
X1369965Y426480D01*
X1370085Y426271D01*
X1370745Y423811D01*
X1370805Y423607D01*
X1371800Y420545D01*
X1371800Y412575D01*
X1370805Y409513D01*
X1370745Y409309D01*
X1370085Y406849D01*
X1369965Y406640D01*
X1369619Y405864D01*
X1369337Y404995D01*
X1367895Y403011D01*
X1367664Y402654D01*
X1366773Y401111D01*
X1366057Y400395D01*
X1365643Y399911D01*
X1364653Y398547D01*
X1363290Y397557D01*
X1362805Y397143D01*
X1362089Y396427D01*
X1360546Y395537D01*
X1360190Y395305D01*
X1358205Y393863D01*
X1357336Y393581D01*
X1356560Y393235D01*
X1356351Y393115D01*
X1353891Y392455D01*
X1353687Y392395D01*
X1350625Y391400D01*
X1342655Y391400D01*
G37*
G36*
X1159694Y263445D02*
X1159694Y265985D01*
X1163110Y265985D01*
X1163110Y265479D01*
X1162723Y264546D01*
X1162008Y263831D01*
X1161075Y263445D01*
X1159694Y263445D01*
G37*
G36*
X1150325Y263445D02*
X1149392Y263831D01*
X1148677Y264546D01*
X1148291Y265479D01*
X1148291Y265985D01*
X1151707Y265985D01*
X1151707Y263445D01*
X1150325Y263445D01*
G37*
G36*
X1128014Y161036D02*
X1135183Y161036D01*
X1134067Y158340D01*
X1130710Y154983D01*
X1128014Y153867D01*
X1128014Y161036D01*
G37*
G36*
X1342655Y101400D02*
X1339593Y102395D01*
X1339389Y102455D01*
X1336929Y103115D01*
X1336720Y103235D01*
X1335944Y103581D01*
X1335075Y103863D01*
X1333091Y105305D01*
X1332734Y105537D01*
X1331191Y106427D01*
X1330475Y107143D01*
X1329991Y107557D01*
X1328627Y108547D01*
X1327637Y109911D01*
X1327223Y110395D01*
X1326507Y111111D01*
X1325617Y112654D01*
X1325385Y113011D01*
X1323943Y114995D01*
X1323661Y115864D01*
X1323315Y116640D01*
X1323195Y116849D01*
X1322535Y119309D01*
X1322475Y119513D01*
X1321480Y122575D01*
X1321480Y130545D01*
X1322475Y133607D01*
X1322535Y133811D01*
X1323195Y136271D01*
X1323315Y136480D01*
X1323661Y137256D01*
X1323943Y138125D01*
X1325385Y140110D01*
X1325617Y140466D01*
X1326507Y142009D01*
X1327223Y142725D01*
X1327637Y143210D01*
X1328627Y144573D01*
X1329991Y145563D01*
X1330475Y145977D01*
X1331191Y146693D01*
X1332734Y147584D01*
X1333091Y147815D01*
X1335075Y149257D01*
X1335944Y149539D01*
X1336720Y149885D01*
X1336929Y150005D01*
X1339389Y150665D01*
X1339593Y150725D01*
X1342655Y151720D01*
X1350625Y151720D01*
X1353687Y150725D01*
X1353891Y150665D01*
X1356351Y150005D01*
X1356560Y149885D01*
X1357336Y149539D01*
X1358205Y149257D01*
X1360190Y147815D01*
X1360546Y147584D01*
X1362089Y146693D01*
X1362805Y145977D01*
X1363290Y145563D01*
X1364653Y144573D01*
X1365643Y143210D01*
X1366057Y142725D01*
X1366773Y142009D01*
X1367664Y140466D01*
X1367895Y140110D01*
X1369337Y138125D01*
X1369619Y137256D01*
X1369965Y136480D01*
X1370085Y136271D01*
X1370745Y133811D01*
X1370805Y133607D01*
X1371800Y130545D01*
X1371800Y122575D01*
X1370805Y119513D01*
X1370745Y119309D01*
X1370085Y116849D01*
X1369965Y116640D01*
X1369619Y115864D01*
X1369337Y114995D01*
X1367895Y113011D01*
X1367664Y112654D01*
X1366773Y111111D01*
X1366057Y110395D01*
X1365643Y109911D01*
X1364653Y108547D01*
X1363290Y107557D01*
X1362805Y107143D01*
X1362089Y106427D01*
X1360546Y105537D01*
X1360190Y105305D01*
X1358205Y103863D01*
X1357336Y103581D01*
X1356560Y103235D01*
X1356351Y103115D01*
X1353891Y102455D01*
X1353687Y102395D01*
X1350625Y101400D01*
X1342655Y101400D01*
G37*
%LPD*%
G36*
X164115Y370567D02*
X167196Y371843D01*
X168538Y372747D01*
X169420Y374102D01*
X169705Y375597D01*
X169705Y379311D01*
X169729Y379432D01*
X169729Y386513D01*
X170657Y388753D01*
X172372Y390468D01*
X174612Y391396D01*
X185103Y391396D01*
X186688Y391718D01*
X188022Y392633D01*
X188893Y393995D01*
X189167Y395460D01*
X189167Y404640D01*
X188845Y406225D01*
X187930Y407559D01*
X186568Y408431D01*
X185103Y408704D01*
X174612Y408704D01*
X172372Y409632D01*
X170657Y411347D01*
X169729Y413587D01*
X169729Y420668D01*
X169705Y420789D01*
X169705Y426148D01*
X169383Y427733D01*
X168515Y429022D01*
X161340Y436196D01*
X160180Y438997D01*
X160180Y461416D01*
X161340Y464216D01*
X183590Y486466D01*
X184483Y487815D01*
X184780Y489405D01*
X184433Y490985D01*
X183497Y492304D01*
X182121Y493154D01*
X180716Y493404D01*
X178247Y493404D01*
X176007Y494332D01*
X174292Y496047D01*
X173364Y498287D01*
X173364Y517713D01*
X174292Y519953D01*
X176007Y521668D01*
X178247Y522596D01*
X197673Y522596D01*
X199105Y522003D01*
X200692Y521694D01*
X202215Y522003D01*
X203647Y522596D01*
X223073Y522596D01*
X224505Y522003D01*
X226092Y521694D01*
X227615Y522003D01*
X229047Y522596D01*
X248473Y522596D01*
X250713Y521668D01*
X252151Y520230D01*
X253499Y519337D01*
X255024Y519040D01*
X260096Y519040D01*
X260096Y503936D01*
X268224Y503936D01*
X268224Y519040D01*
X273296Y519040D01*
X274881Y519362D01*
X276169Y520230D01*
X277607Y521668D01*
X279847Y522596D01*
X299273Y522596D01*
X300705Y522003D01*
X302292Y521694D01*
X303815Y522003D01*
X305247Y522596D01*
X324673Y522596D01*
X326105Y522003D01*
X327692Y521694D01*
X329215Y522003D01*
X330647Y522596D01*
X350073Y522596D01*
X351505Y522003D01*
X353092Y521694D01*
X354615Y522003D01*
X356047Y522596D01*
X375473Y522596D01*
X376905Y522003D01*
X378492Y521694D01*
X380015Y522003D01*
X381447Y522596D01*
X400873Y522596D01*
X402305Y522003D01*
X403892Y521694D01*
X405415Y522003D01*
X406847Y522596D01*
X426273Y522596D01*
X428513Y521668D01*
X430228Y519953D01*
X431156Y517713D01*
X431156Y497967D01*
X431478Y496382D01*
X432393Y495048D01*
X433755Y494176D01*
X435220Y493903D01*
X438540Y493903D01*
X440125Y494225D01*
X441459Y495140D01*
X442331Y496502D01*
X442604Y497967D01*
X442604Y517713D01*
X443532Y519953D01*
X445247Y521668D01*
X447487Y522596D01*
X466913Y522596D01*
X468345Y522003D01*
X469932Y521694D01*
X471455Y522003D01*
X473385Y522802D01*
X474726Y523706D01*
X475584Y525001D01*
X475709Y525304D01*
X487521Y537116D01*
X490508Y538353D01*
X650622Y538353D01*
X652207Y538675D01*
X653496Y539543D01*
X680955Y567002D01*
X681848Y568351D01*
X682145Y569941D01*
X681798Y571521D01*
X680862Y572840D01*
X679486Y573690D01*
X678081Y573940D01*
X14224Y573940D01*
X12639Y573618D01*
X11305Y572704D01*
X10433Y571341D01*
X10160Y569876D01*
X10160Y429260D01*
X10482Y427675D01*
X11397Y426341D01*
X12759Y425469D01*
X14224Y425196D01*
X96871Y425196D01*
X98457Y425518D01*
X99745Y426386D01*
X103140Y429781D01*
X108321Y431927D01*
X113929Y431927D01*
X119110Y429781D01*
X122505Y426386D01*
X123853Y425493D01*
X125379Y425196D01*
X152337Y425196D01*
X152751Y425183D01*
X153316Y425123D01*
X153846Y425018D01*
X154365Y424866D01*
X154868Y424670D01*
X155352Y424429D01*
X155813Y424146D01*
X156247Y423824D01*
X156650Y423465D01*
X157020Y423071D01*
X157354Y422646D01*
X157649Y422192D01*
X157902Y421715D01*
X158112Y421218D01*
X158277Y420703D01*
X158396Y420176D01*
X158468Y419640D01*
X158496Y419010D01*
X158496Y374321D01*
X158818Y372736D01*
X159733Y371402D01*
X161095Y370530D01*
X162690Y370259D01*
X164115Y370567D01*
G37*
%LPC*%
G36*
X78982Y546989D02*
X80680Y551090D01*
X84735Y555145D01*
X90033Y557340D01*
X100711Y557340D01*
X100711Y546989D01*
X78982Y546989D01*
G37*
G36*
X108839Y546989D02*
X108839Y557340D01*
X119517Y557340D01*
X124815Y555145D01*
X128870Y551090D01*
X130568Y546989D01*
X108839Y546989D01*
G37*
G36*
X108839Y528511D02*
X108839Y538861D01*
X130568Y538861D01*
X128870Y534760D01*
X124815Y530705D01*
X119517Y528511D01*
X108839Y528511D01*
G37*
G36*
X90033Y528511D02*
X84735Y530705D01*
X80680Y534760D01*
X78982Y538861D01*
X100711Y538861D01*
X100711Y528511D01*
X90033Y528511D01*
G37*
G36*
X89326Y474155D02*
X82721Y476890D01*
X77666Y481946D01*
X74930Y488550D01*
X74930Y495700D01*
X77666Y502304D01*
X82721Y507360D01*
X89326Y510096D01*
X120224Y510096D01*
X126829Y507360D01*
X131884Y502304D01*
X134620Y495700D01*
X134620Y488550D01*
X131884Y481946D01*
X126829Y476890D01*
X120224Y474155D01*
X89326Y474155D01*
G37*
%LPD*%
G36*
X827055Y522003D02*
X827563Y522213D01*
X828904Y523117D01*
X829787Y524473D01*
X830072Y525968D01*
X830072Y535017D01*
X831309Y538004D01*
X840215Y546909D01*
X841108Y548258D01*
X841404Y549848D01*
X841057Y551428D01*
X840122Y552747D01*
X838745Y553597D01*
X837341Y553847D01*
X706725Y553847D01*
X705140Y553525D01*
X703851Y552657D01*
X680728Y529534D01*
X679835Y528185D01*
X679539Y526595D01*
X679886Y525015D01*
X680821Y523696D01*
X682198Y522846D01*
X683602Y522596D01*
X695513Y522596D01*
X696945Y522003D01*
X698532Y521694D01*
X700055Y522003D01*
X701487Y522596D01*
X720913Y522596D01*
X722345Y522003D01*
X723932Y521694D01*
X725455Y522003D01*
X726887Y522596D01*
X746313Y522596D01*
X747745Y522003D01*
X749332Y521694D01*
X750855Y522003D01*
X752287Y522596D01*
X771713Y522596D01*
X773145Y522003D01*
X774732Y521694D01*
X776255Y522003D01*
X777687Y522596D01*
X797113Y522596D01*
X798545Y522003D01*
X800132Y521694D01*
X801655Y522003D01*
X803087Y522596D01*
X822513Y522596D01*
X823945Y522003D01*
X825532Y521694D01*
X827055Y522003D01*
G37*
G36*
X62112Y-23808D02*
X63446Y-22894D01*
X64318Y-21531D01*
X64589Y-19936D01*
X64281Y-18511D01*
X63818Y-17391D01*
X63818Y63428D01*
X64978Y66229D01*
X81409Y82660D01*
X84209Y83820D01*
X84491Y83820D01*
X86076Y84142D01*
X87364Y85010D01*
X88380Y86026D01*
X89274Y87375D01*
X89570Y88965D01*
X89223Y90545D01*
X88380Y91774D01*
X85304Y94850D01*
X85304Y108350D01*
X94850Y117896D01*
X108350Y117896D01*
X117896Y108350D01*
X117896Y94850D01*
X114820Y91774D01*
X113926Y90425D01*
X113630Y88835D01*
X113977Y87255D01*
X114820Y86026D01*
X117896Y82950D01*
X117896Y69450D01*
X114820Y66374D01*
X113926Y65025D01*
X113630Y63435D01*
X113977Y61855D01*
X114820Y60626D01*
X117896Y57550D01*
X117896Y44050D01*
X114820Y40974D01*
X113926Y39625D01*
X113630Y38035D01*
X113977Y36455D01*
X114820Y35226D01*
X117896Y32150D01*
X117896Y18650D01*
X108350Y9104D01*
X94850Y9104D01*
X93933Y10021D01*
X92584Y10915D01*
X90994Y11211D01*
X89414Y10864D01*
X88095Y9928D01*
X87245Y8552D01*
X86995Y7148D01*
X86995Y-7366D01*
X87317Y-8951D01*
X88232Y-10285D01*
X89594Y-11157D01*
X91059Y-11430D01*
X123369Y-11430D01*
X124954Y-11108D01*
X126288Y-10194D01*
X127160Y-8831D01*
X127431Y-7236D01*
X127318Y-6709D01*
X127318Y63428D01*
X128478Y66229D01*
X144909Y82660D01*
X147709Y83820D01*
X147991Y83820D01*
X149576Y84142D01*
X150864Y85010D01*
X151880Y86026D01*
X152774Y87375D01*
X153070Y88965D01*
X152723Y90545D01*
X151880Y91774D01*
X148804Y94850D01*
X148804Y108350D01*
X158350Y117896D01*
X171850Y117896D01*
X181396Y108350D01*
X181396Y94850D01*
X178320Y91774D01*
X177426Y90425D01*
X177130Y88835D01*
X177477Y87255D01*
X178320Y86026D01*
X181396Y82950D01*
X181396Y69450D01*
X178320Y66374D01*
X177426Y65025D01*
X177130Y63435D01*
X177477Y61855D01*
X178320Y60626D01*
X181396Y57550D01*
X181396Y44050D01*
X178320Y40974D01*
X177426Y39625D01*
X177130Y38035D01*
X177477Y36455D01*
X178320Y35226D01*
X181396Y32150D01*
X181396Y18650D01*
X170954Y8208D01*
X170060Y6859D01*
X169764Y5269D01*
X170111Y3689D01*
X171047Y2370D01*
X172423Y1520D01*
X173827Y1270D01*
X186754Y1270D01*
X188339Y1592D01*
X189673Y2507D01*
X190544Y3869D01*
X190818Y5334D01*
X190818Y63428D01*
X191978Y66229D01*
X208409Y82660D01*
X211209Y83820D01*
X211491Y83820D01*
X213076Y84142D01*
X214364Y85010D01*
X215380Y86026D01*
X216274Y87375D01*
X216570Y88965D01*
X216223Y90545D01*
X215380Y91774D01*
X212304Y94850D01*
X212304Y108350D01*
X221850Y117896D01*
X235350Y117896D01*
X244896Y108350D01*
X244896Y94850D01*
X241820Y91774D01*
X240926Y90425D01*
X240630Y88835D01*
X240977Y87255D01*
X241820Y86026D01*
X244896Y82950D01*
X244896Y69450D01*
X241820Y66374D01*
X240926Y65025D01*
X240630Y63435D01*
X240977Y61855D01*
X241820Y60626D01*
X244896Y57550D01*
X244896Y44050D01*
X241820Y40974D01*
X240926Y39625D01*
X240630Y38035D01*
X240977Y36455D01*
X241820Y35226D01*
X244896Y32150D01*
X244896Y18034D01*
X245218Y16449D01*
X246133Y15115D01*
X247495Y14243D01*
X248960Y13970D01*
X260740Y13970D01*
X262325Y14292D01*
X263659Y15207D01*
X264531Y16569D01*
X264804Y18034D01*
X264804Y35113D01*
X265732Y37353D01*
X267447Y39068D01*
X269687Y39996D01*
X289113Y39996D01*
X290545Y39403D01*
X292132Y39094D01*
X293655Y39403D01*
X295087Y39996D01*
X299233Y39996D01*
X300818Y40318D01*
X302152Y41233D01*
X303024Y42595D01*
X303295Y44190D01*
X302923Y45764D01*
X301966Y47068D01*
X300788Y47815D01*
X299045Y48537D01*
X275549Y72032D01*
X274003Y75767D01*
X274003Y138546D01*
X275549Y142280D01*
X287932Y154663D01*
X291667Y156210D01*
X538596Y156210D01*
X542330Y154663D01*
X543734Y153259D01*
X545083Y152366D01*
X546673Y152069D01*
X548253Y152416D01*
X549572Y153352D01*
X550422Y154728D01*
X550672Y156133D01*
X550672Y248937D01*
X550350Y250522D01*
X549436Y251856D01*
X548073Y252727D01*
X546478Y252999D01*
X544904Y252626D01*
X543600Y251670D01*
X542853Y250492D01*
X540696Y245282D01*
X536168Y240754D01*
X530252Y238304D01*
X528374Y238304D01*
X526789Y237982D01*
X525455Y237068D01*
X524583Y235705D01*
X524310Y234240D01*
X524310Y211494D01*
X524632Y209908D01*
X525500Y208620D01*
X526639Y207481D01*
X528882Y202066D01*
X528882Y178934D01*
X526639Y173519D01*
X522495Y169375D01*
X517080Y167132D01*
X511220Y167132D01*
X505805Y169375D01*
X504524Y170656D01*
X503175Y171549D01*
X501585Y171846D01*
X500005Y171499D01*
X498776Y170656D01*
X497495Y169375D01*
X492080Y167132D01*
X486220Y167132D01*
X480805Y169375D01*
X476661Y173519D01*
X474418Y178934D01*
X474418Y202066D01*
X476661Y207481D01*
X477800Y208620D01*
X478693Y209968D01*
X478990Y211494D01*
X478990Y239913D01*
X478668Y241499D01*
X477800Y242787D01*
X475304Y245282D01*
X473655Y249265D01*
X472751Y250607D01*
X471395Y251489D01*
X469803Y251773D01*
X468226Y251413D01*
X466914Y250467D01*
X466145Y249265D01*
X464496Y245282D01*
X462200Y242987D01*
X461307Y241639D01*
X461010Y240113D01*
X461010Y239679D01*
X459463Y235945D01*
X428472Y204954D01*
X427579Y203605D01*
X427282Y202080D01*
X427282Y178934D01*
X425039Y173519D01*
X420895Y169375D01*
X415480Y167132D01*
X409620Y167132D01*
X404205Y169375D01*
X402924Y170656D01*
X401575Y171549D01*
X399985Y171846D01*
X398405Y171499D01*
X397176Y170656D01*
X395895Y169375D01*
X390480Y167132D01*
X384620Y167132D01*
X379205Y169375D01*
X375061Y173519D01*
X372818Y178934D01*
X372818Y202066D01*
X375061Y207481D01*
X379205Y211625D01*
X381534Y212590D01*
X382852Y213471D01*
X401400Y232018D01*
X402293Y233367D01*
X402590Y234892D01*
X402590Y240113D01*
X402268Y241699D01*
X401400Y242987D01*
X399104Y245282D01*
X396654Y251198D01*
X396654Y257602D01*
X399104Y263518D01*
X399613Y264026D01*
X400506Y265375D01*
X400803Y266965D01*
X400456Y268545D01*
X399613Y269774D01*
X399104Y270282D01*
X396654Y276198D01*
X396654Y282602D01*
X399104Y288518D01*
X399613Y289026D01*
X400506Y290375D01*
X400803Y291965D01*
X400456Y293545D01*
X399613Y294774D01*
X399104Y295282D01*
X396654Y301198D01*
X396654Y307602D01*
X399104Y313518D01*
X403632Y318046D01*
X409548Y320496D01*
X412794Y320496D01*
X414379Y320818D01*
X415668Y321686D01*
X467720Y373738D01*
X471454Y375285D01*
X476791Y375285D01*
X478376Y375607D01*
X479710Y376522D01*
X480541Y377821D01*
X480546Y377819D01*
X480556Y377844D01*
X480582Y377884D01*
X480742Y378745D01*
X480879Y379432D01*
X480879Y386513D01*
X481807Y388753D01*
X483522Y390468D01*
X485762Y391396D01*
X496188Y391396D01*
X496285Y391356D01*
X497872Y391047D01*
X499455Y391381D01*
X500782Y392306D01*
X501642Y393676D01*
X501904Y395110D01*
X501904Y404640D01*
X501582Y406225D01*
X500668Y407559D01*
X499305Y408431D01*
X497840Y408704D01*
X485762Y408704D01*
X483522Y409632D01*
X481807Y411347D01*
X480879Y413587D01*
X480879Y420668D01*
X480855Y420789D01*
X480855Y427198D01*
X480533Y428783D01*
X479665Y430072D01*
X464790Y444946D01*
X464681Y445208D01*
X463778Y446550D01*
X462422Y447432D01*
X460830Y447716D01*
X459372Y447408D01*
X459165Y447322D01*
X455235Y447322D01*
X451605Y448826D01*
X448826Y451605D01*
X447322Y455235D01*
X447322Y459165D01*
X448705Y462503D01*
X449014Y464090D01*
X448679Y465673D01*
X447754Y467000D01*
X446385Y467860D01*
X444950Y468122D01*
X392083Y468122D01*
X389096Y469359D01*
X383634Y474821D01*
X382397Y477808D01*
X382397Y490190D01*
X382075Y491775D01*
X381161Y493109D01*
X379798Y493981D01*
X378203Y494252D01*
X376778Y493945D01*
X375025Y493219D01*
X374353Y493082D01*
X373019Y492168D01*
X372282Y491046D01*
X370076Y488840D01*
X369739Y488700D01*
X368421Y487819D01*
X339279Y458678D01*
X338523Y458365D01*
X337182Y457461D01*
X336300Y456105D01*
X336016Y454513D01*
X336376Y452936D01*
X337322Y451624D01*
X338705Y450785D01*
X340079Y450546D01*
X364688Y450546D01*
X366928Y449618D01*
X368643Y447903D01*
X369571Y445663D01*
X369571Y343237D01*
X368643Y340997D01*
X366928Y339282D01*
X364688Y338354D01*
X243038Y338354D01*
X241453Y338032D01*
X240119Y337118D01*
X239248Y335755D01*
X238976Y334160D01*
X239349Y332586D01*
X240165Y331416D01*
X249913Y321668D01*
X251760Y317209D01*
X251782Y317101D01*
X252650Y315813D01*
X254946Y313518D01*
X257396Y307602D01*
X257396Y301198D01*
X254946Y295282D01*
X254437Y294774D01*
X253544Y293425D01*
X253247Y291835D01*
X253594Y290255D01*
X254437Y289026D01*
X254946Y288518D01*
X257396Y282602D01*
X257396Y276198D01*
X254946Y270282D01*
X254437Y269774D01*
X253544Y268425D01*
X253247Y266835D01*
X253594Y265255D01*
X254437Y264026D01*
X254946Y263518D01*
X257396Y257602D01*
X257396Y251596D01*
X257610Y250520D01*
X257610Y211494D01*
X257932Y209908D01*
X258800Y208620D01*
X259939Y207481D01*
X262182Y202066D01*
X262182Y178934D01*
X259939Y173519D01*
X255795Y169375D01*
X250380Y167132D01*
X244520Y167132D01*
X239105Y169375D01*
X237824Y170656D01*
X236475Y171549D01*
X234885Y171846D01*
X233305Y171499D01*
X232076Y170656D01*
X230795Y169375D01*
X225380Y167132D01*
X219520Y167132D01*
X214105Y169375D01*
X209961Y173519D01*
X207718Y178934D01*
X207718Y202066D01*
X209961Y207481D01*
X211100Y208620D01*
X211993Y209968D01*
X212290Y211494D01*
X212290Y216158D01*
X211968Y217743D01*
X211100Y219032D01*
X194587Y235545D01*
X193040Y239279D01*
X193040Y240113D01*
X192718Y241699D01*
X191850Y242987D01*
X189554Y245282D01*
X187905Y249265D01*
X187001Y250607D01*
X185645Y251489D01*
X184053Y251773D01*
X182476Y251413D01*
X181164Y250467D01*
X180395Y249265D01*
X178746Y245282D01*
X176450Y242987D01*
X175557Y241639D01*
X175260Y240113D01*
X175260Y237692D01*
X173713Y233957D01*
X157200Y217444D01*
X156307Y216096D01*
X156010Y214571D01*
X156010Y211494D01*
X156332Y209908D01*
X157200Y208620D01*
X158339Y207481D01*
X160582Y202066D01*
X160582Y178934D01*
X158339Y173519D01*
X154195Y169375D01*
X148780Y167132D01*
X142920Y167132D01*
X137505Y169375D01*
X136224Y170656D01*
X134875Y171549D01*
X133285Y171846D01*
X131705Y171499D01*
X130476Y170656D01*
X129195Y169375D01*
X123780Y167132D01*
X117920Y167132D01*
X112505Y169375D01*
X108361Y173519D01*
X106118Y178934D01*
X106118Y202066D01*
X108361Y207481D01*
X109500Y208620D01*
X110393Y209968D01*
X110690Y211494D01*
X110690Y245177D01*
X110368Y246762D01*
X109454Y248096D01*
X108091Y248967D01*
X106496Y249239D01*
X104720Y248766D01*
X104215Y248498D01*
X103718Y248288D01*
X103203Y248123D01*
X102676Y248004D01*
X102140Y247932D01*
X101510Y247904D01*
X59142Y247904D01*
X57587Y247595D01*
X57414Y247523D01*
X51806Y247523D01*
X51633Y247595D01*
X50078Y247904D01*
X14224Y247904D01*
X12639Y247582D01*
X11305Y246668D01*
X10433Y245305D01*
X10160Y243840D01*
X10160Y84723D01*
X10482Y83138D01*
X11397Y81804D01*
X12759Y80932D01*
X14354Y80661D01*
X15928Y81033D01*
X17098Y81849D01*
X17909Y82660D01*
X20709Y83820D01*
X20991Y83820D01*
X22576Y84142D01*
X23864Y85010D01*
X24880Y86026D01*
X25774Y87375D01*
X26070Y88965D01*
X25723Y90545D01*
X24880Y91774D01*
X21804Y94850D01*
X21804Y108350D01*
X31350Y117896D01*
X44850Y117896D01*
X54396Y108350D01*
X54396Y94850D01*
X51320Y91774D01*
X50426Y90425D01*
X50130Y88835D01*
X50477Y87255D01*
X51320Y86026D01*
X54396Y82950D01*
X54396Y69450D01*
X51320Y66374D01*
X50426Y65025D01*
X50130Y63435D01*
X50477Y61855D01*
X51320Y60626D01*
X54396Y57550D01*
X54396Y44050D01*
X51320Y40974D01*
X50426Y39625D01*
X50130Y38035D01*
X50477Y36455D01*
X51320Y35226D01*
X54396Y32150D01*
X54396Y18650D01*
X44850Y9104D01*
X30734Y9104D01*
X29149Y8782D01*
X27815Y7868D01*
X26943Y6505D01*
X26670Y5040D01*
X26670Y1665D01*
X26992Y80D01*
X27860Y-1209D01*
X49591Y-22940D01*
X50939Y-23833D01*
X52465Y-24130D01*
X60527Y-24130D01*
X62112Y-23808D01*
G37*
%LPC*%
G36*
X419471Y403733D02*
X414290Y405879D01*
X410324Y409845D01*
X408178Y415026D01*
X408178Y420634D01*
X410324Y425815D01*
X414290Y429781D01*
X419471Y431927D01*
X425079Y431927D01*
X430260Y429781D01*
X434226Y425815D01*
X436372Y420634D01*
X436372Y415026D01*
X434226Y409845D01*
X430260Y405879D01*
X425079Y403733D01*
X419471Y403733D01*
G37*
G36*
X426339Y386334D02*
X426339Y392811D01*
X426641Y392811D01*
X432816Y386636D01*
X432816Y386334D01*
X426339Y386334D01*
G37*
G36*
X411734Y386334D02*
X411734Y386636D01*
X417909Y392811D01*
X418211Y392811D01*
X418211Y386334D01*
X411734Y386334D01*
G37*
G36*
X426339Y371729D02*
X426339Y378206D01*
X432816Y378206D01*
X432816Y377904D01*
X426641Y371729D01*
X426339Y371729D01*
G37*
G36*
X417909Y371729D02*
X411734Y377904D01*
X411734Y378206D01*
X418211Y378206D01*
X418211Y371729D01*
X417909Y371729D01*
G37*
%LPD*%
G36*
X645721Y147378D02*
X647025Y148334D01*
X647772Y149512D01*
X648111Y150331D01*
X651082Y153302D01*
X651975Y154650D01*
X652272Y156176D01*
X652272Y173067D01*
X653509Y176054D01*
X655796Y178341D01*
X658783Y179578D01*
X745046Y179578D01*
X746631Y179900D01*
X747965Y180815D01*
X748836Y182177D01*
X749110Y183642D01*
X749110Y198062D01*
X748788Y199647D01*
X747873Y200981D01*
X746511Y201853D01*
X744916Y202124D01*
X743490Y201817D01*
X740653Y200642D01*
X735722Y200642D01*
X731166Y202529D01*
X727679Y206016D01*
X725792Y210572D01*
X725792Y215503D01*
X727679Y220059D01*
X728869Y221250D01*
X729762Y222598D01*
X730060Y224123D01*
X730060Y244504D01*
X731297Y247492D01*
X751046Y267241D01*
X752538Y267859D01*
X753879Y268763D01*
X754025Y268986D01*
X766256Y268986D01*
X766256Y277114D01*
X753015Y277114D01*
X753015Y276986D01*
X752448Y277349D01*
X750983Y277622D01*
X749586Y277622D01*
X748001Y277300D01*
X746712Y276432D01*
X745209Y274929D01*
X740653Y273042D01*
X735722Y273042D01*
X731166Y274929D01*
X727679Y278416D01*
X725792Y282972D01*
X725792Y287903D01*
X727679Y292459D01*
X731166Y295946D01*
X735722Y297834D01*
X740653Y297834D01*
X745209Y295946D01*
X746087Y295068D01*
X747436Y294175D01*
X748961Y293878D01*
X796954Y293878D01*
X799942Y292641D01*
X805164Y287418D01*
X806512Y286525D01*
X808102Y286229D01*
X809682Y286576D01*
X810911Y287418D01*
X816133Y292641D01*
X819121Y293878D01*
X854104Y293878D01*
X857092Y292641D01*
X862553Y287179D01*
X862824Y286524D01*
X863728Y285183D01*
X865084Y284301D01*
X866579Y284016D01*
X868592Y284016D01*
X869982Y283439D01*
X871570Y283130D01*
X873093Y283439D01*
X874483Y284016D01*
X884896Y284016D01*
X887136Y283087D01*
X888851Y281373D01*
X889561Y279659D01*
X890442Y278341D01*
X918266Y250516D01*
X919615Y249623D01*
X921205Y249326D01*
X922785Y249673D01*
X924104Y250609D01*
X924954Y251985D01*
X925204Y253390D01*
X925204Y263713D01*
X925797Y265145D01*
X926106Y266732D01*
X925797Y268255D01*
X925204Y269687D01*
X925204Y289113D01*
X925797Y290545D01*
X926106Y292132D01*
X925797Y293655D01*
X925204Y295087D01*
X925204Y314513D01*
X925797Y315945D01*
X926106Y317532D01*
X925797Y319055D01*
X925204Y320487D01*
X925204Y339913D01*
X925797Y341345D01*
X926106Y342932D01*
X925797Y344455D01*
X925204Y345887D01*
X925204Y365313D01*
X925797Y366745D01*
X926106Y368332D01*
X925797Y369855D01*
X925204Y371287D01*
X925204Y390713D01*
X925797Y392145D01*
X926106Y393732D01*
X925797Y395255D01*
X925376Y396271D01*
X924472Y397613D01*
X923117Y398495D01*
X921622Y398780D01*
X912884Y398780D01*
X910084Y399940D01*
X903384Y406640D01*
X902036Y407533D01*
X900510Y407830D01*
X893864Y407830D01*
X893743Y407854D01*
X886662Y407854D01*
X884422Y408782D01*
X882707Y410497D01*
X881779Y412737D01*
X881779Y438163D01*
X882707Y440403D01*
X884422Y442118D01*
X886662Y443046D01*
X893743Y443046D01*
X893864Y443070D01*
X899541Y443070D01*
X901126Y443392D01*
X902460Y444307D01*
X903332Y445669D01*
X903605Y447134D01*
X903605Y464789D01*
X903283Y466375D01*
X902369Y467709D01*
X901006Y468580D01*
X899411Y468851D01*
X897986Y468544D01*
X896967Y468122D01*
X684500Y468122D01*
X682915Y467800D01*
X681626Y466932D01*
X674529Y459834D01*
X670981Y458365D01*
X669640Y457461D01*
X668757Y456105D01*
X668473Y454513D01*
X668833Y452936D01*
X669779Y451624D01*
X671162Y450785D01*
X672536Y450546D01*
X675838Y450546D01*
X678078Y449618D01*
X679793Y447903D01*
X680721Y445663D01*
X680721Y343237D01*
X679793Y340997D01*
X678078Y339282D01*
X675838Y338354D01*
X528574Y338354D01*
X526989Y338032D01*
X525655Y337118D01*
X524783Y335755D01*
X524510Y334290D01*
X524510Y324560D01*
X524832Y322975D01*
X525747Y321641D01*
X527109Y320769D01*
X528574Y320496D01*
X530252Y320496D01*
X536168Y318046D01*
X540696Y313518D01*
X543146Y307602D01*
X543146Y301198D01*
X540696Y295282D01*
X540187Y294774D01*
X539294Y293425D01*
X538997Y291835D01*
X539344Y290255D01*
X540187Y289026D01*
X540696Y288518D01*
X543146Y282602D01*
X543146Y276198D01*
X540696Y270282D01*
X540187Y269774D01*
X539294Y268425D01*
X538997Y266835D01*
X539344Y265255D01*
X540187Y264026D01*
X540696Y263518D01*
X542853Y258308D01*
X543757Y256967D01*
X545113Y256084D01*
X546705Y255801D01*
X548282Y256160D01*
X549594Y257107D01*
X550433Y258489D01*
X550672Y259863D01*
X550672Y265142D01*
X551909Y268129D01*
X575564Y291783D01*
X576457Y293132D01*
X576754Y294657D01*
X576754Y295341D01*
X579235Y301331D01*
X583819Y305915D01*
X589809Y308396D01*
X616691Y308396D01*
X622681Y305915D01*
X627265Y301331D01*
X629746Y295341D01*
X629746Y288859D01*
X627265Y282869D01*
X626670Y282274D01*
X625776Y280925D01*
X625480Y279335D01*
X625827Y277755D01*
X626670Y276526D01*
X627265Y275931D01*
X629746Y269941D01*
X629746Y263459D01*
X627265Y257469D01*
X626670Y256874D01*
X625776Y255525D01*
X625480Y253935D01*
X625827Y252355D01*
X626670Y251126D01*
X627265Y250531D01*
X629746Y244541D01*
X629746Y238059D01*
X627265Y232069D01*
X626670Y231474D01*
X625776Y230125D01*
X625480Y228535D01*
X625827Y226955D01*
X626670Y225726D01*
X627265Y225131D01*
X627743Y223976D01*
X628624Y222658D01*
X638930Y212352D01*
X640279Y211459D01*
X641869Y211162D01*
X643449Y211509D01*
X644768Y212445D01*
X645618Y213821D01*
X645868Y215226D01*
X645868Y227466D01*
X648111Y232881D01*
X652255Y237025D01*
X657670Y239268D01*
X663530Y239268D01*
X668945Y237025D01*
X670226Y235744D01*
X671575Y234851D01*
X673165Y234554D01*
X674745Y234901D01*
X675974Y235744D01*
X677255Y237025D01*
X682670Y239268D01*
X688530Y239268D01*
X693945Y237025D01*
X698089Y232881D01*
X700332Y227466D01*
X700332Y204334D01*
X698089Y198919D01*
X693945Y194775D01*
X688530Y192532D01*
X682670Y192532D01*
X677255Y194775D01*
X675974Y196056D01*
X674625Y196949D01*
X673035Y197246D01*
X671455Y196899D01*
X670226Y196056D01*
X668945Y194775D01*
X663530Y192532D01*
X657670Y192532D01*
X652255Y194775D01*
X648111Y198919D01*
X647772Y199738D01*
X646868Y201079D01*
X645512Y201962D01*
X643920Y202245D01*
X642343Y201886D01*
X641031Y200940D01*
X640192Y199557D01*
X639953Y198183D01*
X639953Y151067D01*
X640275Y149482D01*
X641190Y148148D01*
X642552Y147277D01*
X644147Y147005D01*
X645721Y147378D01*
G37*
%LPC*%
G36*
X751576Y430403D02*
X746395Y432549D01*
X742429Y436515D01*
X740283Y441696D01*
X740283Y447304D01*
X742429Y452485D01*
X746395Y456451D01*
X751576Y458597D01*
X757184Y458597D01*
X762365Y456451D01*
X766331Y452485D01*
X768477Y447304D01*
X768477Y441696D01*
X766331Y436515D01*
X762365Y432549D01*
X757184Y430403D01*
X751576Y430403D01*
G37*
G36*
X722884Y448564D02*
X722884Y455041D01*
X723186Y455041D01*
X729361Y448866D01*
X729361Y448564D01*
X722884Y448564D01*
G37*
G36*
X708279Y448564D02*
X708279Y448866D01*
X714454Y455041D01*
X714756Y455041D01*
X714756Y448564D01*
X708279Y448564D01*
G37*
G36*
X765148Y308154D02*
X759232Y310604D01*
X754704Y315132D01*
X752254Y321048D01*
X752254Y327452D01*
X754704Y333368D01*
X755213Y333876D01*
X756106Y335225D01*
X756403Y336815D01*
X756056Y338395D01*
X755213Y339624D01*
X754704Y340132D01*
X752254Y346048D01*
X752254Y352452D01*
X754704Y358368D01*
X755213Y358876D01*
X756106Y360225D01*
X756403Y361815D01*
X756056Y363395D01*
X755213Y364624D01*
X754704Y365132D01*
X752254Y371048D01*
X752254Y377452D01*
X754704Y383368D01*
X758083Y386746D01*
X758964Y388065D01*
X759737Y389930D01*
X810220Y440413D01*
X813954Y441960D01*
X814621Y441960D01*
X816176Y442269D01*
X818109Y443070D01*
X852386Y443070D01*
X852507Y443046D01*
X859588Y443046D01*
X861828Y442118D01*
X863543Y440403D01*
X864471Y438163D01*
X864471Y427737D01*
X864168Y427005D01*
X863858Y425418D01*
X864168Y423895D01*
X864471Y423163D01*
X864471Y418406D01*
X864793Y416821D01*
X865661Y415532D01*
X891263Y389930D01*
X892036Y388065D01*
X892917Y386746D01*
X896296Y383368D01*
X898746Y377452D01*
X898746Y371048D01*
X896296Y365132D01*
X895787Y364624D01*
X894894Y363275D01*
X894597Y361685D01*
X894944Y360105D01*
X895787Y358876D01*
X896296Y358368D01*
X898746Y352452D01*
X898746Y346048D01*
X896296Y340132D01*
X895787Y339624D01*
X894894Y338275D01*
X894597Y336685D01*
X894944Y335105D01*
X895787Y333876D01*
X896296Y333368D01*
X898746Y327452D01*
X898746Y321048D01*
X896296Y315132D01*
X891768Y310604D01*
X885852Y308154D01*
X879448Y308154D01*
X873532Y310604D01*
X869004Y315132D01*
X867355Y319115D01*
X866451Y320457D01*
X865095Y321339D01*
X863503Y321623D01*
X861926Y321263D01*
X860614Y320317D01*
X859845Y319115D01*
X858196Y315132D01*
X853668Y310604D01*
X847752Y308154D01*
X841348Y308154D01*
X835432Y310604D01*
X830904Y315132D01*
X829255Y319115D01*
X828351Y320457D01*
X826995Y321339D01*
X825403Y321623D01*
X823826Y321263D01*
X822514Y320317D01*
X821745Y319115D01*
X820096Y315132D01*
X815568Y310604D01*
X809652Y308154D01*
X803248Y308154D01*
X797332Y310604D01*
X792804Y315132D01*
X791155Y319115D01*
X790251Y320457D01*
X788895Y321339D01*
X787303Y321623D01*
X785726Y321263D01*
X784414Y320317D01*
X783645Y319115D01*
X781996Y315132D01*
X777468Y310604D01*
X771552Y308154D01*
X765148Y308154D01*
G37*
G36*
X714454Y433959D02*
X708279Y440134D01*
X708279Y440436D01*
X714756Y440436D01*
X714756Y433959D01*
X714454Y433959D01*
G37*
G36*
X722884Y433959D02*
X722884Y440436D01*
X729361Y440436D01*
X729361Y440134D01*
X723186Y433959D01*
X722884Y433959D01*
G37*
G36*
X657670Y275082D02*
X652255Y277325D01*
X648111Y281469D01*
X645868Y286884D01*
X645868Y310016D01*
X648111Y315431D01*
X652255Y319575D01*
X657670Y321818D01*
X663530Y321818D01*
X668945Y319575D01*
X670226Y318294D01*
X671575Y317401D01*
X673165Y317104D01*
X674745Y317451D01*
X675974Y318294D01*
X677255Y319575D01*
X682670Y321818D01*
X688530Y321818D01*
X693945Y319575D01*
X698089Y315431D01*
X700332Y310016D01*
X700332Y286884D01*
X698089Y281469D01*
X693945Y277325D01*
X688530Y275082D01*
X682670Y275082D01*
X677255Y277325D01*
X675974Y278606D01*
X674625Y279499D01*
X673035Y279796D01*
X671455Y279449D01*
X670226Y278606D01*
X668945Y277325D01*
X663530Y275082D01*
X657670Y275082D01*
G37*
%LPD*%
G36*
X1142256Y351350D02*
X1143590Y352265D01*
X1144461Y353627D01*
X1144735Y355092D01*
X1144735Y359004D01*
X1145311Y360395D01*
X1145620Y361982D01*
X1145311Y363505D01*
X1144735Y364896D01*
X1144735Y375308D01*
X1145207Y376450D01*
X1145517Y378037D01*
X1145182Y379620D01*
X1144327Y380879D01*
X1143999Y381207D01*
X1142650Y382100D01*
X1141125Y382397D01*
X1136541Y382397D01*
X1134956Y382075D01*
X1133622Y381161D01*
X1132750Y379798D01*
X1132479Y378203D01*
X1132851Y376629D01*
X1133667Y375459D01*
X1134067Y375060D01*
X1135183Y372364D01*
X1119886Y372364D01*
X1119886Y364236D01*
X1135183Y364236D01*
X1134067Y361540D01*
X1133514Y360988D01*
X1132621Y359640D01*
X1132325Y358050D01*
X1132672Y356470D01*
X1133514Y355241D01*
X1136537Y352218D01*
X1137885Y351325D01*
X1139411Y351028D01*
X1140671Y351028D01*
X1142256Y351350D01*
G37*
G36*
X982008Y68043D02*
X983178Y68859D01*
X1020268Y105949D01*
X1024003Y107496D01*
X1031415Y107496D01*
X1033000Y107818D01*
X1034334Y108733D01*
X1035206Y110095D01*
X1035477Y111690D01*
X1034703Y113949D01*
X1033943Y114995D01*
X1033661Y115864D01*
X1033315Y116640D01*
X1033195Y116849D01*
X1032535Y119309D01*
X1032475Y119513D01*
X1031480Y122575D01*
X1031480Y130545D01*
X1032475Y133607D01*
X1032535Y133811D01*
X1033195Y136271D01*
X1033315Y136480D01*
X1033661Y137256D01*
X1033943Y138125D01*
X1035385Y140110D01*
X1035617Y140466D01*
X1036507Y142009D01*
X1037223Y142725D01*
X1037637Y143210D01*
X1038627Y144573D01*
X1039991Y145563D01*
X1040475Y145977D01*
X1041191Y146693D01*
X1042734Y147584D01*
X1043091Y147815D01*
X1045075Y149257D01*
X1045944Y149539D01*
X1046720Y149885D01*
X1046929Y150005D01*
X1049389Y150665D01*
X1049593Y150725D01*
X1052655Y151720D01*
X1060625Y151720D01*
X1063687Y150725D01*
X1063891Y150665D01*
X1066351Y150005D01*
X1066560Y149885D01*
X1067336Y149539D01*
X1068205Y149257D01*
X1070190Y147815D01*
X1070546Y147584D01*
X1072089Y146693D01*
X1072805Y145977D01*
X1073290Y145563D01*
X1074653Y144573D01*
X1075643Y143210D01*
X1076057Y142725D01*
X1076773Y142009D01*
X1077664Y140466D01*
X1077895Y140110D01*
X1079337Y138125D01*
X1079619Y137256D01*
X1079965Y136480D01*
X1080085Y136271D01*
X1080400Y135095D01*
X1081122Y133648D01*
X1082350Y132596D01*
X1083892Y132107D01*
X1085502Y132257D01*
X1086927Y133024D01*
X1087939Y134286D01*
X1088390Y136147D01*
X1088390Y151671D01*
X1088068Y153256D01*
X1087200Y154545D01*
X1085419Y156326D01*
X1083061Y162019D01*
X1083061Y168181D01*
X1085419Y173874D01*
X1086471Y174926D01*
X1087364Y176275D01*
X1087661Y177865D01*
X1087314Y179445D01*
X1086471Y180674D01*
X1085963Y181182D01*
X1084615Y182075D01*
X1083089Y182372D01*
X1074963Y182372D01*
X1071976Y183609D01*
X1069689Y185896D01*
X1068983Y187602D01*
X1068102Y188920D01*
X986305Y270717D01*
X984956Y271611D01*
X983366Y271907D01*
X981787Y271560D01*
X980467Y270624D01*
X979677Y269399D01*
X979203Y268255D01*
X978894Y266668D01*
X979203Y265145D01*
X979796Y263713D01*
X979796Y244287D01*
X979203Y242855D01*
X978894Y241268D01*
X979203Y239745D01*
X979796Y238313D01*
X979796Y218887D01*
X979203Y217455D01*
X978894Y215868D01*
X979203Y214345D01*
X979796Y212913D01*
X979796Y193487D01*
X979203Y192055D01*
X978894Y190468D01*
X979203Y188945D01*
X979796Y187513D01*
X979796Y168087D01*
X979203Y166655D01*
X978894Y165068D01*
X979203Y163545D01*
X979796Y162113D01*
X979796Y142687D01*
X979203Y141255D01*
X978894Y139668D01*
X979203Y138145D01*
X979796Y136713D01*
X979796Y117287D01*
X979203Y115855D01*
X978894Y114268D01*
X979203Y112745D01*
X979796Y111313D01*
X979796Y91887D01*
X978868Y89647D01*
X977430Y88209D01*
X976537Y86861D01*
X976240Y85336D01*
X976240Y80264D01*
X961136Y80264D01*
X961136Y72136D01*
X976240Y72136D01*
X976240Y71732D01*
X976562Y70147D01*
X977477Y68813D01*
X978839Y67942D01*
X980434Y67670D01*
X982008Y68043D01*
G37*
G36*
X804697Y184736D02*
X805199Y184838D01*
X806487Y185706D01*
X807925Y187144D01*
X810165Y188072D01*
X817482Y188072D01*
X819067Y188394D01*
X820401Y189309D01*
X821273Y190671D01*
X821546Y192136D01*
X821546Y201564D01*
X821224Y203149D01*
X820310Y204483D01*
X818947Y205355D01*
X817482Y205628D01*
X810165Y205628D01*
X809593Y205865D01*
X808005Y206174D01*
X806482Y205865D01*
X805910Y205628D01*
X797321Y205628D01*
X795736Y205306D01*
X794402Y204392D01*
X793530Y203029D01*
X793259Y201434D01*
X793631Y199860D01*
X794447Y198690D01*
X797170Y195967D01*
X798640Y192420D01*
X798640Y188580D01*
X798961Y186995D01*
X799629Y186021D01*
X798678Y186021D01*
X798678Y169140D01*
X804697Y169140D01*
X804697Y184736D01*
G37*
G36*
X621278Y127318D02*
X622597Y128253D01*
X623447Y129630D01*
X623697Y131034D01*
X623697Y149473D01*
X623375Y151058D01*
X622461Y152392D01*
X621098Y153263D01*
X619503Y153535D01*
X618078Y153227D01*
X615984Y152360D01*
X607314Y152360D01*
X607314Y169164D01*
X599186Y169164D01*
X599186Y150708D01*
X598580Y149761D01*
X598309Y148166D01*
X598681Y146592D01*
X599497Y145422D01*
X616759Y128160D01*
X618108Y127267D01*
X619698Y126971D01*
X621278Y127318D01*
G37*
G36*
X882360Y119575D02*
X883649Y120443D01*
X885002Y121797D01*
X885895Y123145D01*
X886192Y124735D01*
X885845Y126315D01*
X884909Y127634D01*
X883533Y128484D01*
X882128Y128735D01*
X874483Y128735D01*
X873093Y129311D01*
X871505Y129620D01*
X869982Y129311D01*
X868592Y128735D01*
X858179Y128735D01*
X857218Y129133D01*
X855630Y129442D01*
X854107Y129133D01*
X853146Y128735D01*
X842733Y128735D01*
X840493Y129663D01*
X839055Y131100D01*
X837707Y131993D01*
X836182Y132291D01*
X835629Y132291D01*
X835629Y143694D01*
X827642Y143694D01*
X827642Y132291D01*
X826580Y132291D01*
X824994Y131969D01*
X823660Y131054D01*
X822789Y129692D01*
X822516Y128227D01*
X822516Y125383D01*
X822304Y124872D01*
X821995Y123285D01*
X822329Y121702D01*
X823254Y120375D01*
X824624Y119515D01*
X826058Y119253D01*
X880775Y119253D01*
X882360Y119575D01*
G37*
G36*
X481377Y57154D02*
X482711Y58069D01*
X483583Y59432D01*
X483854Y61026D01*
X483482Y62600D01*
X482666Y63770D01*
X476140Y70296D01*
X474980Y73097D01*
X474980Y97191D01*
X474658Y98776D01*
X473790Y100064D01*
X472774Y101080D01*
X471425Y101974D01*
X469835Y102270D01*
X468255Y101923D01*
X467026Y101080D01*
X463950Y98004D01*
X450450Y98004D01*
X440904Y107550D01*
X440904Y121050D01*
X448806Y128952D01*
X449700Y130301D01*
X449996Y131891D01*
X449649Y133471D01*
X448713Y134790D01*
X447337Y135640D01*
X445933Y135890D01*
X404967Y135890D01*
X403382Y135568D01*
X402048Y134654D01*
X401177Y133291D01*
X400905Y131696D01*
X401278Y130122D01*
X402094Y128952D01*
X409996Y121050D01*
X409996Y107550D01*
X400450Y98004D01*
X386950Y98004D01*
X383874Y101080D01*
X382525Y101974D01*
X380935Y102270D01*
X379355Y101923D01*
X378126Y101080D01*
X377110Y100064D01*
X376217Y98716D01*
X375920Y97191D01*
X375920Y88977D01*
X376242Y87392D01*
X377110Y86104D01*
X405191Y58023D01*
X406539Y57130D01*
X408065Y56833D01*
X479792Y56833D01*
X481377Y57154D01*
G37*
G36*
X590498Y69854D02*
X591832Y70769D01*
X592703Y72132D01*
X592975Y73726D01*
X592602Y75300D01*
X591786Y76470D01*
X556634Y111623D01*
X555285Y112516D01*
X553695Y112813D01*
X552115Y112466D01*
X550796Y111530D01*
X549946Y110154D01*
X549696Y108749D01*
X549696Y107550D01*
X540150Y98004D01*
X526650Y98004D01*
X523574Y101080D01*
X522225Y101974D01*
X520635Y102270D01*
X519055Y101923D01*
X517826Y101080D01*
X516810Y100064D01*
X515917Y98716D01*
X515620Y97191D01*
X515620Y79452D01*
X515942Y77867D01*
X516810Y76579D01*
X522666Y70723D01*
X524014Y69830D01*
X525540Y69533D01*
X588913Y69533D01*
X590498Y69854D01*
G37*
G36*
X926281Y66044D02*
X927615Y66959D01*
X928487Y68322D01*
X928760Y69787D01*
X928760Y72136D01*
X943864Y72136D01*
X943864Y80264D01*
X926728Y80264D01*
X926728Y80136D01*
X926161Y80499D01*
X924696Y80772D01*
X916275Y80772D01*
X914690Y80450D01*
X913401Y79582D01*
X912337Y78517D01*
X909349Y77280D01*
X880350Y77280D01*
X878765Y76958D01*
X877431Y76043D01*
X876560Y74681D01*
X876288Y73086D01*
X876661Y71512D01*
X877477Y70342D01*
X880906Y66913D01*
X882254Y66020D01*
X883779Y65723D01*
X924696Y65723D01*
X926281Y66044D01*
G37*
G36*
X1022625Y-9521D02*
X1023959Y-8606D01*
X1024831Y-7244D01*
X1025104Y-5779D01*
X1025104Y6750D01*
X1028180Y9826D01*
X1029074Y11175D01*
X1029370Y12765D01*
X1029023Y14345D01*
X1028180Y15574D01*
X1025104Y18650D01*
X1025104Y30058D01*
X1024782Y31644D01*
X1023868Y32978D01*
X1022505Y33849D01*
X1020910Y34120D01*
X1019485Y33813D01*
X1019103Y33655D01*
X933060Y33655D01*
X931475Y33333D01*
X930141Y32419D01*
X929269Y31056D01*
X928996Y29591D01*
X928996Y15687D01*
X928068Y13447D01*
X926353Y11732D01*
X924529Y10976D01*
X923188Y10072D01*
X922305Y8717D01*
X922020Y7222D01*
X922020Y-5779D01*
X922342Y-7364D01*
X923257Y-8698D01*
X924619Y-9569D01*
X926084Y-9843D01*
X1021040Y-9843D01*
X1022625Y-9521D01*
G37*
G36*
X100361Y254161D02*
X101028Y254618D01*
X101463Y255300D01*
X101600Y256032D01*
X101600Y312196D01*
X101439Y312988D01*
X100982Y313655D01*
X100301Y314091D01*
X99503Y314227D01*
X98716Y314041D01*
X98131Y313633D01*
X73065Y288567D01*
X69331Y287020D01*
X65228Y287020D01*
X64435Y286859D01*
X63791Y286425D01*
X60449Y283083D01*
X48771Y283083D01*
X40513Y291341D01*
X40513Y303019D01*
X48771Y311277D01*
X60449Y311277D01*
X62307Y309419D01*
X62981Y308973D01*
X63776Y308824D01*
X64566Y308998D01*
X65181Y309419D01*
X124403Y368641D01*
X124849Y369315D01*
X124998Y370110D01*
X124824Y370900D01*
X124356Y371560D01*
X123668Y371985D01*
X122966Y372110D01*
X121743Y372110D01*
X120950Y371949D01*
X120306Y371515D01*
X116964Y368173D01*
X105286Y368173D01*
X97028Y376431D01*
X97028Y388109D01*
X105286Y396367D01*
X116964Y396367D01*
X120306Y393025D01*
X120980Y392579D01*
X121743Y392430D01*
X135371Y392430D01*
X139105Y390883D01*
X146488Y383500D01*
X147162Y383054D01*
X147925Y382905D01*
X150368Y382905D01*
X151161Y383066D01*
X151828Y383523D01*
X152263Y384205D01*
X152400Y384937D01*
X152400Y417068D01*
X152239Y417861D01*
X151782Y418528D01*
X151101Y418963D01*
X150368Y419100D01*
X127254Y419100D01*
X126461Y418939D01*
X125794Y418482D01*
X125359Y417801D01*
X125222Y417068D01*
X125222Y415026D01*
X123076Y409845D01*
X119110Y405879D01*
X113929Y403733D01*
X108321Y403733D01*
X103140Y405879D01*
X99174Y409845D01*
X97028Y415026D01*
X97028Y417068D01*
X96867Y417861D01*
X96410Y418528D01*
X95729Y418963D01*
X94996Y419100D01*
X14732Y419100D01*
X13939Y418939D01*
X13272Y418482D01*
X12837Y417801D01*
X12700Y417068D01*
X12700Y256032D01*
X12861Y255239D01*
X13318Y254572D01*
X14000Y254137D01*
X14732Y254000D01*
X99568Y254000D01*
X100361Y254161D01*
G37*
D10*
X288475Y394450D03*
X599625Y394450D03*
D11*
X210344Y400050D03*
D12*
X522288Y400050D03*
D13*
X279400Y25400D03*
X304800Y25400D03*
X330200Y25400D03*
X355600Y25400D03*
X381000Y25400D03*
X406400Y25400D03*
X431800Y25400D03*
X457200Y25400D03*
X508000Y25400D03*
X533400Y25400D03*
X558800Y25400D03*
X584200Y25400D03*
X609600Y25400D03*
X635000Y25400D03*
X660400Y25400D03*
X685800Y25400D03*
X736600Y25400D03*
X762000Y25400D03*
X787400Y25400D03*
X812800Y25400D03*
X838200Y25400D03*
X863600Y25400D03*
X889000Y25400D03*
X914400Y25400D03*
X939800Y76200D03*
X965200Y76200D03*
X939800Y101600D03*
X939800Y127000D03*
X965200Y101600D03*
X965200Y127000D03*
X939800Y152400D03*
X965200Y152400D03*
X939800Y177800D03*
X965200Y177800D03*
X939800Y203200D03*
X965200Y203200D03*
X939800Y228600D03*
X965200Y228600D03*
X939800Y254000D03*
X965200Y254000D03*
X939800Y279400D03*
X965200Y279400D03*
X939800Y304800D03*
X965200Y304800D03*
X939800Y330200D03*
X965200Y330200D03*
X939800Y355600D03*
X965200Y355600D03*
X939800Y381000D03*
X965200Y381000D03*
X939800Y406400D03*
X965200Y406400D03*
X939800Y431800D03*
X965200Y431800D03*
X939800Y457200D03*
X965200Y457200D03*
X939800Y482600D03*
X965200Y482600D03*
X939800Y508000D03*
X965200Y508000D03*
X863600Y508000D03*
X838200Y508000D03*
X812800Y508000D03*
X787400Y508000D03*
X762000Y508000D03*
X736600Y508000D03*
X711200Y508000D03*
X685800Y508000D03*
X635000Y508000D03*
X609600Y508000D03*
X584200Y508000D03*
X558800Y508000D03*
X533400Y508000D03*
X508000Y508000D03*
X482600Y508000D03*
X457200Y508000D03*
X416560Y508000D03*
X391160Y508000D03*
X365760Y508000D03*
X340360Y508000D03*
X314960Y508000D03*
X289560Y508000D03*
X264160Y508000D03*
X238760Y508000D03*
X213360Y508000D03*
X187960Y508000D03*
D14*
X815784Y273050D03*
X800292Y273050D03*
D15*
X814388Y221551D03*
X801688Y221551D03*
X788988Y221551D03*
X776288Y221551D03*
X776288Y172149D03*
X788988Y172149D03*
X801688Y172149D03*
X814388Y172149D03*
D16*
X831636Y139700D03*
X847940Y139700D03*
X879690Y215900D03*
X863386Y215900D03*
X847940Y234950D03*
X831636Y234950D03*
X879690Y234950D03*
X863386Y234950D03*
X847940Y254000D03*
X831636Y254000D03*
X879690Y254000D03*
X863386Y254000D03*
X847940Y273050D03*
X831636Y273050D03*
X879690Y273050D03*
X863386Y273050D03*
X799886Y247650D03*
X816190Y247650D03*
X761786Y247650D03*
X778090Y247650D03*
D17*
X738188Y285438D03*
X738188Y213038D03*
D16*
X879690Y139700D03*
X863386Y139700D03*
X847940Y158750D03*
X831636Y158750D03*
X879690Y158750D03*
X863386Y158750D03*
X847940Y177800D03*
X831636Y177800D03*
X879690Y177800D03*
X863386Y177800D03*
X847940Y196850D03*
X831636Y196850D03*
X879690Y196850D03*
X863386Y196850D03*
X847940Y215900D03*
X831636Y215900D03*
D14*
X762192Y273050D03*
X777684Y273050D03*
D18*
X685600Y141986D02*
X685600Y124714D01*
X660600Y124714D02*
X660600Y141986D01*
D19*
X796885Y144105D03*
D20*
X761325Y144105D03*
D21*
X613450Y292100D02*
X593050Y292100D01*
X593050Y266700D02*
X613450Y266700D01*
X613450Y241300D02*
X593050Y241300D01*
X593050Y215900D02*
X613450Y215900D01*
X613450Y190500D02*
X593050Y190500D01*
X593050Y165100D02*
X613450Y165100D01*
D22*
X1098550Y165100D03*
X1098550Y190500D03*
X1098550Y215900D03*
X1098550Y241300D03*
X1098550Y266700D03*
X1098550Y292100D03*
X1098550Y317500D03*
X1098550Y342900D03*
X1098550Y368300D03*
X1123950Y165100D03*
X1123950Y190500D03*
X1123950Y215900D03*
X1123950Y241300D03*
X1123950Y266700D03*
X1123950Y292100D03*
X1123950Y317500D03*
X1123950Y342900D03*
X1123950Y368300D03*
D23*
X1063625Y353798D03*
X1063625Y370102D03*
X1155700Y353798D03*
X1155700Y370102D03*
X1155700Y269978D03*
X1155700Y286282D03*
X1155700Y296648D03*
X1155700Y312952D03*
D24*
X1283335Y541020D03*
X1308735Y541020D03*
X1283335Y515620D03*
X1308735Y515620D03*
X1283335Y490220D03*
X1308735Y490220D03*
X1283335Y464820D03*
X1308735Y464820D03*
D16*
X1236448Y482600D03*
X1252752Y482600D03*
X1236448Y463550D03*
X1252752Y463550D03*
X1334873Y514350D03*
X1351177Y514350D03*
X1334873Y495300D03*
X1351177Y495300D03*
X1351177Y476250D03*
X1334873Y476250D03*
X1351177Y533400D03*
X1334873Y533400D03*
D25*
X197325Y423050D03*
X192325Y423050D03*
X187325Y423050D03*
X182325Y423050D03*
X177325Y423050D03*
X177325Y377050D03*
X182325Y377050D03*
X187325Y377050D03*
X192325Y377050D03*
X197325Y377050D03*
D26*
X187325Y400050D03*
D27*
X241300Y304400D03*
X241300Y279400D03*
X241300Y254400D03*
X203200Y304400D03*
X203200Y279400D03*
X203200Y254400D03*
X165100Y304400D03*
X165100Y279400D03*
X165100Y254400D03*
X127000Y304400D03*
X127000Y279400D03*
X127000Y254400D03*
D18*
X145850Y199136D02*
X145850Y181864D01*
X120850Y181864D02*
X120850Y199136D01*
X247450Y199136D02*
X247450Y181864D01*
X222450Y181864D02*
X222450Y199136D01*
D25*
X508475Y423050D03*
X503475Y423050D03*
X498475Y423050D03*
X493475Y423050D03*
X488475Y423050D03*
X488475Y377050D03*
X493475Y377050D03*
X498475Y377050D03*
X503475Y377050D03*
X508475Y377050D03*
D26*
X498475Y400050D03*
D27*
X527050Y304400D03*
X527050Y279400D03*
X527050Y254400D03*
X488950Y304400D03*
X488950Y279400D03*
X488950Y254400D03*
X450850Y304400D03*
X450850Y279400D03*
X450850Y254400D03*
X412750Y304400D03*
X412750Y279400D03*
X412750Y254400D03*
D18*
X412550Y199136D02*
X412550Y181864D01*
X387550Y181864D02*
X387550Y199136D01*
X514150Y199136D02*
X514150Y181864D01*
X489150Y181864D02*
X489150Y199136D01*
D28*
X896125Y415450D03*
X896125Y420450D03*
X896125Y425450D03*
X896125Y430450D03*
X896125Y435450D03*
X850125Y435450D03*
X850125Y430450D03*
X850125Y425450D03*
X850125Y420450D03*
X850125Y415450D03*
D29*
X873125Y425450D03*
D27*
X882650Y374250D03*
X882650Y349250D03*
X882650Y324250D03*
X844550Y374250D03*
X844550Y349250D03*
X844550Y324250D03*
X806450Y374250D03*
X806450Y349250D03*
X806450Y324250D03*
X768350Y374250D03*
X768350Y349250D03*
X768350Y324250D03*
D18*
X685600Y307086D02*
X685600Y289814D01*
X660600Y289814D02*
X660600Y307086D01*
X685600Y224536D02*
X685600Y207264D01*
X660600Y207264D02*
X660600Y224536D01*
D30*
X111125Y382270D03*
D20*
X111125Y417830D03*
D30*
X422275Y382270D03*
D20*
X422275Y417830D03*
D31*
X718820Y444500D03*
D20*
X754380Y444500D03*
D32*
X228600Y25400D03*
X228600Y50800D03*
X228600Y76200D03*
X228600Y101600D03*
X165100Y25400D03*
X165100Y50800D03*
X165100Y76200D03*
X165100Y101600D03*
X101600Y25400D03*
X101600Y50800D03*
X101600Y76200D03*
X101600Y101600D03*
X38100Y25400D03*
X38100Y50800D03*
X38100Y76200D03*
X38100Y101600D03*
D33*
X317500Y114300D03*
X342900Y114300D03*
X368300Y114300D03*
X393700Y114300D03*
X457200Y114300D03*
X482600Y114300D03*
X508000Y114300D03*
X533400Y114300D03*
D32*
X1041400Y0D03*
X1041400Y25400D03*
X1041400Y50800D03*
X1041400Y76200D03*
X1104900Y0D03*
X1104900Y25400D03*
X1104900Y50800D03*
X1104900Y76200D03*
D34*
X116650Y542925D02*
X92901Y542925D01*
X92901Y492125D02*
X116650Y492125D01*
D35*
X54610Y297180D03*
D20*
X54610Y261620D03*
D36*
X801688Y172149D02*
X801688Y147051D01*
X796885Y144105D01*
X1155700Y171450D02*
X1155700Y269978D01*
X1155700Y171450D02*
X1149350Y165100D01*
X1123950Y165100D01*
D37*
X873125Y425450D02*
X850125Y425450D01*
X498475Y400050D02*
X498475Y377050D01*
X187325Y377050D02*
X187325Y400050D01*
D38*
X187325Y400050D03*
X180975Y404813D03*
X193675Y404813D03*
X180975Y395288D03*
X193675Y395288D03*
X498475Y400050D03*
X492125Y404813D03*
X504825Y404813D03*
X492125Y395288D03*
X504825Y395288D03*
X873125Y425450D03*
X868363Y431800D03*
X877888Y431800D03*
X868363Y419100D03*
X877888Y419100D03*
D39*
X711200Y546100D03*
X190500Y546100D03*
X1155700Y552450D03*
X990600Y7620D03*
X426720Y107950D03*
X565150Y82550D03*
D40*
X158433Y372745D02*
X142875Y372745D01*
X163513Y395288D02*
X168275Y395288D01*
X163513Y395288D02*
X163513Y377825D01*
X158433Y372745D01*
D39*
X831850Y125730D03*
D40*
X142875Y372745D02*
X133350Y382270D01*
X111125Y382270D01*
X142875Y372745D02*
X67310Y297180D01*
X54610Y297180D01*
D36*
X831636Y158750D02*
X847940Y142446D01*
X847940Y139700D01*
X863386Y139700D01*
X847940Y161496D02*
X831636Y177800D01*
X847940Y161496D02*
X847940Y158750D01*
X863386Y158750D01*
X847940Y180546D02*
X831636Y196850D01*
X847940Y180546D02*
X847940Y177800D01*
X863386Y177800D01*
X847940Y199596D02*
X831636Y215900D01*
X847940Y199596D02*
X847940Y196850D01*
X863386Y196850D01*
X847940Y218646D02*
X831636Y234950D01*
X847940Y218646D02*
X847940Y215900D01*
X863386Y215900D01*
X847940Y237696D02*
X831636Y254000D01*
X847940Y237696D02*
X847940Y234950D01*
X863386Y234950D01*
X847940Y256746D02*
X831636Y273050D01*
X847940Y256746D02*
X847940Y254000D01*
X863386Y254000D01*
X863386Y273050D02*
X855663Y273050D01*
X847940Y273050D01*
X815784Y273050D02*
X815784Y280796D01*
X820738Y285750D01*
X852488Y285750D01*
X855663Y282575D01*
X855663Y273050D01*
X928688Y228600D02*
X939800Y228600D01*
X928688Y228600D02*
X884238Y273050D01*
X879690Y273050D01*
X952500Y215900D02*
X965200Y228600D01*
X952500Y215900D02*
X928902Y215900D01*
X890802Y254000D01*
X879690Y254000D01*
X879690Y234950D02*
X893797Y234950D01*
X925547Y203200D02*
X939800Y203200D01*
X925547Y203200D02*
X893797Y234950D01*
X952500Y190500D02*
X965200Y203200D01*
X952500Y190500D02*
X920750Y190500D01*
X895350Y215900D01*
X879690Y215900D01*
X914400Y177800D02*
X939800Y177800D01*
X914400Y177800D02*
X895350Y196850D01*
X879690Y196850D01*
X952500Y165100D02*
X965200Y177800D01*
X952500Y165100D02*
X908050Y165100D01*
X895350Y177800D01*
X879690Y177800D01*
X879690Y158750D02*
X893797Y158750D01*
X900147Y152400D02*
X939800Y152400D01*
X900147Y152400D02*
X893797Y158750D01*
X952500Y139700D02*
X965200Y152400D01*
X952500Y139700D02*
X879690Y139700D01*
X800292Y273050D02*
X800292Y280796D01*
X795338Y285750D01*
X741363Y285750D01*
X741050Y285438D01*
X738188Y285438D01*
X776288Y234950D02*
X776288Y221551D01*
X776288Y234950D02*
X778090Y236752D01*
X778090Y247650D01*
X778090Y255373D01*
X773113Y260350D01*
X755650Y260350D01*
X738188Y242888D01*
X738188Y213038D01*
X659559Y145009D02*
X660600Y133350D01*
X660400Y139700D02*
X659559Y145009D01*
X660400Y171450D02*
X757238Y171450D01*
X776288Y171450D01*
X776288Y172149D01*
X761786Y247650D02*
X757238Y247650D01*
X660400Y171450D02*
X660400Y139700D01*
X757238Y171450D02*
X757238Y247650D01*
X788988Y236538D02*
X788988Y221551D01*
X788988Y236538D02*
X788988Y268096D01*
X784034Y273050D01*
X777684Y273050D01*
D37*
X801688Y234950D02*
X801688Y221551D01*
X801688Y234950D02*
X800100Y236538D01*
X788988Y236538D01*
X896125Y425450D02*
X920750Y425450D01*
D41*
X920750Y425450D03*
D37*
X187325Y423050D02*
X187325Y449263D01*
D41*
X187325Y449263D03*
D37*
X498475Y450850D02*
X498475Y423050D01*
D41*
X498475Y450850D03*
D36*
X814388Y172149D02*
X814388Y127000D01*
X808038Y120650D01*
X698300Y120650D01*
X685600Y133350D01*
X901700Y127000D02*
X939800Y127000D01*
X901700Y127000D02*
X885825Y111125D01*
X639763Y111125D01*
X631825Y119063D01*
X631825Y207963D01*
X623888Y215900D01*
X603250Y215900D01*
X952500Y114300D02*
X965200Y127000D01*
X952500Y114300D02*
X904875Y114300D01*
X603250Y241300D02*
X587375Y241300D01*
X577850Y231775D01*
X577850Y155575D01*
X630492Y102934D01*
X893509Y102934D02*
X904875Y114300D01*
X893509Y102934D02*
X630492Y102934D01*
X908050Y101600D02*
X939800Y101600D01*
X587375Y266700D02*
X568325Y247650D01*
X587375Y266700D02*
X603250Y266700D01*
X568325Y152029D02*
X626184Y94171D01*
X568325Y152029D02*
X568325Y247650D01*
X900621Y94171D02*
X908050Y101600D01*
X900621Y94171D02*
X626184Y94171D01*
X952500Y88900D02*
X965200Y101600D01*
X952500Y88900D02*
X911225Y88900D01*
X907733Y85408D01*
X587375Y292100D02*
X558800Y263525D01*
X587375Y292100D02*
X603250Y292100D01*
X558800Y147301D02*
X620694Y85408D01*
X558800Y147301D02*
X558800Y263525D01*
X620694Y85408D02*
X907733Y85408D01*
X1123950Y342900D02*
X1155700Y342900D01*
X1155700Y353798D01*
X1155700Y342900D02*
X1169988Y342900D01*
X1169988Y382588D01*
X1147763Y404813D01*
X1103313Y404813D01*
X1095375Y412750D01*
X1095375Y520700D01*
X838200Y533400D02*
X838200Y508000D01*
X1062863Y553212D02*
X1095375Y520700D01*
X858012Y553212D02*
X838200Y533400D01*
X858012Y553212D02*
X1062863Y553212D01*
X1149350Y330200D02*
X1136650Y317500D01*
X1123950Y317500D01*
X1149350Y330200D02*
X1169988Y330200D01*
X1179513Y339725D01*
X1179513Y387350D01*
X1154113Y412750D01*
X1109663Y412750D01*
X1104900Y417513D01*
X1104900Y523875D01*
X1066800Y561975D01*
X701675Y561975D01*
X663575Y523875D01*
X663575Y504825D01*
X644525Y485775D01*
X419100Y485775D01*
X416560Y488315D01*
X416560Y508000D01*
X1144363Y296638D02*
X1155700Y296648D01*
X1144363Y296638D02*
X1143000Y295275D01*
X1145643Y286282D02*
X1155700Y286282D01*
X1145643Y286282D02*
X1143000Y288925D01*
X1143000Y292100D01*
X1143000Y295275D01*
X1143000Y292100D02*
X1123950Y292100D01*
X1111250Y279400D02*
X1123950Y266700D01*
D42*
X1111250Y279400D02*
X1076325Y279400D01*
X974725Y381000D01*
D36*
X965200Y381000D01*
X1111250Y254000D02*
X1123950Y241300D01*
D42*
X1111250Y254000D02*
X1077595Y254000D01*
X975995Y355600D01*
D36*
X965200Y355600D01*
X1111250Y228600D02*
X1123950Y215900D01*
X974408Y330200D02*
X965200Y330200D01*
D42*
X1076008Y228600D02*
X1111250Y228600D01*
X1076008Y228600D02*
X974408Y330200D01*
D36*
X1111250Y203200D02*
X1123950Y190500D01*
X974090Y304800D02*
X965200Y304800D01*
D42*
X974090Y304800D02*
X1075690Y203200D01*
X1111250Y203200D01*
D36*
X863600Y508000D02*
X863600Y527050D01*
X1049552Y353798D02*
X1063625Y353798D01*
X1054100Y342900D02*
X1098550Y342900D01*
X1054100Y342900D02*
X1049552Y347448D01*
X1049552Y353798D01*
X1087007Y401207D02*
X1087007Y513193D01*
X1049552Y379627D02*
X1049552Y353798D01*
X1069975Y384175D02*
X1087007Y401207D01*
X1069975Y384175D02*
X1054100Y384175D01*
X1049552Y379627D01*
X1087007Y513193D02*
X1055624Y544576D01*
X881126Y544576D01*
X863600Y527050D01*
X895350Y520700D02*
X895350Y495300D01*
X889000Y488950D01*
X673100Y488950D01*
X660400Y476250D01*
X393700Y476250D01*
X390525Y479425D01*
X390525Y507365D01*
X391160Y508000D01*
X1065178Y317500D02*
X1098550Y317500D01*
X1065178Y317500D02*
X1028700Y353978D01*
X1028700Y520700D01*
X1013587Y535813D01*
X910463Y535813D01*
X895350Y520700D01*
X1076325Y292100D02*
X1098550Y292100D01*
X1076325Y292100D02*
X1019175Y349250D01*
X1019175Y517525D01*
X1009650Y527050D01*
X920750Y527050D01*
X908050Y514350D01*
X908050Y488950D01*
X895350Y476250D01*
X679450Y476250D01*
X669925Y466725D01*
X466725Y466725D01*
X457200Y457200D01*
D43*
X457200Y457200D03*
D36*
X939800Y381000D02*
X952500Y368300D01*
D42*
X975995Y368300D01*
X1077595Y266700D01*
D36*
X1098550Y266700D01*
X952500Y342900D02*
X939800Y355600D01*
D42*
X952500Y342900D02*
X975678Y342900D01*
X1077278Y241300D01*
D36*
X1098550Y241300D01*
X952500Y317500D02*
X939800Y330200D01*
D42*
X952500Y317500D02*
X974090Y317500D01*
X1075690Y215900D01*
D36*
X1098550Y215900D01*
X952500Y292100D02*
X939800Y304800D01*
D42*
X952500Y292100D02*
X974980Y292100D01*
D36*
X1076580Y190500D02*
X1098550Y190500D01*
D42*
X1076580Y190500D02*
X974980Y292100D01*
D36*
X1063625Y370102D02*
X1085850Y370102D01*
X1096748Y370102D01*
X1098550Y368300D01*
X1155700Y370102D02*
X1155700Y381000D01*
X1146175Y390525D01*
X1095375Y390525D01*
X1085850Y381000D01*
X1085850Y370102D01*
D40*
X355600Y36513D02*
X355600Y25400D01*
X355600Y36513D02*
X334963Y57150D01*
X304800Y57150D01*
X284163Y77788D01*
X284163Y136525D01*
X293688Y146050D01*
X536575Y146050D01*
X609600Y73025D01*
X860425Y73025D01*
X877888Y55563D01*
X984250Y55563D01*
X1026024Y97336D01*
X1098550Y112713D02*
X1098550Y165100D01*
X1083174Y97336D02*
X1026024Y97336D01*
X1083174Y97336D02*
X1098550Y112713D01*
D36*
X482600Y508000D02*
X482600Y520700D01*
X1116013Y420688D02*
X1158875Y420688D01*
X1187450Y392113D01*
X1187450Y331788D01*
X1169988Y314325D01*
X1154151Y314325D01*
X1155700Y312952D01*
X492125Y530225D02*
X482600Y520700D01*
X492125Y530225D02*
X655672Y530225D01*
X696185Y570738D01*
X1072290Y570738D01*
X1113663Y423037D02*
X1116013Y420688D01*
X1113663Y529365D02*
X1072290Y570738D01*
X1113663Y529365D02*
X1113663Y423037D01*
X1252752Y463550D02*
X1252752Y482600D01*
X1252752Y464820D02*
X1252752Y463550D01*
X1252752Y464820D02*
X1283335Y464820D01*
D44*
X1219200Y539750D03*
D36*
X1222375Y463550D02*
X1236448Y463550D01*
X1222375Y463550D02*
X1219200Y466725D01*
X1219200Y539750D01*
X1308735Y515620D02*
X1334873Y515620D01*
X1334873Y514350D01*
X1334873Y533400D01*
X1334873Y490220D02*
X1308735Y490220D01*
X1334873Y490220D02*
X1334873Y495300D01*
X1334873Y476250D01*
X1351177Y495300D02*
X1362075Y495300D01*
D44*
X1362075Y502158D03*
D36*
X1362075Y495300D01*
D44*
X1362075Y527050D03*
D36*
X1362075Y514350D02*
X1351177Y514350D01*
X1362075Y514350D02*
X1362075Y527050D01*
X814388Y245848D02*
X814388Y221551D01*
X814388Y245848D02*
X816190Y247650D01*
X814388Y249452D01*
X814388Y258763D01*
D44*
X814388Y258763D03*
D37*
X206850Y440513D02*
X206850Y459263D01*
X206850Y440513D02*
X197325Y430988D01*
X197325Y423050D01*
X206850Y459263D02*
X212725Y465138D01*
X334963Y465138D01*
X365443Y495618D01*
X365760Y495300D01*
X365760Y508000D01*
X315913Y473075D02*
X211138Y473075D01*
X315913Y473075D02*
X340360Y497523D01*
X340360Y508000D01*
X211138Y473075D02*
X200025Y461963D01*
X200025Y444573D02*
X192325Y436873D01*
X192325Y423050D01*
X200025Y444573D02*
X200025Y461963D01*
X198438Y481013D02*
X298450Y481013D01*
X314960Y497523D01*
X314960Y508000D01*
X198438Y481013D02*
X174625Y457200D01*
X174625Y443328D02*
X182325Y435628D01*
X174625Y443328D02*
X174625Y457200D01*
X182325Y435628D02*
X182325Y423050D01*
X167800Y440513D02*
X167800Y459900D01*
X177325Y430988D02*
X177325Y423050D01*
X177325Y430988D02*
X167800Y440513D01*
X167800Y459900D02*
X195263Y487363D01*
X284163Y487363D01*
X289560Y492760D01*
X289560Y508000D01*
D40*
X148038Y325438D02*
X127000Y304400D01*
X148038Y325438D02*
X163513Y325438D01*
X169863Y331788D01*
X169863Y361950D01*
D37*
X177325Y369413D02*
X177325Y377050D01*
X177325Y369413D02*
X169863Y361950D01*
D40*
X180975Y320275D02*
X165100Y304400D01*
X180975Y320275D02*
X180975Y360363D01*
D37*
X182325Y361713D02*
X182325Y377050D01*
X182325Y361713D02*
X180975Y360363D01*
D40*
X192088Y315513D02*
X203200Y304400D01*
X192088Y315513D02*
X192088Y360363D01*
D37*
X192325Y360600D02*
X192325Y377050D01*
X192325Y360600D02*
X192088Y360363D01*
D40*
X241300Y315913D02*
X241300Y304400D01*
X241300Y315913D02*
X220663Y336550D01*
X206375Y336550D01*
X203200Y339725D01*
X203200Y360363D01*
D37*
X197325Y366238D02*
X197325Y377050D01*
X197325Y366238D02*
X203200Y360363D01*
D40*
X247450Y248250D02*
X247450Y190500D01*
X247450Y248250D02*
X241300Y254400D01*
X222450Y222050D02*
X222450Y190500D01*
X222450Y222050D02*
X203200Y241300D01*
X203200Y254400D01*
X145850Y220463D02*
X145850Y190500D01*
X145850Y220463D02*
X165100Y239713D01*
X165100Y254400D01*
X120850Y248250D02*
X120850Y190500D01*
X120850Y248250D02*
X127000Y254400D01*
X412750Y304400D02*
X473475Y365125D01*
X485775Y365125D01*
D37*
X488475Y367825D02*
X488475Y377050D01*
X488475Y367825D02*
X485775Y365125D01*
D40*
X492125Y345675D02*
X450850Y304400D01*
X492125Y345675D02*
X492125Y354013D01*
D37*
X493475Y355363D02*
X493475Y377050D01*
X493475Y355363D02*
X492125Y354013D01*
D40*
X488950Y311150D02*
X488950Y304400D01*
X488950Y311150D02*
X503238Y325438D01*
X503238Y355600D01*
D37*
X503475Y355838D02*
X503475Y377050D01*
X503475Y355838D02*
X503238Y355600D01*
D40*
X514350Y317100D02*
X527050Y304400D01*
X514350Y317100D02*
X514350Y361950D01*
D37*
X508475Y367825D02*
X508475Y377050D01*
X508475Y367825D02*
X514350Y361950D01*
D40*
X514150Y241500D02*
X514150Y190500D01*
X514150Y241500D02*
X527050Y254400D01*
X489150Y254200D02*
X489150Y190500D01*
X489150Y254200D02*
X488950Y254400D01*
X450850Y241700D02*
X412550Y203400D01*
X412550Y190500D01*
X450850Y241700D02*
X450850Y254400D01*
X387550Y203800D02*
X387550Y190500D01*
X412750Y229000D02*
X412750Y254400D01*
X412750Y229000D02*
X387550Y203800D01*
D37*
X819625Y435450D02*
X850125Y435450D01*
X819625Y435450D02*
X815975Y431800D01*
D40*
X768350Y384175D01*
X768350Y374250D01*
D37*
X830500Y430450D02*
X850125Y430450D01*
X830500Y430450D02*
X825500Y425450D01*
D40*
X806450Y406400D01*
X806450Y374250D01*
D37*
X836375Y420450D02*
X850125Y420450D01*
X836375Y420450D02*
X835025Y419100D01*
D40*
X831850Y415925D01*
X831850Y386950D01*
X844550Y374250D01*
D37*
X856000Y409575D02*
X850125Y415450D01*
X856000Y409575D02*
X857250Y409575D01*
D45*
X860425Y406400D01*
D40*
X882650Y384175D01*
X882650Y374250D01*
D37*
X508475Y423050D02*
X508475Y432275D01*
X515938Y439738D02*
X517525Y439738D01*
X515938Y439738D02*
X508475Y432275D01*
D44*
X517525Y439738D03*
D37*
X503475Y438388D02*
X503475Y423050D01*
X512763Y447675D02*
X512763Y454025D01*
X512763Y447675D02*
X503475Y438388D01*
D44*
X512763Y454025D03*
X482600Y452438D03*
D37*
X493475Y438388D02*
X493475Y423050D01*
X493475Y438388D02*
X482600Y449263D01*
X482600Y452438D01*
D44*
X471250Y454025D03*
D37*
X488475Y432038D02*
X488475Y423050D01*
X488475Y432038D02*
X471250Y449263D01*
X471250Y454025D01*
X896125Y415450D02*
X905350Y415450D01*
X914400Y406400D01*
X939800Y406400D01*
X909875Y420450D02*
X896125Y420450D01*
X909875Y420450D02*
X915988Y414338D01*
X925513Y414338D01*
X935038Y423863D01*
X935038Y430213D01*
X936625Y431800D01*
X939800Y431800D01*
X909875Y430450D02*
X896125Y430450D01*
X909875Y430450D02*
X917575Y438150D01*
X917575Y450850D01*
X923925Y457200D01*
X939800Y457200D01*
X911225Y441025D02*
X905650Y435450D01*
X896125Y435450D01*
X911225Y441025D02*
X911225Y463550D01*
X930275Y482600D01*
X939800Y482600D01*
X508000Y25400D02*
X508000Y17463D01*
X496888Y6350D01*
X209550Y6350D01*
X212725Y50800D02*
X228600Y50800D01*
X212725Y50800D02*
X206375Y44450D01*
X206375Y9525D01*
X209550Y6350D01*
X533400Y17463D02*
X533400Y25400D01*
X533400Y17463D02*
X515938Y0D01*
X204788Y0D01*
X212725Y76200D02*
X228600Y76200D01*
X212725Y76200D02*
X198438Y61913D01*
X198438Y6350D01*
X204788Y0D01*
X558800Y17463D02*
X558800Y25400D01*
X558800Y17463D02*
X534988Y-6350D01*
X147638Y-6350D01*
X163513Y49213D02*
X165100Y50800D01*
X163513Y49213D02*
X149225Y49213D01*
X142875Y42863D01*
X142875Y-1588D01*
X147638Y-6350D01*
X584200Y17463D02*
X584200Y25400D01*
X584200Y17463D02*
X554038Y-12700D01*
X142875Y-12700D01*
X149225Y76200D02*
X165100Y76200D01*
X149225Y76200D02*
X134938Y61913D01*
X134938Y-4763D01*
X142875Y-12700D01*
X609600Y17463D02*
X609600Y25400D01*
X609600Y17463D02*
X573088Y-19050D01*
X85725Y-19050D01*
X85725Y50800D02*
X101600Y50800D01*
X85725Y50800D02*
X79375Y44450D01*
X79375Y-12700D01*
X85725Y-19050D01*
X635000Y17463D02*
X635000Y25400D01*
X635000Y17463D02*
X592138Y-25400D01*
X80963Y-25400D01*
X71438Y-15875D01*
X71438Y61913D01*
X85725Y76200D01*
X101600Y76200D01*
X660400Y25400D02*
X660400Y17463D01*
X611188Y-31750D01*
X47625Y-31750D01*
X19050Y-3175D01*
X19050Y46038D01*
X23813Y50800D02*
X38100Y50800D01*
X23813Y50800D02*
X19050Y46038D01*
X685800Y25400D02*
X685800Y19050D01*
X627634Y-39116D01*
X42863Y-39116D01*
X11684Y-7938D01*
X11684Y65659D01*
X22225Y76200D01*
X38100Y76200D01*
X736600Y34925D02*
X736600Y25400D01*
X736600Y34925D02*
X728663Y42863D01*
X382588Y42863D01*
X342900Y82550D01*
X342900Y114300D01*
X762000Y39688D02*
X762000Y25400D01*
X762000Y39688D02*
X752475Y49213D01*
X403225Y49213D01*
X368300Y84138D01*
X368300Y114300D01*
X787400Y42863D02*
X787400Y25400D01*
X787400Y42863D02*
X774700Y55563D01*
X501650Y55563D01*
X482600Y74613D01*
X482600Y114300D01*
X812800Y47625D02*
X812800Y25400D01*
X812800Y47625D02*
X798513Y61913D01*
X520700Y61913D01*
X508000Y74613D01*
X508000Y114300D01*
X863600Y34925D02*
X863600Y25400D01*
X863600Y34925D02*
X869950Y41275D01*
X1017588Y41275D01*
X1027113Y50800D01*
X1041400Y50800D01*
X889000Y25400D02*
X889000Y-14288D01*
X898525Y-23813D01*
X1079500Y-23813D01*
X1084263Y-19050D01*
X1084263Y15875D01*
X1093788Y25400D01*
X1104900Y25400D01*
X1104900Y50800D02*
X1089025Y50800D01*
X1076325Y38100D01*
X1076325Y-11113D01*
X1069975Y-17463D01*
X917575Y-17463D01*
X914400Y-14288D01*
X914400Y25400D01*
D38*
X50800Y381000D03*
X38100Y381000D03*
X63500Y381000D03*
X63500Y368300D03*
X50800Y368300D03*
X38100Y368300D03*
X38100Y355600D03*
X50800Y355600D03*
X63500Y355600D03*
D45*
X799886Y258548D02*
X799886Y247650D01*
X799886Y258548D02*
X800100Y258763D01*
D38*
X800100Y258763D03*
X788988Y190500D03*
D45*
X788988Y172149D01*
D36*
X788988Y161925D02*
X771168Y144105D01*
X761325Y144105D01*
D37*
X788988Y161925D02*
X788988Y172149D01*
M02*
