G04 EAGLE Gerber RS-274X export*
G75*
%MOMM*%
%FSLAX34Y34*%
%LPD*%
%INBottom Copper*%
%IPPOS*%
%AMOC8*
5,1,8,0,0,1.08239X$1,22.5*%
G01*
G04 Define Apertures*
%ADD10R,1.700000X1.700000*%
%ADD11C,1.260000*%
%ADD12C,1.727200*%
%ADD13P,1.73204X8X22.5*%
%ADD14C,1.600200*%
%ADD15C,2.040000*%
%ADD16C,1.878669*%
%ADD17P,1.8695X8X292.5*%
%ADD18C,2.000000*%
%ADD19P,1.73204X8X292.5*%
%ADD20P,1.73204X8X202.5*%
%ADD21P,2.20808X8X202.5*%
%ADD22R,0.798700X0.973900*%
%ADD23P,2.20808X8X112.5*%
%ADD24R,0.973900X0.798700*%
%ADD25C,2.374900*%
%ADD26R,5.800000X6.200000*%
%ADD27R,1.600000X3.000000*%
%ADD28P,1.73204X8X112.5*%
%ADD29C,0.711200*%
%ADD30R,0.812800X0.812800*%
%ADD31C,1.016000*%
%ADD32C,0.812800*%
%ADD33C,1.270000*%
%ADD34C,1.778000*%
%ADD35C,0.152400*%
%ADD36C,0.756400*%
%ADD37C,0.406400*%
%ADD38C,0.660400*%
%ADD39C,0.304800*%
%ADD40C,0.609600*%
G36*
X32064Y459240D02*
X36576Y459240D01*
X38161Y459562D01*
X39495Y460477D01*
X40367Y461839D01*
X40640Y463304D01*
X40640Y497321D01*
X42187Y501055D01*
X67270Y526138D01*
X71004Y527685D01*
X77944Y527685D01*
X79529Y528007D01*
X80863Y528922D01*
X81735Y530284D01*
X82006Y531879D01*
X81634Y533453D01*
X80818Y534623D01*
X80680Y534760D01*
X78982Y538861D01*
X133096Y538861D01*
X133096Y542341D01*
X133663Y541978D01*
X135258Y541707D01*
X136832Y542079D01*
X138002Y542895D01*
X162109Y567002D01*
X163002Y568351D01*
X163299Y569941D01*
X162952Y571521D01*
X162016Y572840D01*
X160640Y573690D01*
X159235Y573940D01*
X14224Y573940D01*
X12639Y573618D01*
X11305Y572704D01*
X10433Y571341D01*
X10160Y569876D01*
X10160Y460013D01*
X10482Y458428D01*
X11397Y457093D01*
X12759Y456222D01*
X14354Y455951D01*
X15928Y456323D01*
X17232Y457280D01*
X17655Y457947D01*
X18561Y458853D01*
X19495Y459240D01*
X23936Y459240D01*
X23936Y437636D01*
X32064Y437636D01*
X32064Y459240D01*
G37*
%LPC*%
G36*
X108839Y546989D02*
X108839Y557340D01*
X119517Y557340D01*
X124815Y555145D01*
X128870Y551090D01*
X130568Y546989D01*
X108839Y546989D01*
G37*
G36*
X78982Y546989D02*
X80680Y551090D01*
X84735Y555145D01*
X90033Y557340D01*
X100711Y557340D01*
X100711Y546989D01*
X78982Y546989D01*
G37*
%LPD*%
G36*
X37095Y-40318D02*
X38429Y-39404D01*
X39301Y-38041D01*
X39572Y-36446D01*
X39200Y-34872D01*
X38384Y-33702D01*
X29487Y-24805D01*
X27940Y-21071D01*
X27940Y10831D01*
X27618Y12416D01*
X26750Y13704D01*
X21804Y18650D01*
X21804Y32150D01*
X24880Y35226D01*
X25774Y36575D01*
X26070Y38165D01*
X25723Y39745D01*
X24880Y40974D01*
X21804Y44050D01*
X21804Y57550D01*
X24880Y60626D01*
X25774Y61975D01*
X26070Y63565D01*
X25723Y65145D01*
X24880Y66374D01*
X21804Y69450D01*
X21804Y82950D01*
X24880Y86026D01*
X25774Y87375D01*
X26070Y88965D01*
X25723Y90545D01*
X24880Y91774D01*
X21804Y94850D01*
X21804Y108350D01*
X31350Y117896D01*
X44850Y117896D01*
X49179Y113567D01*
X50527Y112674D01*
X52117Y112377D01*
X53026Y112566D01*
X63729Y112566D01*
X65970Y111637D01*
X67407Y110200D01*
X68756Y109307D01*
X70281Y109010D01*
X70834Y109010D01*
X70834Y94191D01*
X70281Y94191D01*
X68696Y93869D01*
X67407Y93000D01*
X66181Y91774D01*
X65287Y90425D01*
X64991Y88835D01*
X65338Y87255D01*
X66181Y86026D01*
X67407Y84800D01*
X68756Y83907D01*
X70281Y83610D01*
X70834Y83610D01*
X70834Y68791D01*
X70281Y68791D01*
X68696Y68469D01*
X67407Y67600D01*
X66181Y66374D01*
X65287Y65025D01*
X64991Y63435D01*
X65338Y61855D01*
X66181Y60626D01*
X67407Y59400D01*
X68756Y58507D01*
X70281Y58210D01*
X70834Y58210D01*
X70834Y43391D01*
X70281Y43391D01*
X68696Y43069D01*
X67407Y42200D01*
X65970Y40763D01*
X63729Y39835D01*
X56523Y39835D01*
X54938Y39513D01*
X53604Y38598D01*
X52732Y37236D01*
X52461Y35641D01*
X52833Y34067D01*
X53649Y32897D01*
X54396Y32150D01*
X54396Y18650D01*
X49450Y13704D01*
X48557Y12356D01*
X48260Y10831D01*
X48260Y-13158D01*
X48582Y-14743D01*
X49450Y-16032D01*
X50643Y-17225D01*
X51992Y-18118D01*
X53517Y-18415D01*
X87376Y-18415D01*
X88961Y-18093D01*
X90295Y-17179D01*
X91167Y-15816D01*
X91440Y-14351D01*
X91440Y10831D01*
X91118Y12416D01*
X90250Y13704D01*
X85304Y18650D01*
X85304Y32150D01*
X88380Y35226D01*
X89274Y36575D01*
X89570Y38165D01*
X89223Y39745D01*
X88380Y40974D01*
X85792Y43562D01*
X84443Y44456D01*
X82853Y44752D01*
X81274Y44405D01*
X80508Y43880D01*
X79326Y43391D01*
X78821Y43391D01*
X78821Y58210D01*
X79326Y58210D01*
X80552Y57702D01*
X81393Y57144D01*
X82983Y56848D01*
X84563Y57195D01*
X85792Y58038D01*
X88380Y60626D01*
X89274Y61975D01*
X89570Y63565D01*
X89223Y65145D01*
X88380Y66374D01*
X85792Y68962D01*
X84443Y69856D01*
X82853Y70152D01*
X81274Y69805D01*
X80508Y69280D01*
X79326Y68791D01*
X78821Y68791D01*
X78821Y83610D01*
X79326Y83610D01*
X80552Y83102D01*
X81393Y82544D01*
X82983Y82248D01*
X84563Y82595D01*
X85792Y83438D01*
X88380Y86026D01*
X89274Y87375D01*
X89570Y88965D01*
X89223Y90545D01*
X88380Y91774D01*
X85792Y94362D01*
X84443Y95256D01*
X82853Y95552D01*
X81274Y95205D01*
X80508Y94680D01*
X79326Y94191D01*
X78821Y94191D01*
X78821Y109010D01*
X79326Y109010D01*
X80552Y108502D01*
X81393Y107944D01*
X82983Y107648D01*
X84563Y107995D01*
X85792Y108838D01*
X94850Y117896D01*
X108350Y117896D01*
X112679Y113567D01*
X114027Y112674D01*
X115617Y112377D01*
X116526Y112566D01*
X127229Y112566D01*
X129470Y111637D01*
X130907Y110200D01*
X132256Y109307D01*
X133781Y109010D01*
X134334Y109010D01*
X134334Y94191D01*
X133781Y94191D01*
X132196Y93869D01*
X130907Y93000D01*
X129681Y91774D01*
X128787Y90425D01*
X128491Y88835D01*
X128838Y87255D01*
X129681Y86026D01*
X130907Y84800D01*
X132256Y83907D01*
X133781Y83610D01*
X134334Y83610D01*
X134334Y68791D01*
X133781Y68791D01*
X132196Y68469D01*
X130907Y67600D01*
X129681Y66374D01*
X128787Y65025D01*
X128491Y63435D01*
X128838Y61855D01*
X129681Y60626D01*
X130907Y59400D01*
X132256Y58507D01*
X133781Y58210D01*
X134334Y58210D01*
X134334Y43391D01*
X133781Y43391D01*
X132196Y43069D01*
X130907Y42200D01*
X129470Y40763D01*
X127229Y39835D01*
X120023Y39835D01*
X118438Y39513D01*
X117104Y38598D01*
X116232Y37236D01*
X115961Y35641D01*
X116333Y34067D01*
X117149Y32897D01*
X117896Y32150D01*
X117896Y18650D01*
X112950Y13704D01*
X112057Y12356D01*
X111760Y10831D01*
X111760Y-14351D01*
X112082Y-15936D01*
X112997Y-17270D01*
X114359Y-18142D01*
X115824Y-18415D01*
X150876Y-18415D01*
X152461Y-18093D01*
X153795Y-17179D01*
X154667Y-15816D01*
X154940Y-14351D01*
X154940Y10831D01*
X154618Y12416D01*
X153750Y13704D01*
X148804Y18650D01*
X148804Y32150D01*
X151880Y35226D01*
X152774Y36575D01*
X153070Y38165D01*
X152723Y39745D01*
X151880Y40974D01*
X149292Y43562D01*
X147943Y44456D01*
X146353Y44752D01*
X144774Y44405D01*
X144008Y43880D01*
X142826Y43391D01*
X142321Y43391D01*
X142321Y58210D01*
X142826Y58210D01*
X144052Y57702D01*
X144893Y57144D01*
X146483Y56848D01*
X148063Y57195D01*
X149292Y58038D01*
X151880Y60626D01*
X152774Y61975D01*
X153070Y63565D01*
X152723Y65145D01*
X151880Y66374D01*
X149292Y68962D01*
X147943Y69856D01*
X146353Y70152D01*
X144774Y69805D01*
X144008Y69280D01*
X142826Y68791D01*
X142321Y68791D01*
X142321Y83610D01*
X142826Y83610D01*
X144052Y83102D01*
X144893Y82544D01*
X146483Y82248D01*
X148063Y82595D01*
X149292Y83438D01*
X151880Y86026D01*
X152774Y87375D01*
X153070Y88965D01*
X152723Y90545D01*
X151880Y91774D01*
X149292Y94362D01*
X147943Y95256D01*
X146353Y95552D01*
X144774Y95205D01*
X144008Y94680D01*
X142826Y94191D01*
X142321Y94191D01*
X142321Y109010D01*
X142826Y109010D01*
X144052Y108502D01*
X144893Y107944D01*
X146483Y107648D01*
X148063Y107995D01*
X149292Y108838D01*
X158350Y117896D01*
X171850Y117896D01*
X176179Y113567D01*
X177527Y112674D01*
X179117Y112377D01*
X180026Y112566D01*
X190729Y112566D01*
X192970Y111637D01*
X194407Y110200D01*
X195756Y109307D01*
X197281Y109010D01*
X197834Y109010D01*
X197834Y94191D01*
X197281Y94191D01*
X195696Y93869D01*
X194407Y93000D01*
X193181Y91774D01*
X192287Y90425D01*
X191991Y88835D01*
X192338Y87255D01*
X193181Y86026D01*
X194407Y84800D01*
X195756Y83907D01*
X197281Y83610D01*
X197834Y83610D01*
X197834Y68791D01*
X197281Y68791D01*
X195696Y68469D01*
X194407Y67600D01*
X193181Y66374D01*
X192287Y65025D01*
X191991Y63435D01*
X192338Y61855D01*
X193181Y60626D01*
X194407Y59400D01*
X195756Y58507D01*
X197281Y58210D01*
X197834Y58210D01*
X197834Y43391D01*
X197281Y43391D01*
X195696Y43069D01*
X194407Y42200D01*
X192970Y40763D01*
X190729Y39835D01*
X183523Y39835D01*
X181938Y39513D01*
X180604Y38598D01*
X179732Y37236D01*
X179461Y35641D01*
X179833Y34067D01*
X180649Y32897D01*
X181396Y32150D01*
X181396Y18650D01*
X176450Y13704D01*
X175557Y12356D01*
X175260Y10831D01*
X175260Y-14351D01*
X175582Y-15936D01*
X176497Y-17270D01*
X177859Y-18142D01*
X179324Y-18415D01*
X214376Y-18415D01*
X215961Y-18093D01*
X217295Y-17179D01*
X218167Y-15816D01*
X218440Y-14351D01*
X218440Y10831D01*
X218118Y12416D01*
X217250Y13704D01*
X212304Y18650D01*
X212304Y32150D01*
X215380Y35226D01*
X216274Y36575D01*
X216570Y38165D01*
X216223Y39745D01*
X215380Y40974D01*
X212792Y43562D01*
X211443Y44456D01*
X209853Y44752D01*
X208274Y44405D01*
X207508Y43880D01*
X206326Y43391D01*
X205821Y43391D01*
X205821Y58210D01*
X206326Y58210D01*
X207552Y57702D01*
X208393Y57144D01*
X209983Y56848D01*
X211563Y57195D01*
X212792Y58038D01*
X215380Y60626D01*
X216274Y61975D01*
X216570Y63565D01*
X216223Y65145D01*
X215380Y66374D01*
X212792Y68962D01*
X211443Y69856D01*
X209853Y70152D01*
X208274Y69805D01*
X207508Y69280D01*
X206326Y68791D01*
X205821Y68791D01*
X205821Y83610D01*
X206326Y83610D01*
X207552Y83102D01*
X208393Y82544D01*
X209983Y82248D01*
X211563Y82595D01*
X212792Y83438D01*
X215380Y86026D01*
X216274Y87375D01*
X216570Y88965D01*
X216223Y90545D01*
X215380Y91774D01*
X212792Y94362D01*
X211443Y95256D01*
X209853Y95552D01*
X208274Y95205D01*
X207508Y94680D01*
X206326Y94191D01*
X205821Y94191D01*
X205821Y109010D01*
X206326Y109010D01*
X207552Y108502D01*
X208393Y107944D01*
X209983Y107648D01*
X211563Y107995D01*
X212792Y108838D01*
X221850Y117896D01*
X235350Y117896D01*
X239679Y113567D01*
X241027Y112674D01*
X242617Y112377D01*
X243526Y112566D01*
X254229Y112566D01*
X256470Y111637D01*
X257907Y110200D01*
X259256Y109307D01*
X260781Y109010D01*
X261334Y109010D01*
X261334Y94191D01*
X260781Y94191D01*
X259196Y93869D01*
X257907Y93000D01*
X256681Y91774D01*
X255787Y90425D01*
X255491Y88835D01*
X255838Y87255D01*
X256681Y86026D01*
X257907Y84800D01*
X259256Y83907D01*
X260781Y83610D01*
X261334Y83610D01*
X261334Y68791D01*
X260781Y68791D01*
X259196Y68469D01*
X257907Y67600D01*
X256681Y66374D01*
X255787Y65025D01*
X255491Y63435D01*
X255838Y61855D01*
X256681Y60626D01*
X257907Y59400D01*
X259256Y58507D01*
X260781Y58210D01*
X261334Y58210D01*
X261334Y43391D01*
X260781Y43391D01*
X259196Y43069D01*
X257907Y42200D01*
X256470Y40763D01*
X254229Y39835D01*
X247023Y39835D01*
X245438Y39513D01*
X244104Y38598D01*
X243232Y37236D01*
X242961Y35641D01*
X243333Y34067D01*
X244149Y32897D01*
X244896Y32150D01*
X244896Y18650D01*
X239950Y13704D01*
X239057Y12356D01*
X238760Y10831D01*
X238760Y-14351D01*
X239082Y-15936D01*
X239997Y-17270D01*
X241359Y-18142D01*
X242824Y-18415D01*
X366776Y-18415D01*
X368361Y-18093D01*
X369695Y-17179D01*
X370567Y-15816D01*
X370840Y-14351D01*
X370840Y7011D01*
X370518Y8596D01*
X369604Y9930D01*
X368241Y10802D01*
X366646Y11073D01*
X365397Y10804D01*
X345887Y10804D01*
X344455Y11397D01*
X342868Y11706D01*
X341345Y11397D01*
X339913Y10804D01*
X320487Y10804D01*
X319055Y11397D01*
X317468Y11706D01*
X315945Y11397D01*
X314513Y10804D01*
X295087Y10804D01*
X293655Y11397D01*
X292068Y11706D01*
X290545Y11397D01*
X289113Y10804D01*
X269687Y10804D01*
X267447Y11732D01*
X265732Y13447D01*
X264804Y15687D01*
X264804Y35113D01*
X265905Y37771D01*
X266215Y39359D01*
X265880Y40941D01*
X265565Y41394D01*
X269321Y41394D01*
X269321Y46807D01*
X271861Y46807D01*
X271861Y45211D01*
X271630Y44028D01*
X271965Y42445D01*
X272890Y41118D01*
X274259Y40258D01*
X275694Y39996D01*
X289113Y39996D01*
X290545Y39403D01*
X292132Y39094D01*
X293655Y39403D01*
X295087Y39996D01*
X314513Y39996D01*
X315945Y39403D01*
X317532Y39094D01*
X319055Y39403D01*
X320487Y39996D01*
X321587Y39996D01*
X323172Y40318D01*
X324506Y41233D01*
X325377Y42595D01*
X325649Y44190D01*
X325276Y45764D01*
X324460Y46934D01*
X308887Y62507D01*
X307340Y66242D01*
X307340Y99731D01*
X307018Y101316D01*
X306150Y102604D01*
X301204Y107550D01*
X301204Y121050D01*
X306150Y125996D01*
X307043Y127344D01*
X307340Y128869D01*
X307340Y135371D01*
X308887Y139105D01*
X318095Y148313D01*
X321829Y149860D01*
X544576Y149860D01*
X546161Y150182D01*
X547495Y151097D01*
X548367Y152459D01*
X548640Y153924D01*
X548640Y187758D01*
X550187Y191493D01*
X557807Y199113D01*
X561542Y200660D01*
X575642Y200660D01*
X577227Y200982D01*
X578561Y201897D01*
X579433Y203259D01*
X579704Y204854D01*
X579396Y206279D01*
X576754Y212659D01*
X576754Y219141D01*
X579235Y225131D01*
X579830Y225726D01*
X580724Y227075D01*
X581020Y228665D01*
X580673Y230245D01*
X579830Y231474D01*
X579235Y232069D01*
X576754Y238059D01*
X576754Y244541D01*
X579235Y250531D01*
X579830Y251126D01*
X580724Y252475D01*
X581020Y254065D01*
X580673Y255645D01*
X579830Y256874D01*
X579235Y257469D01*
X576754Y263459D01*
X576754Y269941D01*
X579235Y275931D01*
X579830Y276526D01*
X580724Y277875D01*
X581020Y279465D01*
X580673Y281045D01*
X579830Y282274D01*
X579235Y282869D01*
X576754Y288859D01*
X576754Y295341D01*
X579235Y301331D01*
X583819Y305915D01*
X589809Y308396D01*
X616691Y308396D01*
X622681Y305915D01*
X627265Y301331D01*
X629746Y295341D01*
X629746Y288859D01*
X627265Y282869D01*
X626670Y282274D01*
X625776Y280925D01*
X625480Y279335D01*
X625827Y277755D01*
X626670Y276526D01*
X627265Y275931D01*
X629746Y269941D01*
X629746Y263459D01*
X627265Y257469D01*
X626670Y256874D01*
X625776Y255525D01*
X625480Y253935D01*
X625827Y252355D01*
X626670Y251126D01*
X627265Y250531D01*
X629746Y244541D01*
X629746Y238059D01*
X627265Y232069D01*
X626670Y231474D01*
X625776Y230125D01*
X625480Y228535D01*
X625827Y226955D01*
X626670Y225726D01*
X627265Y225131D01*
X629746Y219141D01*
X629746Y212659D01*
X627265Y206669D01*
X626670Y206074D01*
X625776Y204725D01*
X625480Y203135D01*
X625827Y201555D01*
X626670Y200326D01*
X627265Y199731D01*
X629746Y193741D01*
X629746Y187259D01*
X627265Y181269D01*
X624155Y178159D01*
X623262Y176811D01*
X622965Y175221D01*
X623313Y173641D01*
X624155Y172412D01*
X624250Y172317D01*
X625556Y169164D01*
X580944Y169164D01*
X582250Y172317D01*
X582345Y172412D01*
X583238Y173760D01*
X583535Y175350D01*
X583187Y176930D01*
X582345Y178159D01*
X581354Y179150D01*
X580006Y180043D01*
X578481Y180340D01*
X573024Y180340D01*
X571439Y180018D01*
X570105Y179104D01*
X569233Y177741D01*
X568960Y176276D01*
X568960Y153924D01*
X569282Y152339D01*
X570197Y151005D01*
X571559Y150133D01*
X573024Y149860D01*
X580462Y149860D01*
X582047Y150182D01*
X583381Y151097D01*
X584252Y152459D01*
X584524Y154054D01*
X584151Y155628D01*
X583335Y156798D01*
X582250Y157883D01*
X580944Y161036D01*
X599186Y161036D01*
X599186Y152360D01*
X592545Y152360D01*
X590960Y152038D01*
X589626Y151124D01*
X588754Y149761D01*
X588483Y148166D01*
X588855Y146592D01*
X589671Y145422D01*
X623731Y111363D01*
X625079Y110470D01*
X626604Y110173D01*
X644595Y110173D01*
X646180Y110494D01*
X647514Y111409D01*
X648386Y112772D01*
X648657Y114366D01*
X648350Y115792D01*
X645868Y121784D01*
X645868Y144916D01*
X648111Y150331D01*
X652255Y154475D01*
X657670Y156718D01*
X663530Y156718D01*
X668945Y154475D01*
X670226Y153194D01*
X671575Y152301D01*
X673165Y152004D01*
X674745Y152351D01*
X675974Y153194D01*
X677255Y154475D01*
X682670Y156718D01*
X688530Y156718D01*
X693945Y154475D01*
X698089Y150331D01*
X700332Y144916D01*
X700332Y121784D01*
X697850Y115792D01*
X697541Y114204D01*
X697875Y112622D01*
X698801Y111295D01*
X700170Y110434D01*
X701605Y110173D01*
X736364Y110173D01*
X737919Y110482D01*
X739117Y110978D01*
X747101Y110978D01*
X748686Y111300D01*
X750020Y112215D01*
X750892Y113577D01*
X751165Y115042D01*
X751165Y132646D01*
X750843Y134231D01*
X749975Y135519D01*
X749374Y136120D01*
X747228Y141301D01*
X747228Y146909D01*
X749374Y152091D01*
X753340Y156056D01*
X758521Y158202D01*
X764129Y158202D01*
X769311Y156056D01*
X773276Y152091D01*
X775422Y146909D01*
X775422Y141301D01*
X773276Y136120D01*
X772676Y135519D01*
X771782Y134171D01*
X771485Y132646D01*
X771485Y98690D01*
X771026Y97581D01*
X770717Y96025D01*
X770717Y93930D01*
X769788Y91690D01*
X768074Y89975D01*
X765833Y89047D01*
X755421Y89047D01*
X754030Y89623D01*
X752443Y89932D01*
X750920Y89623D01*
X749529Y89047D01*
X739117Y89047D01*
X737919Y89543D01*
X736364Y89853D01*
X618692Y89853D01*
X614957Y91399D01*
X578007Y128350D01*
X576658Y129243D01*
X575133Y129540D01*
X551017Y129540D01*
X549432Y129218D01*
X548098Y128304D01*
X547227Y126941D01*
X546955Y125346D01*
X547328Y123772D01*
X548144Y122602D01*
X549696Y121050D01*
X549696Y107550D01*
X545367Y103221D01*
X544474Y101873D01*
X544177Y100283D01*
X544366Y99374D01*
X544366Y88671D01*
X543437Y86430D01*
X542000Y84993D01*
X541107Y83644D01*
X540810Y82119D01*
X540810Y81567D01*
X525991Y81567D01*
X525991Y82119D01*
X525669Y83704D01*
X524800Y84993D01*
X523574Y86219D01*
X522225Y87113D01*
X520635Y87409D01*
X519055Y87062D01*
X517826Y86219D01*
X516600Y84993D01*
X515707Y83644D01*
X515410Y82119D01*
X515410Y81567D01*
X500591Y81567D01*
X500591Y82119D01*
X500269Y83704D01*
X499400Y84993D01*
X498174Y86219D01*
X496825Y87113D01*
X495235Y87409D01*
X493655Y87062D01*
X492426Y86219D01*
X491200Y84993D01*
X490307Y83644D01*
X490010Y82119D01*
X490010Y81567D01*
X475191Y81567D01*
X475191Y82119D01*
X474869Y83704D01*
X474000Y84993D01*
X472563Y86430D01*
X471635Y88671D01*
X471635Y95877D01*
X471313Y97462D01*
X470398Y98796D01*
X469036Y99668D01*
X467441Y99939D01*
X465867Y99567D01*
X464697Y98751D01*
X463950Y98004D01*
X450450Y98004D01*
X440904Y107550D01*
X440904Y121050D01*
X442456Y122602D01*
X443350Y123951D01*
X443646Y125541D01*
X443299Y127121D01*
X442363Y128440D01*
X440987Y129290D01*
X439583Y129540D01*
X411317Y129540D01*
X409732Y129218D01*
X408398Y128304D01*
X407527Y126941D01*
X407255Y125346D01*
X407628Y123772D01*
X408444Y122602D01*
X409996Y121050D01*
X409996Y107550D01*
X405667Y103221D01*
X404774Y101873D01*
X404477Y100283D01*
X404666Y99374D01*
X404666Y88671D01*
X403737Y86430D01*
X402300Y84993D01*
X401407Y83644D01*
X401110Y82119D01*
X401110Y81567D01*
X386291Y81567D01*
X386291Y82119D01*
X385969Y83704D01*
X385100Y84993D01*
X383874Y86219D01*
X382525Y87113D01*
X380935Y87409D01*
X379355Y87062D01*
X378126Y86219D01*
X376900Y84993D01*
X376007Y83644D01*
X375710Y82119D01*
X375710Y81567D01*
X360891Y81567D01*
X360891Y82119D01*
X360569Y83704D01*
X359700Y84993D01*
X358474Y86219D01*
X357125Y87113D01*
X355535Y87409D01*
X353955Y87062D01*
X352726Y86219D01*
X351500Y84993D01*
X350607Y83644D01*
X350310Y82119D01*
X350310Y81567D01*
X338907Y81567D01*
X338907Y71040D01*
X338903Y71040D01*
X337318Y70718D01*
X335984Y69803D01*
X335112Y68441D01*
X334841Y66846D01*
X335213Y65272D01*
X336029Y64102D01*
X336393Y63738D01*
X337742Y62845D01*
X339267Y62548D01*
X371908Y62548D01*
X375643Y61001D01*
X389613Y47030D01*
X391160Y43296D01*
X391160Y42526D01*
X391482Y40941D01*
X392397Y39607D01*
X392448Y39574D01*
X394391Y37630D01*
X395739Y36737D01*
X397264Y36440D01*
X402336Y36440D01*
X402336Y14360D01*
X397264Y14360D01*
X395679Y14038D01*
X394391Y13170D01*
X392384Y11163D01*
X392328Y11126D01*
X391446Y9770D01*
X391160Y8274D01*
X391160Y-14351D01*
X391482Y-15936D01*
X392397Y-17270D01*
X393759Y-18142D01*
X395224Y-18415D01*
X1026958Y-18415D01*
X1028543Y-18093D01*
X1029877Y-17179D01*
X1030748Y-15816D01*
X1031020Y-14221D01*
X1030647Y-12647D01*
X1029831Y-11477D01*
X1025104Y-6750D01*
X1025104Y6750D01*
X1028180Y9826D01*
X1029074Y11175D01*
X1029370Y12765D01*
X1029023Y14345D01*
X1028180Y15574D01*
X1027164Y16590D01*
X1025816Y17483D01*
X1024291Y17780D01*
X962102Y17780D01*
X960517Y17458D01*
X959229Y16590D01*
X939354Y-3285D01*
X936553Y-4445D01*
X843034Y-4445D01*
X840234Y-3285D01*
X831740Y5209D01*
X830271Y8756D01*
X830269Y8755D01*
X830258Y8807D01*
X829344Y10141D01*
X828071Y10976D01*
X827055Y11397D01*
X825468Y11706D01*
X823945Y11397D01*
X822513Y10804D01*
X803087Y10804D01*
X801655Y11397D01*
X800068Y11706D01*
X798545Y11397D01*
X797113Y10804D01*
X777687Y10804D01*
X776255Y11397D01*
X774668Y11706D01*
X773145Y11397D01*
X771713Y10804D01*
X752287Y10804D01*
X750855Y11397D01*
X749268Y11706D01*
X747745Y11397D01*
X746313Y10804D01*
X726887Y10804D01*
X724647Y11732D01*
X722932Y13447D01*
X722004Y15687D01*
X722004Y35113D01*
X722932Y37353D01*
X724647Y39068D01*
X726887Y39996D01*
X746313Y39996D01*
X747745Y39403D01*
X749332Y39094D01*
X750855Y39403D01*
X752287Y39996D01*
X771713Y39996D01*
X773145Y39403D01*
X774732Y39094D01*
X776255Y39403D01*
X777687Y39996D01*
X797113Y39996D01*
X798545Y39403D01*
X800132Y39094D01*
X801655Y39403D01*
X803087Y39996D01*
X822513Y39996D01*
X823945Y39403D01*
X825532Y39094D01*
X827055Y39403D01*
X828487Y39996D01*
X847913Y39996D01*
X849345Y39403D01*
X850932Y39094D01*
X852455Y39403D01*
X853887Y39996D01*
X873313Y39996D01*
X874745Y39403D01*
X876332Y39094D01*
X877855Y39403D01*
X879287Y39996D01*
X898713Y39996D01*
X900145Y39403D01*
X901732Y39094D01*
X903255Y39403D01*
X904687Y39996D01*
X924113Y39996D01*
X926353Y39068D01*
X928068Y37353D01*
X928996Y35113D01*
X928996Y17721D01*
X929318Y16136D01*
X930233Y14802D01*
X931595Y13930D01*
X933190Y13659D01*
X934764Y14032D01*
X935934Y14848D01*
X952946Y31860D01*
X955747Y33020D01*
X1024291Y33020D01*
X1025876Y33342D01*
X1027164Y34210D01*
X1028180Y35226D01*
X1029074Y36575D01*
X1029370Y38165D01*
X1029023Y39745D01*
X1028180Y40974D01*
X1025104Y44050D01*
X1025104Y57550D01*
X1028180Y60626D01*
X1029074Y61975D01*
X1029370Y63565D01*
X1029023Y65145D01*
X1028180Y66374D01*
X1025104Y69450D01*
X1025104Y82950D01*
X1034650Y92496D01*
X1048150Y92496D01*
X1052479Y88167D01*
X1053827Y87274D01*
X1055417Y86977D01*
X1056326Y87166D01*
X1067029Y87166D01*
X1069270Y86237D01*
X1070707Y84800D01*
X1072056Y83907D01*
X1073581Y83610D01*
X1074134Y83610D01*
X1074134Y68791D01*
X1073581Y68791D01*
X1071996Y68469D01*
X1070707Y67600D01*
X1069481Y66374D01*
X1068587Y65025D01*
X1068291Y63435D01*
X1068638Y61855D01*
X1069481Y60626D01*
X1070707Y59400D01*
X1072056Y58507D01*
X1073581Y58210D01*
X1074134Y58210D01*
X1074134Y43391D01*
X1073581Y43391D01*
X1071996Y43069D01*
X1070707Y42200D01*
X1069481Y40974D01*
X1068587Y39625D01*
X1068291Y38035D01*
X1068638Y36455D01*
X1069481Y35226D01*
X1070707Y34000D01*
X1072056Y33107D01*
X1073581Y32810D01*
X1074134Y32810D01*
X1074134Y17991D01*
X1073581Y17991D01*
X1071996Y17669D01*
X1070707Y16800D01*
X1069270Y15363D01*
X1067029Y14435D01*
X1059823Y14435D01*
X1058238Y14113D01*
X1056904Y13198D01*
X1056032Y11836D01*
X1055761Y10241D01*
X1056133Y8667D01*
X1056949Y7497D01*
X1057696Y6750D01*
X1057696Y-6750D01*
X1052969Y-11477D01*
X1052075Y-12826D01*
X1051779Y-14416D01*
X1052126Y-15996D01*
X1053062Y-17315D01*
X1054438Y-18165D01*
X1055842Y-18415D01*
X1090458Y-18415D01*
X1092043Y-18093D01*
X1093377Y-17179D01*
X1094248Y-15816D01*
X1094520Y-14221D01*
X1094147Y-12647D01*
X1093331Y-11477D01*
X1088604Y-6750D01*
X1088604Y6750D01*
X1091680Y9826D01*
X1092574Y11175D01*
X1092870Y12765D01*
X1092523Y14345D01*
X1091680Y15574D01*
X1089092Y18162D01*
X1087743Y19056D01*
X1086153Y19352D01*
X1084574Y19005D01*
X1083808Y18480D01*
X1082626Y17991D01*
X1082121Y17991D01*
X1082121Y32810D01*
X1082626Y32810D01*
X1083852Y32302D01*
X1084693Y31744D01*
X1086283Y31448D01*
X1087863Y31795D01*
X1089092Y32638D01*
X1091680Y35226D01*
X1092574Y36575D01*
X1092870Y38165D01*
X1092523Y39745D01*
X1091680Y40974D01*
X1089092Y43562D01*
X1087743Y44456D01*
X1086153Y44752D01*
X1084574Y44405D01*
X1083808Y43880D01*
X1082626Y43391D01*
X1082121Y43391D01*
X1082121Y58210D01*
X1082626Y58210D01*
X1083852Y57702D01*
X1084693Y57144D01*
X1086283Y56848D01*
X1087863Y57195D01*
X1089092Y58038D01*
X1091680Y60626D01*
X1092574Y61975D01*
X1092870Y63565D01*
X1092523Y65145D01*
X1091680Y66374D01*
X1089092Y68962D01*
X1087743Y69856D01*
X1086153Y70152D01*
X1084574Y69805D01*
X1083808Y69280D01*
X1082626Y68791D01*
X1082121Y68791D01*
X1082121Y83610D01*
X1082626Y83610D01*
X1083852Y83102D01*
X1084693Y82544D01*
X1086283Y82248D01*
X1087863Y82595D01*
X1089092Y83438D01*
X1098150Y92496D01*
X1111650Y92496D01*
X1115979Y88167D01*
X1117327Y87274D01*
X1118917Y86977D01*
X1119826Y87166D01*
X1130529Y87166D01*
X1132770Y86237D01*
X1134207Y84800D01*
X1135556Y83907D01*
X1137081Y83610D01*
X1137634Y83610D01*
X1137634Y68791D01*
X1137081Y68791D01*
X1135496Y68469D01*
X1134207Y67600D01*
X1132981Y66374D01*
X1132087Y65025D01*
X1131791Y63435D01*
X1132138Y61855D01*
X1132981Y60626D01*
X1134207Y59400D01*
X1135556Y58507D01*
X1137081Y58210D01*
X1137634Y58210D01*
X1137634Y43391D01*
X1137081Y43391D01*
X1135496Y43069D01*
X1134207Y42200D01*
X1132981Y40974D01*
X1132087Y39625D01*
X1131791Y38035D01*
X1132138Y36455D01*
X1132981Y35226D01*
X1134207Y34000D01*
X1135556Y33107D01*
X1137081Y32810D01*
X1137634Y32810D01*
X1137634Y17991D01*
X1137081Y17991D01*
X1135496Y17669D01*
X1134207Y16800D01*
X1132770Y15363D01*
X1130529Y14435D01*
X1123323Y14435D01*
X1121738Y14113D01*
X1120404Y13198D01*
X1119532Y11836D01*
X1119261Y10241D01*
X1119633Y8667D01*
X1120449Y7497D01*
X1121196Y6750D01*
X1121196Y-6750D01*
X1116250Y-11696D01*
X1115357Y-13044D01*
X1115060Y-14569D01*
X1115060Y-24246D01*
X1113513Y-27980D01*
X1107791Y-33702D01*
X1106898Y-35051D01*
X1106601Y-36641D01*
X1106948Y-38221D01*
X1107884Y-39540D01*
X1109260Y-40390D01*
X1110665Y-40640D01*
X1404876Y-40640D01*
X1406461Y-40318D01*
X1407795Y-39404D01*
X1408667Y-38041D01*
X1408940Y-36576D01*
X1408940Y569876D01*
X1408618Y571461D01*
X1407704Y572795D01*
X1406341Y573667D01*
X1404876Y573940D01*
X1393248Y573940D01*
X1391663Y573618D01*
X1390329Y572704D01*
X1389458Y571341D01*
X1389186Y569746D01*
X1389494Y568321D01*
X1391285Y563996D01*
X1391285Y467879D01*
X1389738Y464145D01*
X1382118Y456524D01*
X1378383Y454978D01*
X1321410Y454978D01*
X1319825Y454656D01*
X1318536Y453787D01*
X1314837Y450088D01*
X1302633Y450088D01*
X1298909Y453812D01*
X1297560Y454705D01*
X1295970Y455002D01*
X1294390Y454655D01*
X1293161Y453812D01*
X1289437Y450088D01*
X1277233Y450088D01*
X1268603Y458718D01*
X1268603Y470922D01*
X1272327Y474646D01*
X1273220Y475995D01*
X1273517Y477585D01*
X1273170Y479165D01*
X1272327Y480394D01*
X1268603Y484118D01*
X1268603Y491554D01*
X1268281Y493139D01*
X1267367Y494473D01*
X1266004Y495344D01*
X1264539Y495618D01*
X1257372Y495618D01*
X1254286Y496896D01*
X1252731Y497205D01*
X1048227Y497205D01*
X1046671Y496896D01*
X1046192Y496697D01*
X1042958Y496697D01*
X1039971Y497934D01*
X1020174Y517732D01*
X1018825Y518625D01*
X1017300Y518922D01*
X983860Y518922D01*
X982275Y518600D01*
X980941Y517686D01*
X980069Y516323D01*
X979796Y514858D01*
X979796Y498287D01*
X979203Y496855D01*
X978894Y495268D01*
X979203Y493745D01*
X979796Y492313D01*
X979796Y472887D01*
X979203Y471455D01*
X978894Y469868D01*
X979203Y468345D01*
X979796Y466913D01*
X979796Y447487D01*
X979203Y446055D01*
X978894Y444468D01*
X979203Y442945D01*
X979796Y441513D01*
X979796Y422087D01*
X979203Y420655D01*
X978894Y419068D01*
X979203Y417545D01*
X979796Y416113D01*
X979796Y396687D01*
X979203Y395255D01*
X978894Y393668D01*
X979203Y392145D01*
X979796Y390713D01*
X979796Y371287D01*
X979203Y369855D01*
X978894Y368268D01*
X979203Y366745D01*
X979796Y365313D01*
X979796Y345887D01*
X979203Y344455D01*
X978894Y342868D01*
X979203Y341345D01*
X979796Y339913D01*
X979796Y320487D01*
X979203Y319055D01*
X978894Y317468D01*
X979203Y315945D01*
X979796Y314513D01*
X979796Y295087D01*
X979203Y293655D01*
X978894Y292068D01*
X979203Y290545D01*
X979796Y289113D01*
X979796Y269687D01*
X979203Y268255D01*
X978894Y266668D01*
X979203Y265145D01*
X979796Y263713D01*
X979796Y244287D01*
X979203Y242855D01*
X978894Y241268D01*
X979203Y239745D01*
X979796Y238313D01*
X979796Y218887D01*
X979203Y217455D01*
X978894Y215868D01*
X979203Y214345D01*
X979796Y212913D01*
X979796Y193487D01*
X979203Y192055D01*
X978894Y190468D01*
X979203Y188945D01*
X979796Y187513D01*
X979796Y168087D01*
X979203Y166655D01*
X978894Y165068D01*
X979203Y163545D01*
X979796Y162113D01*
X979796Y142687D01*
X979203Y141255D01*
X978894Y139668D01*
X979203Y138145D01*
X979796Y136713D01*
X979796Y117287D01*
X979203Y115855D01*
X978894Y114268D01*
X979203Y112745D01*
X979796Y111313D01*
X979796Y91887D01*
X978868Y89647D01*
X977430Y88209D01*
X976537Y86861D01*
X976240Y85336D01*
X976240Y80264D01*
X961136Y80264D01*
X961136Y65160D01*
X956195Y65160D01*
X955108Y65610D01*
X954025Y66327D01*
X952435Y66624D01*
X950855Y66277D01*
X949869Y65601D01*
X948805Y65160D01*
X943864Y65160D01*
X943864Y80264D01*
X928760Y80264D01*
X928760Y85336D01*
X928438Y86921D01*
X927570Y88209D01*
X926132Y89647D01*
X925204Y91887D01*
X925204Y111313D01*
X925797Y112745D01*
X926106Y114332D01*
X925797Y115855D01*
X925204Y117287D01*
X925204Y136713D01*
X925797Y138145D01*
X926106Y139732D01*
X925797Y141255D01*
X925204Y142687D01*
X925204Y162113D01*
X925797Y163545D01*
X926106Y165132D01*
X925797Y166655D01*
X925204Y168087D01*
X925204Y187513D01*
X925797Y188945D01*
X926106Y190532D01*
X925797Y192055D01*
X925204Y193487D01*
X925204Y212913D01*
X925797Y214345D01*
X926106Y215932D01*
X925797Y217455D01*
X925204Y218887D01*
X925204Y238313D01*
X925797Y239745D01*
X926106Y241332D01*
X925797Y242855D01*
X925587Y243363D01*
X924683Y244704D01*
X923327Y245587D01*
X921832Y245872D01*
X813308Y245872D01*
X811723Y245550D01*
X810389Y244636D01*
X809517Y243273D01*
X809244Y241808D01*
X809244Y199794D01*
X807852Y196433D01*
X798250Y186831D01*
X797369Y185512D01*
X797170Y185033D01*
X794455Y182317D01*
X790907Y180848D01*
X787068Y180848D01*
X783520Y182317D01*
X780805Y185033D01*
X779336Y188580D01*
X779336Y192420D01*
X780805Y195967D01*
X783520Y198683D01*
X784000Y198881D01*
X785318Y199762D01*
X789766Y204210D01*
X790659Y205558D01*
X790956Y207083D01*
X790956Y244489D01*
X790634Y246074D01*
X789720Y247408D01*
X788357Y248279D01*
X786762Y248551D01*
X785188Y248178D01*
X784018Y247362D01*
X762993Y226337D01*
X759258Y224790D01*
X752819Y224790D01*
X751234Y224468D01*
X749900Y223554D01*
X749028Y222191D01*
X748757Y220596D01*
X749064Y219171D01*
X750584Y215503D01*
X750584Y210572D01*
X748696Y206016D01*
X745209Y202529D01*
X740653Y200642D01*
X735722Y200642D01*
X731166Y202529D01*
X727679Y206016D01*
X725792Y210572D01*
X725792Y215503D01*
X727311Y219171D01*
X727620Y220758D01*
X727285Y222341D01*
X726360Y223668D01*
X724991Y224528D01*
X723556Y224790D01*
X704396Y224790D01*
X702811Y224468D01*
X701477Y223554D01*
X700605Y222191D01*
X700332Y220726D01*
X700332Y204334D01*
X698089Y198919D01*
X693945Y194775D01*
X688530Y192532D01*
X682670Y192532D01*
X677255Y194775D01*
X675974Y196056D01*
X674625Y196949D01*
X673035Y197246D01*
X671455Y196899D01*
X670226Y196056D01*
X668945Y194775D01*
X663530Y192532D01*
X657670Y192532D01*
X652255Y194775D01*
X648111Y198919D01*
X645868Y204334D01*
X645868Y227466D01*
X648111Y232881D01*
X649250Y234020D01*
X650143Y235368D01*
X650440Y236894D01*
X650440Y243521D01*
X651987Y247255D01*
X660995Y256263D01*
X664729Y257810D01*
X740233Y257810D01*
X741818Y258132D01*
X743107Y259000D01*
X770221Y286115D01*
X771115Y287463D01*
X771411Y289053D01*
X771064Y290633D01*
X770128Y291952D01*
X768752Y292802D01*
X767348Y293053D01*
X754533Y293053D01*
X752948Y292731D01*
X751614Y291816D01*
X750742Y290454D01*
X750471Y288859D01*
X750584Y288336D01*
X750584Y282972D01*
X748696Y278416D01*
X745209Y274929D01*
X740653Y273042D01*
X735722Y273042D01*
X731166Y274929D01*
X727679Y278416D01*
X725792Y282972D01*
X725792Y288433D01*
X725906Y289021D01*
X725572Y290604D01*
X724646Y291930D01*
X723277Y292791D01*
X721842Y293053D01*
X704396Y293053D01*
X702811Y292731D01*
X701477Y291816D01*
X700605Y290454D01*
X700332Y288989D01*
X700332Y286884D01*
X698089Y281469D01*
X693945Y277325D01*
X688530Y275082D01*
X682670Y275082D01*
X677255Y277325D01*
X675974Y278606D01*
X674625Y279499D01*
X673035Y279796D01*
X671455Y279449D01*
X670226Y278606D01*
X668945Y277325D01*
X663530Y275082D01*
X657670Y275082D01*
X652255Y277325D01*
X648111Y281469D01*
X645868Y286884D01*
X645868Y310016D01*
X648111Y315431D01*
X652255Y319575D01*
X652557Y319700D01*
X653875Y320581D01*
X666157Y332863D01*
X669892Y334410D01*
X750993Y334410D01*
X752578Y334732D01*
X753912Y335647D01*
X754783Y337009D01*
X755055Y338604D01*
X754747Y340029D01*
X752254Y346048D01*
X752254Y352452D01*
X754704Y358368D01*
X755213Y358876D01*
X756106Y360225D01*
X756403Y361815D01*
X756056Y363395D01*
X755213Y364624D01*
X754704Y365132D01*
X752254Y371048D01*
X752254Y377452D01*
X754704Y383368D01*
X759232Y387896D01*
X765148Y390346D01*
X771552Y390346D01*
X777468Y387896D01*
X781996Y383368D01*
X783645Y379385D01*
X784549Y378043D01*
X785905Y377161D01*
X787497Y376877D01*
X789074Y377237D01*
X790386Y378183D01*
X791155Y379385D01*
X792804Y383368D01*
X797332Y387896D01*
X803248Y390346D01*
X809652Y390346D01*
X815568Y387896D01*
X820096Y383368D01*
X821745Y379385D01*
X822649Y378043D01*
X824005Y377161D01*
X825597Y376877D01*
X827174Y377237D01*
X828486Y378183D01*
X829255Y379385D01*
X830904Y383368D01*
X835432Y387896D01*
X841348Y390346D01*
X847752Y390346D01*
X853668Y387896D01*
X858196Y383368D01*
X859845Y379385D01*
X860749Y378043D01*
X862105Y377161D01*
X863697Y376877D01*
X865274Y377237D01*
X866586Y378183D01*
X867355Y379385D01*
X869004Y383368D01*
X873532Y387896D01*
X879448Y390346D01*
X885852Y390346D01*
X891768Y387896D01*
X896296Y383368D01*
X898746Y377452D01*
X898746Y371048D01*
X896296Y365132D01*
X895787Y364624D01*
X894894Y363275D01*
X894597Y361685D01*
X894944Y360105D01*
X895787Y358876D01*
X896296Y358368D01*
X898746Y352452D01*
X898746Y346048D01*
X896296Y340132D01*
X895787Y339624D01*
X894894Y338275D01*
X894597Y336685D01*
X894944Y335105D01*
X895787Y333876D01*
X896296Y333368D01*
X898746Y327452D01*
X898746Y321048D01*
X896296Y315132D01*
X894000Y312837D01*
X893107Y311489D01*
X892810Y309963D01*
X892810Y301192D01*
X891263Y297457D01*
X862872Y269066D01*
X861978Y267717D01*
X861682Y266127D01*
X862029Y264547D01*
X862965Y263228D01*
X864341Y262378D01*
X865745Y262128D01*
X921832Y262128D01*
X923417Y262450D01*
X924751Y263365D01*
X925587Y264637D01*
X925797Y265145D01*
X926106Y266733D01*
X925797Y268255D01*
X925204Y269687D01*
X925204Y289113D01*
X925797Y290545D01*
X926106Y292132D01*
X925797Y293655D01*
X925204Y295087D01*
X925204Y314513D01*
X925797Y315945D01*
X926106Y317532D01*
X925797Y319055D01*
X925204Y320487D01*
X925204Y339913D01*
X925797Y341345D01*
X926106Y342932D01*
X925797Y344455D01*
X925204Y345887D01*
X925204Y365313D01*
X925797Y366745D01*
X926106Y368332D01*
X925797Y369855D01*
X925204Y371287D01*
X925204Y390713D01*
X925797Y392145D01*
X926106Y393732D01*
X925797Y395255D01*
X925204Y396687D01*
X925204Y410210D01*
X924882Y411795D01*
X923968Y413129D01*
X922605Y414001D01*
X921140Y414274D01*
X918527Y414274D01*
X918507Y414282D01*
X916952Y414592D01*
X916687Y414592D01*
X912112Y416486D01*
X908611Y419987D01*
X906717Y424562D01*
X906717Y444011D01*
X906395Y445596D01*
X905526Y446885D01*
X902498Y449914D01*
X901149Y450807D01*
X899624Y451104D01*
X772541Y451104D01*
X770956Y450782D01*
X769622Y449868D01*
X768750Y448505D01*
X768477Y447040D01*
X768477Y441696D01*
X766331Y436515D01*
X762365Y432549D01*
X757184Y430403D01*
X751576Y430403D01*
X746395Y432549D01*
X742429Y436515D01*
X740283Y441696D01*
X740283Y447040D01*
X739961Y448625D01*
X739047Y449959D01*
X737684Y450831D01*
X736219Y451104D01*
X733425Y451104D01*
X731840Y450782D01*
X730506Y449868D01*
X729672Y448564D01*
X707970Y448564D01*
X707957Y448625D01*
X707043Y449959D01*
X705680Y450831D01*
X704215Y451104D01*
X608501Y451104D01*
X606916Y450782D01*
X605627Y449914D01*
X569025Y413311D01*
X564451Y411417D01*
X495999Y411417D01*
X491425Y413311D01*
X487924Y416812D01*
X486595Y420020D01*
X485691Y421362D01*
X484336Y422244D01*
X482840Y422529D01*
X440436Y422529D01*
X438851Y422207D01*
X437517Y421293D01*
X436645Y419930D01*
X436372Y418465D01*
X436372Y415026D01*
X434226Y409845D01*
X430260Y405879D01*
X425079Y403733D01*
X419471Y403733D01*
X414290Y405879D01*
X410324Y409845D01*
X408178Y415026D01*
X408178Y415925D01*
X407856Y417510D01*
X406942Y418844D01*
X405579Y419716D01*
X404114Y419989D01*
X162560Y419989D01*
X160975Y419667D01*
X159641Y418753D01*
X158769Y417390D01*
X158496Y415925D01*
X158496Y330263D01*
X158483Y329849D01*
X158423Y329284D01*
X158318Y328754D01*
X158166Y328235D01*
X157970Y327732D01*
X157729Y327248D01*
X157352Y326634D01*
X157381Y326616D01*
X156801Y325378D01*
X156739Y323762D01*
X157313Y322250D01*
X158432Y321081D01*
X159917Y320441D01*
X161090Y320551D01*
X161090Y320496D01*
X168302Y320496D01*
X174218Y318046D01*
X178746Y313518D01*
X180395Y309535D01*
X181299Y308193D01*
X182655Y307311D01*
X184247Y307027D01*
X185824Y307387D01*
X187136Y308333D01*
X187905Y309535D01*
X189554Y313518D01*
X194082Y318046D01*
X199998Y320496D01*
X206402Y320496D01*
X212318Y318046D01*
X216846Y313518D01*
X218495Y309535D01*
X219399Y308193D01*
X220755Y307311D01*
X222347Y307027D01*
X223924Y307387D01*
X225236Y308333D01*
X226005Y309535D01*
X227654Y313518D01*
X232182Y318046D01*
X238098Y320496D01*
X244502Y320496D01*
X250418Y318046D01*
X254946Y313518D01*
X257396Y307602D01*
X257396Y301198D01*
X254946Y295282D01*
X254437Y294774D01*
X253544Y293425D01*
X253247Y291835D01*
X253594Y290255D01*
X254437Y289026D01*
X254946Y288518D01*
X257396Y282602D01*
X257396Y276198D01*
X254946Y270282D01*
X254437Y269774D01*
X253544Y268425D01*
X253247Y266835D01*
X253594Y265255D01*
X254437Y264026D01*
X254946Y263518D01*
X257396Y257602D01*
X257396Y251198D01*
X254946Y245282D01*
X250418Y240754D01*
X244502Y238304D01*
X238098Y238304D01*
X232182Y240754D01*
X227654Y245282D01*
X226005Y249265D01*
X225101Y250607D01*
X223745Y251489D01*
X222153Y251773D01*
X220576Y251413D01*
X219264Y250467D01*
X218495Y249265D01*
X216846Y245282D01*
X212318Y240754D01*
X206402Y238304D01*
X199998Y238304D01*
X194082Y240754D01*
X189554Y245282D01*
X187905Y249265D01*
X187001Y250607D01*
X185645Y251489D01*
X184053Y251773D01*
X182476Y251413D01*
X181164Y250467D01*
X180395Y249265D01*
X178746Y245282D01*
X174218Y240754D01*
X168302Y238304D01*
X161898Y238304D01*
X155982Y240754D01*
X151454Y245282D01*
X149805Y249265D01*
X148901Y250607D01*
X147545Y251489D01*
X145953Y251773D01*
X144376Y251413D01*
X143064Y250467D01*
X142295Y249265D01*
X140646Y245282D01*
X136118Y240754D01*
X130202Y238304D01*
X123798Y238304D01*
X117882Y240754D01*
X113355Y245282D01*
X112203Y248062D01*
X111299Y249404D01*
X109944Y250286D01*
X108351Y250570D01*
X106774Y250210D01*
X105665Y249469D01*
X105571Y249380D01*
X105146Y249046D01*
X104692Y248751D01*
X104215Y248498D01*
X103718Y248288D01*
X103203Y248123D01*
X102676Y248004D01*
X102140Y247932D01*
X101510Y247904D01*
X59142Y247904D01*
X57587Y247595D01*
X57414Y247523D01*
X51806Y247523D01*
X51633Y247595D01*
X50078Y247904D01*
X14224Y247904D01*
X12639Y247582D01*
X11305Y246668D01*
X10433Y245305D01*
X10160Y243840D01*
X10160Y-36576D01*
X10482Y-38161D01*
X11397Y-39495D01*
X12759Y-40367D01*
X14224Y-40640D01*
X35510Y-40640D01*
X37095Y-40318D01*
G37*
%LPC*%
G36*
X1052655Y391400D02*
X1049593Y392395D01*
X1049389Y392455D01*
X1046929Y393115D01*
X1046720Y393235D01*
X1045944Y393581D01*
X1045075Y393863D01*
X1043091Y395305D01*
X1042734Y395537D01*
X1041191Y396427D01*
X1040475Y397143D01*
X1039991Y397557D01*
X1038627Y398547D01*
X1037637Y399911D01*
X1037223Y400395D01*
X1036507Y401111D01*
X1035617Y402654D01*
X1035385Y403011D01*
X1033943Y404995D01*
X1033661Y405864D01*
X1033315Y406640D01*
X1033195Y406849D01*
X1032535Y409309D01*
X1032475Y409513D01*
X1031480Y412575D01*
X1031480Y420545D01*
X1032475Y423607D01*
X1032535Y423811D01*
X1033195Y426271D01*
X1033315Y426480D01*
X1033661Y427256D01*
X1033943Y428125D01*
X1035385Y430110D01*
X1035617Y430466D01*
X1036507Y432009D01*
X1037223Y432725D01*
X1037637Y433210D01*
X1038627Y434573D01*
X1039991Y435563D01*
X1040475Y435977D01*
X1041191Y436693D01*
X1042734Y437584D01*
X1043091Y437815D01*
X1045075Y439257D01*
X1045944Y439539D01*
X1046720Y439885D01*
X1046929Y440005D01*
X1049389Y440665D01*
X1049593Y440725D01*
X1052655Y441720D01*
X1060625Y441720D01*
X1063687Y440725D01*
X1063891Y440665D01*
X1066351Y440005D01*
X1066560Y439885D01*
X1067336Y439539D01*
X1068205Y439257D01*
X1070190Y437815D01*
X1070546Y437584D01*
X1072089Y436693D01*
X1072805Y435977D01*
X1073290Y435563D01*
X1074653Y434573D01*
X1075643Y433210D01*
X1076057Y432725D01*
X1076773Y432009D01*
X1077664Y430466D01*
X1077895Y430110D01*
X1079337Y428125D01*
X1079619Y427256D01*
X1079965Y426480D01*
X1080085Y426271D01*
X1080745Y423811D01*
X1080805Y423607D01*
X1081800Y420545D01*
X1081800Y412575D01*
X1080805Y409513D01*
X1080745Y409309D01*
X1080085Y406849D01*
X1079965Y406640D01*
X1079619Y405864D01*
X1079337Y404995D01*
X1077895Y403011D01*
X1077664Y402654D01*
X1076773Y401111D01*
X1076057Y400395D01*
X1075643Y399911D01*
X1074653Y398547D01*
X1073290Y397557D01*
X1072805Y397143D01*
X1072089Y396427D01*
X1070546Y395537D01*
X1070190Y395305D01*
X1068205Y393863D01*
X1067336Y393581D01*
X1066560Y393235D01*
X1066351Y393115D01*
X1063891Y392455D01*
X1063687Y392395D01*
X1060625Y391400D01*
X1052655Y391400D01*
G37*
G36*
X1342655Y391400D02*
X1339593Y392395D01*
X1339389Y392455D01*
X1336929Y393115D01*
X1336720Y393235D01*
X1335944Y393581D01*
X1335075Y393863D01*
X1333091Y395305D01*
X1332734Y395537D01*
X1331191Y396427D01*
X1330475Y397143D01*
X1329991Y397557D01*
X1328627Y398547D01*
X1327637Y399911D01*
X1327223Y400395D01*
X1326507Y401111D01*
X1325617Y402654D01*
X1325385Y403011D01*
X1323943Y404995D01*
X1323661Y405864D01*
X1323315Y406640D01*
X1323195Y406849D01*
X1322535Y409309D01*
X1322475Y409513D01*
X1321480Y412575D01*
X1321480Y420545D01*
X1322475Y423607D01*
X1322535Y423811D01*
X1323195Y426271D01*
X1323315Y426480D01*
X1323661Y427256D01*
X1323943Y428125D01*
X1325385Y430110D01*
X1325617Y430466D01*
X1326507Y432009D01*
X1327223Y432725D01*
X1327637Y433210D01*
X1328627Y434573D01*
X1329991Y435563D01*
X1330475Y435977D01*
X1331191Y436693D01*
X1332734Y437584D01*
X1333091Y437815D01*
X1335075Y439257D01*
X1335944Y439539D01*
X1336720Y439885D01*
X1336929Y440005D01*
X1339389Y440665D01*
X1339593Y440725D01*
X1342655Y441720D01*
X1350625Y441720D01*
X1353687Y440725D01*
X1353891Y440665D01*
X1356351Y440005D01*
X1356560Y439885D01*
X1357336Y439539D01*
X1358205Y439257D01*
X1360190Y437815D01*
X1360546Y437584D01*
X1362089Y436693D01*
X1362805Y435977D01*
X1363290Y435563D01*
X1364653Y434573D01*
X1365643Y433210D01*
X1366057Y432725D01*
X1366773Y432009D01*
X1367664Y430466D01*
X1367895Y430110D01*
X1369337Y428125D01*
X1369619Y427256D01*
X1369965Y426480D01*
X1370085Y426271D01*
X1370745Y423811D01*
X1370805Y423607D01*
X1371800Y420545D01*
X1371800Y412575D01*
X1370805Y409513D01*
X1370745Y409309D01*
X1370085Y406849D01*
X1369965Y406640D01*
X1369619Y405864D01*
X1369337Y404995D01*
X1367895Y403011D01*
X1367664Y402654D01*
X1366773Y401111D01*
X1366057Y400395D01*
X1365643Y399911D01*
X1364653Y398547D01*
X1363290Y397557D01*
X1362805Y397143D01*
X1362089Y396427D01*
X1360546Y395537D01*
X1360190Y395305D01*
X1358205Y393863D01*
X1357336Y393581D01*
X1356560Y393235D01*
X1356351Y393115D01*
X1353891Y392455D01*
X1353687Y392395D01*
X1350625Y391400D01*
X1342655Y391400D01*
G37*
G36*
X722884Y433959D02*
X722884Y440436D01*
X729361Y440436D01*
X729361Y440134D01*
X723186Y433959D01*
X722884Y433959D01*
G37*
G36*
X714454Y433959D02*
X708279Y440134D01*
X708279Y440436D01*
X714756Y440436D01*
X714756Y433959D01*
X714454Y433959D01*
G37*
G36*
X411734Y386334D02*
X411734Y386636D01*
X417909Y392811D01*
X418211Y392811D01*
X418211Y386334D01*
X411734Y386334D01*
G37*
G36*
X426339Y386334D02*
X426339Y392811D01*
X426641Y392811D01*
X432816Y386636D01*
X432816Y386334D01*
X426339Y386334D01*
G37*
G36*
X1095469Y149611D02*
X1089776Y151969D01*
X1085963Y155782D01*
X1084615Y156675D01*
X1083089Y156972D01*
X1077883Y156972D01*
X1074896Y158209D01*
X1066259Y166846D01*
X1065022Y169833D01*
X1065022Y360392D01*
X1066259Y363379D01*
X1078071Y375191D01*
X1081058Y376428D01*
X1083089Y376428D01*
X1084674Y376750D01*
X1085963Y377618D01*
X1089776Y381431D01*
X1095469Y383789D01*
X1101631Y383789D01*
X1107324Y381431D01*
X1110891Y377864D01*
X1112239Y376971D01*
X1113829Y376675D01*
X1115409Y377022D01*
X1116638Y377864D01*
X1117190Y378417D01*
X1119886Y379533D01*
X1119886Y364236D01*
X1135183Y364236D01*
X1134067Y361540D01*
X1133514Y360988D01*
X1132621Y359640D01*
X1132325Y358050D01*
X1132672Y356470D01*
X1133514Y355241D01*
X1137081Y351674D01*
X1139439Y345981D01*
X1139439Y339819D01*
X1137081Y334126D01*
X1136029Y333074D01*
X1135136Y331725D01*
X1134839Y330135D01*
X1135186Y328555D01*
X1136029Y327326D01*
X1137081Y326274D01*
X1139439Y320581D01*
X1139439Y314419D01*
X1137081Y308726D01*
X1136029Y307674D01*
X1135136Y306325D01*
X1134839Y304735D01*
X1135186Y303155D01*
X1136029Y301926D01*
X1137081Y300874D01*
X1139439Y295181D01*
X1139439Y289019D01*
X1137081Y283326D01*
X1136029Y282274D01*
X1135136Y280925D01*
X1134839Y279335D01*
X1135186Y277755D01*
X1136029Y276526D01*
X1137081Y275474D01*
X1139439Y269781D01*
X1139439Y263619D01*
X1137081Y257926D01*
X1136029Y256874D01*
X1135136Y255525D01*
X1134839Y253935D01*
X1135186Y252355D01*
X1136029Y251126D01*
X1137081Y250074D01*
X1139439Y244381D01*
X1139439Y238219D01*
X1137081Y232526D01*
X1136029Y231474D01*
X1135136Y230125D01*
X1134839Y228535D01*
X1135186Y226955D01*
X1136029Y225726D01*
X1137081Y224674D01*
X1139439Y218981D01*
X1139439Y212819D01*
X1137081Y207126D01*
X1136029Y206074D01*
X1135136Y204725D01*
X1134839Y203135D01*
X1135186Y201555D01*
X1136029Y200326D01*
X1137081Y199274D01*
X1139439Y193581D01*
X1139439Y187419D01*
X1137081Y181726D01*
X1133514Y178159D01*
X1132621Y176811D01*
X1132325Y175221D01*
X1132672Y173641D01*
X1133514Y172412D01*
X1134067Y171860D01*
X1135183Y169164D01*
X1119886Y169164D01*
X1119886Y153867D01*
X1117190Y154983D01*
X1116638Y155536D01*
X1115290Y156429D01*
X1113700Y156725D01*
X1112120Y156378D01*
X1110891Y155536D01*
X1107324Y151969D01*
X1101631Y149611D01*
X1095469Y149611D01*
G37*
G36*
X1128014Y372364D02*
X1128014Y379533D01*
X1130710Y378417D01*
X1134067Y375060D01*
X1135183Y372364D01*
X1128014Y372364D01*
G37*
G36*
X426339Y371729D02*
X426339Y378206D01*
X432816Y378206D01*
X432816Y377904D01*
X426641Y371729D01*
X426339Y371729D01*
G37*
G36*
X417909Y371729D02*
X411734Y377904D01*
X411734Y378206D01*
X418211Y378206D01*
X418211Y371729D01*
X417909Y371729D01*
G37*
G36*
X409548Y238304D02*
X403632Y240754D01*
X399104Y245282D01*
X396654Y251198D01*
X396654Y257602D01*
X399104Y263518D01*
X399613Y264026D01*
X400506Y265375D01*
X400803Y266965D01*
X400456Y268545D01*
X399613Y269774D01*
X399104Y270282D01*
X396654Y276198D01*
X396654Y282602D01*
X399104Y288518D01*
X399613Y289026D01*
X400506Y290375D01*
X400803Y291965D01*
X400456Y293545D01*
X399613Y294774D01*
X399104Y295282D01*
X396654Y301198D01*
X396654Y307602D01*
X399104Y313518D01*
X403632Y318046D01*
X409548Y320496D01*
X415952Y320496D01*
X421868Y318046D01*
X426396Y313518D01*
X428045Y309535D01*
X428949Y308193D01*
X430305Y307311D01*
X431897Y307027D01*
X433474Y307387D01*
X434786Y308333D01*
X435555Y309535D01*
X437204Y313518D01*
X441732Y318046D01*
X447648Y320496D01*
X454052Y320496D01*
X459968Y318046D01*
X464496Y313518D01*
X466145Y309535D01*
X467049Y308193D01*
X468405Y307311D01*
X469997Y307027D01*
X471574Y307387D01*
X472886Y308333D01*
X473655Y309535D01*
X475304Y313518D01*
X479832Y318046D01*
X485748Y320496D01*
X492152Y320496D01*
X498068Y318046D01*
X502596Y313518D01*
X504245Y309535D01*
X505149Y308193D01*
X506505Y307311D01*
X508097Y307027D01*
X509674Y307387D01*
X510986Y308333D01*
X511755Y309535D01*
X513404Y313518D01*
X517932Y318046D01*
X523848Y320496D01*
X530252Y320496D01*
X536168Y318046D01*
X540696Y313518D01*
X543146Y307602D01*
X543146Y301198D01*
X540696Y295282D01*
X540187Y294774D01*
X539294Y293425D01*
X538997Y291835D01*
X539344Y290255D01*
X540187Y289026D01*
X540696Y288518D01*
X543146Y282602D01*
X543146Y276198D01*
X540696Y270282D01*
X540187Y269774D01*
X539294Y268425D01*
X538997Y266835D01*
X539344Y265255D01*
X540187Y264026D01*
X540696Y263518D01*
X543146Y257602D01*
X543146Y251198D01*
X540696Y245282D01*
X536168Y240754D01*
X530252Y238304D01*
X523848Y238304D01*
X517932Y240754D01*
X513404Y245282D01*
X511755Y249265D01*
X510851Y250607D01*
X509495Y251489D01*
X507903Y251773D01*
X506326Y251413D01*
X505014Y250467D01*
X504245Y249265D01*
X502596Y245282D01*
X498068Y240754D01*
X492152Y238304D01*
X485748Y238304D01*
X479832Y240754D01*
X475304Y245282D01*
X473655Y249265D01*
X472751Y250607D01*
X471395Y251489D01*
X469803Y251773D01*
X468226Y251413D01*
X466914Y250467D01*
X466145Y249265D01*
X464496Y245282D01*
X459968Y240754D01*
X454052Y238304D01*
X447648Y238304D01*
X441732Y240754D01*
X437204Y245282D01*
X435555Y249265D01*
X434651Y250607D01*
X433295Y251489D01*
X431703Y251773D01*
X430126Y251413D01*
X428814Y250467D01*
X428045Y249265D01*
X426396Y245282D01*
X421868Y240754D01*
X415952Y238304D01*
X409548Y238304D01*
G37*
G36*
X384620Y167132D02*
X379205Y169375D01*
X375061Y173519D01*
X372818Y178934D01*
X372818Y202066D01*
X375061Y207481D01*
X379205Y211625D01*
X384620Y213868D01*
X390480Y213868D01*
X395895Y211625D01*
X397176Y210344D01*
X398525Y209451D01*
X400115Y209154D01*
X401695Y209501D01*
X402924Y210344D01*
X404205Y211625D01*
X409620Y213868D01*
X415480Y213868D01*
X420895Y211625D01*
X425039Y207481D01*
X427282Y202066D01*
X427282Y178934D01*
X425039Y173519D01*
X420895Y169375D01*
X415480Y167132D01*
X409620Y167132D01*
X404205Y169375D01*
X402924Y170656D01*
X401575Y171549D01*
X399985Y171846D01*
X398405Y171499D01*
X397176Y170656D01*
X395895Y169375D01*
X390480Y167132D01*
X384620Y167132D01*
G37*
G36*
X219520Y167132D02*
X214105Y169375D01*
X209961Y173519D01*
X207718Y178934D01*
X207718Y202066D01*
X209961Y207481D01*
X214105Y211625D01*
X219520Y213868D01*
X225380Y213868D01*
X230795Y211625D01*
X232076Y210344D01*
X233425Y209451D01*
X235015Y209154D01*
X236595Y209501D01*
X237824Y210344D01*
X239105Y211625D01*
X244520Y213868D01*
X250380Y213868D01*
X255795Y211625D01*
X259939Y207481D01*
X262182Y202066D01*
X262182Y178934D01*
X259939Y173519D01*
X255795Y169375D01*
X250380Y167132D01*
X244520Y167132D01*
X239105Y169375D01*
X237824Y170656D01*
X236475Y171549D01*
X234885Y171846D01*
X233305Y171499D01*
X232076Y170656D01*
X230795Y169375D01*
X225380Y167132D01*
X219520Y167132D01*
G37*
G36*
X486220Y167132D02*
X480805Y169375D01*
X476661Y173519D01*
X474418Y178934D01*
X474418Y202066D01*
X476661Y207481D01*
X480805Y211625D01*
X486220Y213868D01*
X492080Y213868D01*
X497495Y211625D01*
X498776Y210344D01*
X500125Y209451D01*
X501715Y209154D01*
X503295Y209501D01*
X504524Y210344D01*
X505805Y211625D01*
X511220Y213868D01*
X517080Y213868D01*
X522495Y211625D01*
X526639Y207481D01*
X528882Y202066D01*
X528882Y178934D01*
X526639Y173519D01*
X522495Y169375D01*
X517080Y167132D01*
X511220Y167132D01*
X505805Y169375D01*
X504524Y170656D01*
X503175Y171549D01*
X501585Y171846D01*
X500005Y171499D01*
X498776Y170656D01*
X497495Y169375D01*
X492080Y167132D01*
X486220Y167132D01*
G37*
G36*
X117920Y167132D02*
X112505Y169375D01*
X108361Y173519D01*
X106118Y178934D01*
X106118Y202066D01*
X108361Y207481D01*
X112505Y211625D01*
X117920Y213868D01*
X123780Y213868D01*
X129195Y211625D01*
X130476Y210344D01*
X131825Y209451D01*
X133415Y209154D01*
X134995Y209501D01*
X136224Y210344D01*
X137505Y211625D01*
X142920Y213868D01*
X148780Y213868D01*
X154195Y211625D01*
X158339Y207481D01*
X160582Y202066D01*
X160582Y178934D01*
X158339Y173519D01*
X154195Y169375D01*
X148780Y167132D01*
X142920Y167132D01*
X137505Y169375D01*
X136224Y170656D01*
X134875Y171549D01*
X133285Y171846D01*
X131705Y171499D01*
X130476Y170656D01*
X129195Y169375D01*
X123780Y167132D01*
X117920Y167132D01*
G37*
G36*
X607314Y152360D02*
X607314Y161036D01*
X625556Y161036D01*
X624250Y157883D01*
X620667Y154300D01*
X615984Y152360D01*
X607314Y152360D01*
G37*
G36*
X1128014Y161036D02*
X1135183Y161036D01*
X1134067Y158340D01*
X1130710Y154983D01*
X1128014Y153867D01*
X1128014Y161036D01*
G37*
G36*
X800949Y148169D02*
X800949Y154646D01*
X801252Y154646D01*
X807426Y148472D01*
X807426Y148169D01*
X800949Y148169D01*
G37*
G36*
X786344Y148169D02*
X786344Y148472D01*
X792519Y154646D01*
X792821Y154646D01*
X792821Y148169D01*
X786344Y148169D01*
G37*
G36*
X1052655Y101400D02*
X1049593Y102395D01*
X1049389Y102455D01*
X1046929Y103115D01*
X1046720Y103235D01*
X1045944Y103581D01*
X1045075Y103863D01*
X1043091Y105305D01*
X1042734Y105537D01*
X1041191Y106427D01*
X1040475Y107143D01*
X1039991Y107557D01*
X1038627Y108547D01*
X1037637Y109911D01*
X1037223Y110395D01*
X1036507Y111111D01*
X1035617Y112654D01*
X1035385Y113011D01*
X1033943Y114995D01*
X1033661Y115864D01*
X1033315Y116640D01*
X1033195Y116849D01*
X1032535Y119309D01*
X1032475Y119513D01*
X1031480Y122575D01*
X1031480Y130545D01*
X1032475Y133607D01*
X1032535Y133811D01*
X1033195Y136271D01*
X1033315Y136480D01*
X1033661Y137256D01*
X1033943Y138125D01*
X1035385Y140110D01*
X1035617Y140466D01*
X1036507Y142009D01*
X1037223Y142725D01*
X1037637Y143210D01*
X1038627Y144573D01*
X1039991Y145563D01*
X1040475Y145977D01*
X1041191Y146693D01*
X1042734Y147584D01*
X1043091Y147815D01*
X1045075Y149257D01*
X1045944Y149539D01*
X1046720Y149885D01*
X1046929Y150005D01*
X1049389Y150665D01*
X1049593Y150725D01*
X1052655Y151720D01*
X1060625Y151720D01*
X1063687Y150725D01*
X1063891Y150665D01*
X1066351Y150005D01*
X1066560Y149885D01*
X1067336Y149539D01*
X1068205Y149257D01*
X1070190Y147815D01*
X1070546Y147584D01*
X1072089Y146693D01*
X1072805Y145977D01*
X1073290Y145563D01*
X1074653Y144573D01*
X1075643Y143210D01*
X1076057Y142725D01*
X1076773Y142009D01*
X1077664Y140466D01*
X1077895Y140110D01*
X1079337Y138125D01*
X1079619Y137256D01*
X1079965Y136480D01*
X1080085Y136271D01*
X1080745Y133811D01*
X1080805Y133607D01*
X1081800Y130545D01*
X1081800Y122575D01*
X1080805Y119513D01*
X1080745Y119309D01*
X1080085Y116849D01*
X1079965Y116640D01*
X1079619Y115864D01*
X1079337Y114995D01*
X1077895Y113011D01*
X1077664Y112654D01*
X1076773Y111111D01*
X1076057Y110395D01*
X1075643Y109911D01*
X1074653Y108547D01*
X1073290Y107557D01*
X1072805Y107143D01*
X1072089Y106427D01*
X1070546Y105537D01*
X1070190Y105305D01*
X1068205Y103863D01*
X1067336Y103581D01*
X1066560Y103235D01*
X1066351Y103115D01*
X1063891Y102455D01*
X1063687Y102395D01*
X1060625Y101400D01*
X1052655Y101400D01*
G37*
G36*
X1342655Y101400D02*
X1339593Y102395D01*
X1339389Y102455D01*
X1336929Y103115D01*
X1336720Y103235D01*
X1335944Y103581D01*
X1335075Y103863D01*
X1333091Y105305D01*
X1332734Y105537D01*
X1331191Y106427D01*
X1330475Y107143D01*
X1329991Y107557D01*
X1328627Y108547D01*
X1327637Y109911D01*
X1327223Y110395D01*
X1326507Y111111D01*
X1325617Y112654D01*
X1325385Y113011D01*
X1323943Y114995D01*
X1323661Y115864D01*
X1323315Y116640D01*
X1323195Y116849D01*
X1322535Y119309D01*
X1322475Y119513D01*
X1321480Y122575D01*
X1321480Y130545D01*
X1322475Y133607D01*
X1322535Y133811D01*
X1323195Y136271D01*
X1323315Y136480D01*
X1323661Y137256D01*
X1323943Y138125D01*
X1325385Y140110D01*
X1325617Y140466D01*
X1326507Y142009D01*
X1327223Y142725D01*
X1327637Y143210D01*
X1328627Y144573D01*
X1329991Y145563D01*
X1330475Y145977D01*
X1331191Y146693D01*
X1332734Y147584D01*
X1333091Y147815D01*
X1335075Y149257D01*
X1335944Y149539D01*
X1336720Y149885D01*
X1336929Y150005D01*
X1339389Y150665D01*
X1339593Y150725D01*
X1342655Y151720D01*
X1350625Y151720D01*
X1353687Y150725D01*
X1353891Y150665D01*
X1356351Y150005D01*
X1356560Y149885D01*
X1357336Y149539D01*
X1358205Y149257D01*
X1360190Y147815D01*
X1360546Y147584D01*
X1362089Y146693D01*
X1362805Y145977D01*
X1363290Y145563D01*
X1364653Y144573D01*
X1365643Y143210D01*
X1366057Y142725D01*
X1366773Y142009D01*
X1367664Y140466D01*
X1367895Y140110D01*
X1369337Y138125D01*
X1369619Y137256D01*
X1369965Y136480D01*
X1370085Y136271D01*
X1370745Y133811D01*
X1370805Y133607D01*
X1371800Y130545D01*
X1371800Y122575D01*
X1370805Y119513D01*
X1370745Y119309D01*
X1370085Y116849D01*
X1369965Y116640D01*
X1369619Y115864D01*
X1369337Y114995D01*
X1367895Y113011D01*
X1367664Y112654D01*
X1366773Y111111D01*
X1366057Y110395D01*
X1365643Y109911D01*
X1364653Y108547D01*
X1363290Y107557D01*
X1362805Y107143D01*
X1362089Y106427D01*
X1360546Y105537D01*
X1360190Y105305D01*
X1358205Y103863D01*
X1357336Y103581D01*
X1356560Y103235D01*
X1356351Y103115D01*
X1353891Y102455D01*
X1353687Y102395D01*
X1350625Y101400D01*
X1342655Y101400D01*
G37*
G36*
X792519Y133564D02*
X786344Y139739D01*
X786344Y140041D01*
X792821Y140041D01*
X792821Y133564D01*
X792519Y133564D01*
G37*
G36*
X800949Y133564D02*
X800949Y140041D01*
X807426Y140041D01*
X807426Y139739D01*
X801252Y133564D01*
X800949Y133564D01*
G37*
G36*
X269321Y105594D02*
X269321Y109010D01*
X269826Y109010D01*
X270759Y108623D01*
X271474Y107908D01*
X271861Y106975D01*
X271861Y105594D01*
X269321Y105594D01*
G37*
G36*
X269321Y94191D02*
X269321Y97607D01*
X271861Y97607D01*
X271861Y96225D01*
X271474Y95292D01*
X270759Y94577D01*
X269826Y94191D01*
X269321Y94191D01*
G37*
G36*
X269321Y80194D02*
X269321Y83610D01*
X269826Y83610D01*
X270759Y83223D01*
X271474Y82508D01*
X271861Y81575D01*
X271861Y80194D01*
X269321Y80194D01*
G37*
G36*
X1145621Y80194D02*
X1145621Y83610D01*
X1146126Y83610D01*
X1147059Y83223D01*
X1147774Y82508D01*
X1148161Y81575D01*
X1148161Y80194D01*
X1145621Y80194D01*
G37*
G36*
X477225Y71040D02*
X476292Y71426D01*
X475577Y72141D01*
X475191Y73074D01*
X475191Y73580D01*
X478607Y73580D01*
X478607Y71040D01*
X477225Y71040D01*
G37*
G36*
X502625Y71040D02*
X501692Y71426D01*
X500977Y72141D01*
X500591Y73074D01*
X500591Y73580D01*
X504007Y73580D01*
X504007Y71040D01*
X502625Y71040D01*
G37*
G36*
X537394Y71040D02*
X537394Y73580D01*
X540810Y73580D01*
X540810Y73074D01*
X540423Y72141D01*
X539708Y71426D01*
X538775Y71040D01*
X537394Y71040D01*
G37*
G36*
X486594Y71040D02*
X486594Y73580D01*
X490010Y73580D01*
X490010Y73074D01*
X489623Y72141D01*
X488908Y71426D01*
X487975Y71040D01*
X486594Y71040D01*
G37*
G36*
X511994Y71040D02*
X511994Y73580D01*
X515410Y73580D01*
X515410Y73074D01*
X515023Y72141D01*
X514308Y71426D01*
X513375Y71040D01*
X511994Y71040D01*
G37*
G36*
X528025Y71040D02*
X527092Y71426D01*
X526377Y72141D01*
X525991Y73074D01*
X525991Y73580D01*
X529407Y73580D01*
X529407Y71040D01*
X528025Y71040D01*
G37*
G36*
X397694Y71040D02*
X397694Y73580D01*
X401110Y73580D01*
X401110Y73074D01*
X400723Y72141D01*
X400008Y71426D01*
X399075Y71040D01*
X397694Y71040D01*
G37*
G36*
X388325Y71040D02*
X387392Y71426D01*
X386677Y72141D01*
X386291Y73074D01*
X386291Y73580D01*
X389707Y73580D01*
X389707Y71040D01*
X388325Y71040D01*
G37*
G36*
X372294Y71040D02*
X372294Y73580D01*
X375710Y73580D01*
X375710Y73074D01*
X375323Y72141D01*
X374608Y71426D01*
X373675Y71040D01*
X372294Y71040D01*
G37*
G36*
X362925Y71040D02*
X361992Y71426D01*
X361277Y72141D01*
X360891Y73074D01*
X360891Y73580D01*
X364307Y73580D01*
X364307Y71040D01*
X362925Y71040D01*
G37*
G36*
X346894Y71040D02*
X346894Y73580D01*
X350310Y73580D01*
X350310Y73074D01*
X349923Y72141D01*
X349208Y71426D01*
X348275Y71040D01*
X346894Y71040D01*
G37*
G36*
X1145621Y68791D02*
X1145621Y72207D01*
X1148161Y72207D01*
X1148161Y70825D01*
X1147774Y69892D01*
X1147059Y69177D01*
X1146126Y68791D01*
X1145621Y68791D01*
G37*
G36*
X269321Y68791D02*
X269321Y72207D01*
X271861Y72207D01*
X271861Y70825D01*
X271474Y69892D01*
X270759Y69177D01*
X269826Y68791D01*
X269321Y68791D01*
G37*
G36*
X969264Y65160D02*
X969264Y72136D01*
X976240Y72136D01*
X976240Y67195D01*
X975853Y66261D01*
X975139Y65547D01*
X974205Y65160D01*
X969264Y65160D01*
G37*
G36*
X930795Y65160D02*
X929861Y65547D01*
X929147Y66261D01*
X928760Y67195D01*
X928760Y72136D01*
X935736Y72136D01*
X935736Y65160D01*
X930795Y65160D01*
G37*
G36*
X1145621Y54794D02*
X1145621Y58210D01*
X1146126Y58210D01*
X1147059Y57823D01*
X1147774Y57108D01*
X1148161Y56175D01*
X1148161Y54794D01*
X1145621Y54794D01*
G37*
G36*
X269321Y54794D02*
X269321Y58210D01*
X269826Y58210D01*
X270759Y57823D01*
X271474Y57108D01*
X271861Y56175D01*
X271861Y54794D01*
X269321Y54794D01*
G37*
G36*
X1145621Y43391D02*
X1145621Y46807D01*
X1148161Y46807D01*
X1148161Y45425D01*
X1147774Y44492D01*
X1147059Y43777D01*
X1146126Y43391D01*
X1145621Y43391D01*
G37*
G36*
X447487Y10804D02*
X445247Y11732D01*
X443809Y13170D01*
X442461Y14063D01*
X440936Y14360D01*
X435864Y14360D01*
X435864Y36440D01*
X440936Y36440D01*
X442521Y36762D01*
X443809Y37630D01*
X445247Y39068D01*
X447487Y39996D01*
X466913Y39996D01*
X469153Y39068D01*
X470868Y37353D01*
X471796Y35113D01*
X471796Y15687D01*
X470868Y13447D01*
X469153Y11732D01*
X466913Y10804D01*
X447487Y10804D01*
G37*
G36*
X498287Y10804D02*
X496047Y11732D01*
X494332Y13447D01*
X493404Y15687D01*
X493404Y35113D01*
X494332Y37353D01*
X496047Y39068D01*
X498287Y39996D01*
X517713Y39996D01*
X519145Y39403D01*
X520732Y39094D01*
X522255Y39403D01*
X523687Y39996D01*
X543113Y39996D01*
X544545Y39403D01*
X546132Y39094D01*
X547655Y39403D01*
X549087Y39996D01*
X568513Y39996D01*
X569945Y39403D01*
X571532Y39094D01*
X573055Y39403D01*
X574487Y39996D01*
X593913Y39996D01*
X595345Y39403D01*
X596932Y39094D01*
X598455Y39403D01*
X599887Y39996D01*
X619313Y39996D01*
X620745Y39403D01*
X622332Y39094D01*
X623855Y39403D01*
X625287Y39996D01*
X644713Y39996D01*
X646145Y39403D01*
X647732Y39094D01*
X649255Y39403D01*
X650687Y39996D01*
X670113Y39996D01*
X671545Y39403D01*
X673132Y39094D01*
X674655Y39403D01*
X676087Y39996D01*
X695513Y39996D01*
X697753Y39068D01*
X699468Y37353D01*
X700396Y35113D01*
X700396Y15687D01*
X699468Y13447D01*
X697753Y11732D01*
X695513Y10804D01*
X676087Y10804D01*
X674655Y11397D01*
X673068Y11706D01*
X671545Y11397D01*
X670113Y10804D01*
X650687Y10804D01*
X649255Y11397D01*
X647668Y11706D01*
X646145Y11397D01*
X644713Y10804D01*
X625287Y10804D01*
X623855Y11397D01*
X622268Y11706D01*
X620745Y11397D01*
X619313Y10804D01*
X599887Y10804D01*
X598455Y11397D01*
X596868Y11706D01*
X595345Y11397D01*
X593913Y10804D01*
X574487Y10804D01*
X573055Y11397D01*
X571468Y11706D01*
X569945Y11397D01*
X568513Y10804D01*
X549087Y10804D01*
X547655Y11397D01*
X546068Y11706D01*
X544545Y11397D01*
X543113Y10804D01*
X523687Y10804D01*
X522255Y11397D01*
X520668Y11706D01*
X519145Y11397D01*
X517713Y10804D01*
X498287Y10804D01*
G37*
G36*
X410464Y14360D02*
X410464Y36440D01*
X415405Y36440D01*
X416492Y35990D01*
X417575Y35273D01*
X419165Y34976D01*
X420745Y35323D01*
X421731Y35999D01*
X422795Y36440D01*
X427736Y36440D01*
X427736Y14360D01*
X422795Y14360D01*
X421708Y14810D01*
X420625Y15527D01*
X419035Y15824D01*
X417455Y15477D01*
X416469Y14801D01*
X415405Y14360D01*
X410464Y14360D01*
G37*
G36*
X1145621Y29394D02*
X1145621Y32810D01*
X1146126Y32810D01*
X1147059Y32423D01*
X1147774Y31708D01*
X1148161Y30775D01*
X1148161Y29394D01*
X1145621Y29394D01*
G37*
G36*
X1145621Y17991D02*
X1145621Y21407D01*
X1148161Y21407D01*
X1148161Y20025D01*
X1147774Y19092D01*
X1147059Y18377D01*
X1146126Y17991D01*
X1145621Y17991D01*
G37*
%LPD*%
G36*
X556721Y436630D02*
X558010Y437499D01*
X594612Y474101D01*
X599187Y475996D01*
X908938Y475996D01*
X913513Y474101D01*
X918266Y469347D01*
X919615Y468454D01*
X921205Y468158D01*
X922785Y468505D01*
X924104Y469441D01*
X924954Y470817D01*
X925204Y472221D01*
X925204Y492313D01*
X925797Y493745D01*
X926106Y495332D01*
X925797Y496855D01*
X925204Y498287D01*
X925204Y514858D01*
X924882Y516443D01*
X923968Y517777D01*
X922605Y518649D01*
X921140Y518922D01*
X882260Y518922D01*
X880675Y518600D01*
X879341Y517686D01*
X878469Y516323D01*
X878196Y514858D01*
X878196Y498287D01*
X877268Y496047D01*
X875553Y494332D01*
X873313Y493404D01*
X853887Y493404D01*
X852455Y493997D01*
X850868Y494306D01*
X849345Y493997D01*
X847913Y493404D01*
X828487Y493404D01*
X827055Y493997D01*
X825468Y494306D01*
X823945Y493997D01*
X822513Y493404D01*
X803087Y493404D01*
X801655Y493997D01*
X800068Y494306D01*
X798545Y493997D01*
X797113Y493404D01*
X777687Y493404D01*
X776255Y493997D01*
X774668Y494306D01*
X773145Y493997D01*
X771713Y493404D01*
X752287Y493404D01*
X750855Y493997D01*
X749268Y494306D01*
X747745Y493997D01*
X746313Y493404D01*
X726887Y493404D01*
X725455Y493997D01*
X723868Y494306D01*
X722345Y493997D01*
X720913Y493404D01*
X701487Y493404D01*
X700055Y493997D01*
X698468Y494306D01*
X696945Y493997D01*
X695513Y493404D01*
X676087Y493404D01*
X673847Y494332D01*
X672132Y496047D01*
X671204Y498287D01*
X671204Y517713D01*
X672132Y519953D01*
X673847Y521668D01*
X676087Y522596D01*
X695513Y522596D01*
X696945Y522003D01*
X698532Y521694D01*
X700055Y522003D01*
X701487Y522596D01*
X720913Y522596D01*
X722345Y522003D01*
X723932Y521694D01*
X725455Y522003D01*
X725963Y522213D01*
X727304Y523117D01*
X728187Y524473D01*
X728472Y525968D01*
X728472Y533429D01*
X729709Y536417D01*
X744520Y551227D01*
X745413Y552576D01*
X745710Y554166D01*
X745363Y555746D01*
X744427Y557065D01*
X743051Y557915D01*
X741646Y558165D01*
X183692Y558165D01*
X182107Y557843D01*
X180818Y556975D01*
X132491Y508648D01*
X131745Y508145D01*
X130863Y506789D01*
X130579Y505197D01*
X130939Y503620D01*
X131768Y502421D01*
X131884Y502304D01*
X134620Y495700D01*
X134620Y488550D01*
X131884Y481946D01*
X126829Y476890D01*
X122270Y475002D01*
X120929Y474098D01*
X120046Y472742D01*
X119761Y471247D01*
X119761Y454025D01*
X120083Y452440D01*
X120998Y451106D01*
X122360Y450234D01*
X123825Y449961D01*
X172802Y449961D01*
X174387Y450283D01*
X175721Y451198D01*
X176557Y452470D01*
X177850Y455593D01*
X180994Y458737D01*
X185102Y460439D01*
X189548Y460439D01*
X193656Y458737D01*
X196800Y455593D01*
X198093Y452470D01*
X198997Y451129D01*
X200353Y450246D01*
X201848Y449961D01*
X426843Y449961D01*
X432229Y447730D01*
X433784Y447421D01*
X444477Y447421D01*
X446062Y447743D01*
X447396Y448658D01*
X448267Y450020D01*
X448538Y451615D01*
X448231Y453040D01*
X447322Y455235D01*
X447322Y459165D01*
X448763Y462643D01*
X449072Y464198D01*
X449072Y490032D01*
X448750Y491617D01*
X447836Y492951D01*
X446563Y493787D01*
X445247Y494332D01*
X443532Y496047D01*
X442604Y498287D01*
X442604Y517713D01*
X443532Y519953D01*
X445247Y521668D01*
X447487Y522596D01*
X466913Y522596D01*
X468345Y522003D01*
X469932Y521694D01*
X471455Y522003D01*
X472887Y522596D01*
X492313Y522596D01*
X493745Y522003D01*
X495332Y521694D01*
X496855Y522003D01*
X498287Y522596D01*
X517713Y522596D01*
X519145Y522003D01*
X520732Y521694D01*
X522255Y522003D01*
X523687Y522596D01*
X543113Y522596D01*
X544545Y522003D01*
X546132Y521694D01*
X547655Y522003D01*
X549087Y522596D01*
X568513Y522596D01*
X569945Y522003D01*
X571532Y521694D01*
X573055Y522003D01*
X574487Y522596D01*
X593913Y522596D01*
X595345Y522003D01*
X596932Y521694D01*
X598455Y522003D01*
X599887Y522596D01*
X619313Y522596D01*
X620745Y522003D01*
X622332Y521694D01*
X623855Y522003D01*
X625287Y522596D01*
X644713Y522596D01*
X646953Y521668D01*
X648668Y519953D01*
X649596Y517713D01*
X649596Y498287D01*
X648668Y496047D01*
X646953Y494332D01*
X644713Y493404D01*
X625287Y493404D01*
X623855Y493997D01*
X622268Y494306D01*
X620745Y493997D01*
X619313Y493404D01*
X599887Y493404D01*
X598455Y493997D01*
X596868Y494306D01*
X595345Y493997D01*
X593465Y493219D01*
X592793Y493082D01*
X591459Y492168D01*
X590722Y491046D01*
X586929Y487253D01*
X584128Y486093D01*
X571577Y486093D01*
X569992Y485771D01*
X568704Y484902D01*
X528113Y444312D01*
X527220Y442964D01*
X526923Y441438D01*
X526923Y440373D01*
X527245Y438787D01*
X528160Y437453D01*
X529522Y436582D01*
X530987Y436309D01*
X555136Y436309D01*
X556721Y436630D01*
G37*
%LPC*%
G36*
X178247Y493404D02*
X176007Y494332D01*
X174292Y496047D01*
X173364Y498287D01*
X173364Y517713D01*
X174292Y519953D01*
X176007Y521668D01*
X178247Y522596D01*
X197673Y522596D01*
X199105Y522003D01*
X200692Y521694D01*
X202215Y522003D01*
X203647Y522596D01*
X223073Y522596D01*
X224505Y522003D01*
X226092Y521694D01*
X227615Y522003D01*
X229047Y522596D01*
X248473Y522596D01*
X250713Y521668D01*
X252151Y520230D01*
X253499Y519337D01*
X255024Y519040D01*
X260096Y519040D01*
X260096Y496960D01*
X255024Y496960D01*
X253439Y496638D01*
X252151Y495770D01*
X250713Y494332D01*
X248473Y493404D01*
X229047Y493404D01*
X227615Y493997D01*
X226028Y494306D01*
X224505Y493997D01*
X223073Y493404D01*
X203647Y493404D01*
X202215Y493997D01*
X200628Y494306D01*
X199105Y493997D01*
X197673Y493404D01*
X178247Y493404D01*
G37*
G36*
X279847Y493404D02*
X277607Y494332D01*
X276169Y495770D01*
X274821Y496663D01*
X273296Y496960D01*
X268224Y496960D01*
X268224Y519040D01*
X273296Y519040D01*
X274881Y519362D01*
X276169Y520230D01*
X277607Y521668D01*
X279847Y522596D01*
X299273Y522596D01*
X300705Y522003D01*
X302292Y521694D01*
X303815Y522003D01*
X305247Y522596D01*
X324673Y522596D01*
X326105Y522003D01*
X327692Y521694D01*
X329215Y522003D01*
X330647Y522596D01*
X350073Y522596D01*
X351505Y522003D01*
X353092Y521694D01*
X354615Y522003D01*
X356047Y522596D01*
X375473Y522596D01*
X376905Y522003D01*
X378492Y521694D01*
X380015Y522003D01*
X381447Y522596D01*
X400873Y522596D01*
X402305Y522003D01*
X403892Y521694D01*
X405415Y522003D01*
X406847Y522596D01*
X426273Y522596D01*
X428513Y521668D01*
X430228Y519953D01*
X431156Y517713D01*
X431156Y498287D01*
X430228Y496047D01*
X428513Y494332D01*
X426273Y493404D01*
X406847Y493404D01*
X405415Y493997D01*
X403828Y494306D01*
X402305Y493997D01*
X400873Y493404D01*
X381447Y493404D01*
X380015Y493997D01*
X378428Y494306D01*
X376905Y493997D01*
X375473Y493404D01*
X356047Y493404D01*
X354615Y493997D01*
X353028Y494306D01*
X351505Y493997D01*
X350073Y493404D01*
X330647Y493404D01*
X329215Y493997D01*
X327628Y494306D01*
X326105Y493997D01*
X324673Y493404D01*
X305247Y493404D01*
X303815Y493997D01*
X302228Y494306D01*
X300705Y493997D01*
X299273Y493404D01*
X279847Y493404D01*
G37*
%LPD*%
G36*
X1234366Y535014D02*
X1235536Y535830D01*
X1250933Y551227D01*
X1251826Y552576D01*
X1252122Y554166D01*
X1251775Y555746D01*
X1250840Y557065D01*
X1249463Y557915D01*
X1248059Y558165D01*
X1050641Y558165D01*
X1049056Y557843D01*
X1047722Y556929D01*
X1046850Y555566D01*
X1046579Y553971D01*
X1046951Y552397D01*
X1047767Y551227D01*
X1056276Y542718D01*
X1057625Y541825D01*
X1059150Y541528D01*
X1207049Y541528D01*
X1208634Y541850D01*
X1209968Y542765D01*
X1210803Y544037D01*
X1211233Y545074D01*
X1213876Y547717D01*
X1217331Y549148D01*
X1221069Y549148D01*
X1224524Y547717D01*
X1227167Y545074D01*
X1228598Y541619D01*
X1228598Y538704D01*
X1228920Y537119D01*
X1229835Y535785D01*
X1231197Y534913D01*
X1232792Y534642D01*
X1234366Y535014D01*
G37*
G36*
X100361Y254161D02*
X101028Y254618D01*
X101463Y255300D01*
X101600Y256032D01*
X101600Y330099D01*
X101609Y330192D01*
X101610Y330193D01*
X101692Y330200D01*
X150368Y330200D01*
X151161Y330361D01*
X151828Y330818D01*
X152263Y331500D01*
X152400Y332232D01*
X152400Y417068D01*
X152239Y417861D01*
X151782Y418528D01*
X151101Y418963D01*
X150368Y419100D01*
X128143Y419100D01*
X127350Y418939D01*
X126683Y418482D01*
X126248Y417801D01*
X126111Y417068D01*
X126111Y414849D01*
X123830Y409341D01*
X119614Y405125D01*
X114106Y402844D01*
X108144Y402844D01*
X102636Y405125D01*
X98420Y409341D01*
X96139Y414849D01*
X96139Y417068D01*
X95978Y417861D01*
X95521Y418528D01*
X94840Y418963D01*
X94107Y419100D01*
X14732Y419100D01*
X13939Y418939D01*
X13272Y418482D01*
X12837Y417801D01*
X12700Y417068D01*
X12700Y256032D01*
X12861Y255239D01*
X13318Y254572D01*
X14000Y254137D01*
X14732Y254000D01*
X99568Y254000D01*
X100361Y254161D01*
G37*
%LPC*%
G36*
X105286Y368173D02*
X97028Y376431D01*
X97028Y388109D01*
X105286Y396367D01*
X116964Y396367D01*
X125222Y388109D01*
X125222Y376431D01*
X116964Y368173D01*
X105286Y368173D01*
G37*
G36*
X48771Y283083D02*
X40513Y291341D01*
X40513Y303019D01*
X48771Y311277D01*
X60449Y311277D01*
X68707Y303019D01*
X68707Y291341D01*
X60449Y283083D01*
X48771Y283083D01*
G37*
%LPD*%
D10*
X279400Y25400D03*
X304800Y25400D03*
X330200Y25400D03*
X355600Y25400D03*
X381000Y25400D03*
X406400Y25400D03*
X431800Y25400D03*
X457200Y25400D03*
X508000Y25400D03*
X533400Y25400D03*
X558800Y25400D03*
X584200Y25400D03*
X609600Y25400D03*
X635000Y25400D03*
X660400Y25400D03*
X685800Y25400D03*
X736600Y25400D03*
X762000Y25400D03*
X787400Y25400D03*
X812800Y25400D03*
X838200Y25400D03*
X863600Y25400D03*
X889000Y25400D03*
X914400Y25400D03*
X939800Y76200D03*
X965200Y76200D03*
X939800Y101600D03*
X939800Y127000D03*
X965200Y101600D03*
X965200Y127000D03*
X939800Y152400D03*
X965200Y152400D03*
X939800Y177800D03*
X965200Y177800D03*
X939800Y203200D03*
X965200Y203200D03*
X939800Y228600D03*
X965200Y228600D03*
X939800Y254000D03*
X965200Y254000D03*
X939800Y279400D03*
X965200Y279400D03*
X939800Y304800D03*
X965200Y304800D03*
X939800Y330200D03*
X965200Y330200D03*
X939800Y355600D03*
X965200Y355600D03*
X939800Y381000D03*
X965200Y381000D03*
X939800Y406400D03*
X965200Y406400D03*
X939800Y431800D03*
X965200Y431800D03*
X939800Y457200D03*
X965200Y457200D03*
X939800Y482600D03*
X965200Y482600D03*
X939800Y508000D03*
X965200Y508000D03*
X863600Y508000D03*
X838200Y508000D03*
X812800Y508000D03*
X787400Y508000D03*
X762000Y508000D03*
X736600Y508000D03*
X711200Y508000D03*
X685800Y508000D03*
X635000Y508000D03*
X609600Y508000D03*
X584200Y508000D03*
X558800Y508000D03*
X533400Y508000D03*
X508000Y508000D03*
X482600Y508000D03*
X457200Y508000D03*
X416560Y508000D03*
X391160Y508000D03*
X365760Y508000D03*
X340360Y508000D03*
X314960Y508000D03*
X289560Y508000D03*
X264160Y508000D03*
X238760Y508000D03*
X213360Y508000D03*
X187960Y508000D03*
D11*
X738188Y285438D03*
X738188Y213038D03*
D12*
X685600Y141986D02*
X685600Y124714D01*
X660600Y124714D02*
X660600Y141986D01*
D13*
X796885Y144105D03*
D14*
X761325Y144105D03*
D15*
X613450Y292100D02*
X593050Y292100D01*
X593050Y266700D02*
X613450Y266700D01*
X613450Y241300D02*
X593050Y241300D01*
X593050Y215900D02*
X613450Y215900D01*
X613450Y190500D02*
X593050Y190500D01*
X593050Y165100D02*
X613450Y165100D01*
D16*
X1098550Y165100D03*
X1098550Y190500D03*
X1098550Y215900D03*
X1098550Y241300D03*
X1098550Y266700D03*
X1098550Y292100D03*
X1098550Y317500D03*
X1098550Y342900D03*
X1098550Y368300D03*
X1123950Y165100D03*
X1123950Y190500D03*
X1123950Y215900D03*
X1123950Y241300D03*
X1123950Y266700D03*
X1123950Y292100D03*
X1123950Y317500D03*
X1123950Y342900D03*
X1123950Y368300D03*
D17*
X1283335Y541020D03*
X1308735Y541020D03*
X1283335Y515620D03*
X1308735Y515620D03*
X1283335Y490220D03*
X1308735Y490220D03*
X1283335Y464820D03*
X1308735Y464820D03*
D18*
X241300Y304400D03*
X241300Y279400D03*
X241300Y254400D03*
X203200Y304400D03*
X203200Y279400D03*
X203200Y254400D03*
X165100Y304400D03*
X165100Y279400D03*
X165100Y254400D03*
X127000Y304400D03*
X127000Y279400D03*
X127000Y254400D03*
D12*
X145850Y199136D02*
X145850Y181864D01*
X120850Y181864D02*
X120850Y199136D01*
X247450Y199136D02*
X247450Y181864D01*
X222450Y181864D02*
X222450Y199136D01*
D18*
X527050Y304400D03*
X527050Y279400D03*
X527050Y254400D03*
X488950Y304400D03*
X488950Y279400D03*
X488950Y254400D03*
X450850Y304400D03*
X450850Y279400D03*
X450850Y254400D03*
X412750Y304400D03*
X412750Y279400D03*
X412750Y254400D03*
D12*
X412550Y199136D02*
X412550Y181864D01*
X387550Y181864D02*
X387550Y199136D01*
X514150Y199136D02*
X514150Y181864D01*
X489150Y181864D02*
X489150Y199136D01*
D18*
X882650Y374250D03*
X882650Y349250D03*
X882650Y324250D03*
X844550Y374250D03*
X844550Y349250D03*
X844550Y324250D03*
X806450Y374250D03*
X806450Y349250D03*
X806450Y324250D03*
X768350Y374250D03*
X768350Y349250D03*
X768350Y324250D03*
D12*
X685600Y307086D02*
X685600Y289814D01*
X660600Y289814D02*
X660600Y307086D01*
X685600Y224536D02*
X685600Y207264D01*
X660600Y207264D02*
X660600Y224536D01*
D19*
X111125Y382270D03*
D14*
X111125Y417830D03*
D19*
X422275Y382270D03*
D14*
X422275Y417830D03*
D20*
X718820Y444500D03*
D14*
X754380Y444500D03*
D21*
X228600Y25400D03*
X228600Y50800D03*
X228600Y76200D03*
X228600Y101600D03*
D22*
X265327Y50800D03*
X249023Y50800D03*
X265327Y76200D03*
X249023Y76200D03*
X265327Y101600D03*
X249023Y101600D03*
D21*
X165100Y25400D03*
X165100Y50800D03*
X165100Y76200D03*
X165100Y101600D03*
D22*
X201827Y50800D03*
X185523Y50800D03*
X201827Y76200D03*
X185523Y76200D03*
X201827Y101600D03*
X185523Y101600D03*
D21*
X101600Y25400D03*
X101600Y50800D03*
X101600Y76200D03*
X101600Y101600D03*
D22*
X138327Y50800D03*
X122023Y50800D03*
X138327Y76200D03*
X122023Y76200D03*
X138327Y101600D03*
X122023Y101600D03*
D21*
X38100Y25400D03*
X38100Y50800D03*
X38100Y76200D03*
X38100Y101600D03*
D22*
X74827Y50800D03*
X58523Y50800D03*
X74827Y76200D03*
X58523Y76200D03*
X74827Y101600D03*
X58523Y101600D03*
D23*
X317500Y114300D03*
X342900Y114300D03*
X368300Y114300D03*
X393700Y114300D03*
D24*
X342900Y77573D03*
X342900Y93877D03*
X368300Y77573D03*
X368300Y93877D03*
X393700Y77573D03*
X393700Y93877D03*
D23*
X457200Y114300D03*
X482600Y114300D03*
X508000Y114300D03*
X533400Y114300D03*
D24*
X482600Y77573D03*
X482600Y93877D03*
X508000Y77573D03*
X508000Y93877D03*
X533400Y77573D03*
X533400Y93877D03*
D21*
X1041400Y0D03*
X1041400Y25400D03*
X1041400Y50800D03*
X1041400Y76200D03*
D22*
X1078127Y25400D03*
X1061823Y25400D03*
X1078127Y50800D03*
X1061823Y50800D03*
X1078127Y76200D03*
X1061823Y76200D03*
D21*
X1104900Y0D03*
X1104900Y25400D03*
X1104900Y50800D03*
X1104900Y76200D03*
D22*
X1141627Y25400D03*
X1125323Y25400D03*
X1141627Y50800D03*
X1125323Y50800D03*
X1141627Y76200D03*
X1125323Y76200D03*
D25*
X116650Y542925D02*
X92901Y542925D01*
X92901Y492125D02*
X116650Y492125D01*
D26*
X50800Y369900D03*
D27*
X28000Y441700D03*
X73600Y441700D03*
D28*
X54610Y297180D03*
D14*
X54610Y261620D03*
D22*
X744323Y100013D03*
X760627Y100013D03*
D29*
X187325Y400050D03*
X180975Y404813D03*
X193675Y404813D03*
X180975Y395288D03*
X193675Y395288D03*
X498475Y400050D03*
X492125Y404813D03*
X504825Y404813D03*
X492125Y395288D03*
X504825Y395288D03*
X873125Y425450D03*
X868363Y431800D03*
X877888Y431800D03*
X868363Y419100D03*
X877888Y419100D03*
D30*
X711200Y546100D03*
X190500Y546100D03*
X1155700Y552450D03*
X990600Y7620D03*
X426720Y107950D03*
X565150Y82550D03*
X831850Y125730D03*
D31*
X920750Y425450D03*
X187325Y449263D03*
X498475Y450850D03*
D32*
X919163Y427038D02*
X920750Y425450D01*
D33*
X919163Y427038D02*
X919163Y450850D01*
X906463Y463550D01*
X755650Y463550D01*
D32*
X754380Y462280D01*
D33*
X754380Y444500D01*
X755650Y463550D02*
X601663Y463550D01*
X563563Y425450D01*
D32*
X563563Y423863D01*
D33*
X561975Y423863D02*
X498475Y423863D01*
X498475Y434975D02*
X498475Y450850D01*
X498475Y434975D02*
X498475Y423863D01*
X498475Y434975D02*
X423863Y434975D01*
D32*
X423863Y419418D02*
X422275Y417830D01*
X423863Y419418D02*
X423863Y434975D01*
D34*
X187325Y434975D01*
D32*
X187325Y449263D01*
D34*
X187325Y434975D02*
X111125Y434975D01*
D33*
X104775Y441700D02*
X104775Y492125D01*
X104775Y441700D02*
X73600Y441700D01*
D34*
X111125Y434975D02*
X111125Y417830D01*
D33*
X111125Y434975D02*
X104775Y441325D01*
D34*
X104775Y492125D01*
D35*
X561975Y423863D02*
X563563Y425450D01*
D36*
X457200Y457200D03*
D37*
X457200Y508000D01*
X1082675Y368300D02*
X1098550Y368300D01*
X1082675Y368300D02*
X1073150Y358775D01*
X1073150Y171450D01*
X1079500Y165100D01*
X1098550Y165100D01*
X736600Y508000D02*
X736600Y531813D01*
X1054100Y533400D02*
X1212850Y533400D01*
X1219200Y539750D01*
D38*
X1219200Y539750D03*
D37*
X760730Y555943D02*
X736600Y531813D01*
X760730Y555943D02*
X1031558Y555943D01*
X1054100Y533400D01*
X762000Y525463D02*
X762000Y508000D01*
X762000Y525463D02*
X782638Y546100D01*
X1028700Y546100D01*
X1050925Y523875D01*
X1235075Y523875D01*
X1268159Y556959D01*
X1302322Y556959D01*
X1308735Y550545D02*
X1308735Y541020D01*
X1308735Y550545D02*
X1302322Y556959D01*
X812800Y519113D02*
X812800Y508000D01*
X812800Y519113D02*
X820738Y527050D01*
X1022350Y527050D01*
D39*
X1044575Y504825D02*
X1257300Y504825D01*
X1258888Y503238D01*
X1354138Y503238D02*
X1355725Y501650D01*
X1354138Y503238D02*
X1258888Y503238D01*
D37*
X1044575Y504825D02*
X1022350Y527050D01*
D38*
X1362075Y502158D03*
D37*
X1361567Y501650D02*
X1355725Y501650D01*
X1361567Y501650D02*
X1362075Y502158D01*
X787400Y508000D02*
X787400Y522288D01*
X801688Y536575D01*
X1025525Y536575D01*
D39*
X1047750Y514350D02*
X1257300Y514350D01*
X1271588Y528638D01*
X1360488Y528638D02*
X1362075Y527050D01*
X1360488Y528638D02*
X1271588Y528638D01*
D38*
X1362075Y527050D03*
D37*
X1047750Y514350D02*
X1025525Y536575D01*
D38*
X814388Y258763D03*
D37*
X814388Y254000D01*
X939800Y254000D01*
D32*
X685800Y216100D02*
X685600Y215900D01*
X685800Y216100D02*
X685800Y233363D01*
X687388Y234950D01*
X757238Y234950D01*
X796925Y274638D01*
X854075Y274638D01*
X882650Y303213D01*
X882650Y324250D01*
X844550Y324250D02*
X844550Y304800D01*
X828675Y288925D01*
X787400Y288925D01*
X746125Y247650D01*
X666750Y247650D01*
X660600Y241500D01*
X660600Y215900D01*
X685600Y298450D02*
X690363Y303213D01*
X798513Y303213D01*
X806450Y311150D01*
X806450Y324250D01*
X768350Y324250D02*
X671913Y324250D01*
X660400Y312738D01*
X660400Y298650D01*
X660600Y298450D01*
D38*
X517525Y439738D03*
D39*
X584200Y495300D02*
X584200Y508000D01*
X584200Y495300D02*
X582613Y493713D01*
X566738Y493713D01*
X517525Y444500D01*
X517525Y439738D01*
D38*
X512763Y454025D03*
D39*
X558800Y500063D01*
X558800Y508000D01*
D38*
X482600Y452438D03*
D39*
X482600Y455613D02*
X527050Y500063D01*
X482600Y455613D02*
X482600Y452438D01*
X527050Y501650D02*
X533400Y508000D01*
X527050Y501650D02*
X527050Y500063D01*
X509588Y506413D02*
X508000Y508000D01*
X509588Y506413D02*
X509588Y496888D01*
D38*
X471250Y454025D03*
D39*
X471250Y458550D02*
X509588Y496888D01*
X471250Y458550D02*
X471250Y454025D01*
X249023Y50800D02*
X228600Y50800D01*
X228600Y76200D02*
X249023Y76200D01*
X185523Y50800D02*
X165100Y50800D01*
X165100Y76200D02*
X185523Y76200D01*
X122023Y50800D02*
X101600Y50800D01*
X101600Y76200D02*
X122023Y76200D01*
X58523Y50800D02*
X38100Y50800D01*
X38100Y76200D02*
X58523Y76200D01*
X342900Y93877D02*
X342900Y114300D01*
X368300Y114300D02*
X368300Y93877D01*
X482600Y93877D02*
X482600Y114300D01*
X508000Y114300D02*
X508000Y93877D01*
X1041400Y25400D02*
X1061823Y25400D01*
X838200Y25400D02*
X838200Y9525D01*
X844550Y3175D01*
X935038Y3175D01*
X957263Y25400D02*
X1041400Y25400D01*
X957263Y25400D02*
X935038Y3175D01*
X1041400Y50800D02*
X1061823Y50800D01*
X1104900Y25400D02*
X1125323Y25400D01*
X1125323Y50800D02*
X1104900Y50800D01*
D32*
X101600Y-28575D02*
X47625Y-28575D01*
X101600Y-28575D02*
X165100Y-28575D01*
X230188Y-28575D01*
X381000Y-28575D01*
X381000Y25400D01*
X317500Y114300D02*
X317500Y133350D01*
X323850Y139700D01*
X457200Y139700D01*
X457200Y114300D01*
X1104900Y0D02*
X1104900Y-22225D01*
X1098550Y-28575D01*
X1039813Y-28575D01*
X1041400Y-26988D02*
X1041400Y0D01*
X1041400Y-26988D02*
X1039813Y-28575D01*
X381000Y-28575D01*
X317500Y68263D02*
X317500Y114300D01*
X317500Y68263D02*
X333375Y52388D01*
X369888Y52388D01*
X381000Y41275D01*
X381000Y25400D01*
X38100Y25400D02*
X38100Y-19050D01*
X47625Y-28575D01*
X101600Y-28575D02*
X101600Y25400D01*
X165100Y25400D02*
X165100Y-28575D01*
X228600Y-26988D02*
X228600Y25400D01*
X228600Y-26988D02*
X230188Y-28575D01*
X620713Y100013D02*
X744323Y100013D01*
X620713Y100013D02*
X581025Y139700D01*
X558800Y139700D01*
X457200Y139700D01*
X563563Y190500D02*
X603250Y190500D01*
X563563Y190500D02*
X558800Y185738D01*
X558800Y139700D01*
D39*
X249023Y101600D02*
X228600Y101600D01*
X185523Y101600D02*
X165100Y101600D01*
X122023Y101600D02*
X101600Y101600D01*
X58523Y101600D02*
X38100Y101600D01*
X393700Y93877D02*
X393700Y114300D01*
X533400Y114300D02*
X533400Y93877D01*
X1041400Y76200D02*
X1061823Y76200D01*
X1104900Y76200D02*
X1125323Y76200D01*
D33*
X50800Y369900D02*
X28575Y347675D01*
X28575Y269875D01*
X36830Y261620D01*
X54610Y261620D01*
D32*
X50800Y369900D02*
X50800Y381000D01*
X50800Y495300D01*
X73025Y517525D01*
X127000Y517525D01*
X177800Y568325D01*
X1374775Y568325D01*
X1381125Y561975D01*
X1381125Y469900D01*
X1376363Y465138D01*
X1309053Y465138D01*
X1308735Y464820D01*
D29*
X50800Y381000D03*
X38100Y381000D03*
X63500Y381000D03*
X63500Y368300D03*
X50800Y368300D03*
X38100Y368300D03*
X38100Y355600D03*
X50800Y355600D03*
X63500Y355600D03*
X800100Y258763D03*
D40*
X800100Y201613D01*
X788988Y190500D01*
D29*
X788988Y190500D03*
D32*
X761325Y144105D02*
X761325Y100711D01*
X760627Y100013D01*
X241300Y279400D02*
X203200Y279400D01*
X165100Y279400D02*
X127000Y279400D01*
X488950Y279400D02*
X527050Y279400D01*
X450850Y279400D02*
X412750Y279400D01*
X844550Y349250D02*
X882650Y349250D01*
X806450Y349250D02*
X768350Y349250D01*
M02*
