G04 EAGLE Gerber RS-274X export*
G75*
%MOMM*%
%FSLAX34Y34*%
%LPD*%
%INSoldermask Top*%
%IPPOS*%
%AMOC8*
5,1,8,0,0,1.08239X$1,22.5*%
G01*
G04 Define Apertures*
%ADD10R,15.240000X10.318750*%
%ADD11R,1.903200X1.903200*%
%ADD12R,1.124100X1.173400*%
%ADD13R,0.805100X2.168600*%
%ADD14R,1.001900X1.177100*%
%ADD15C,1.463200*%
%ADD16C,1.930400*%
%ADD17P,1.95198X8X22.5*%
%ADD18C,1.803400*%
%ADD19C,2.243200*%
%ADD20C,2.081869*%
%ADD21C,3.203200*%
%ADD22R,1.177100X1.001900*%
%ADD23P,2.08945X8X292.5*%
%ADD24R,0.503200X1.853200*%
%ADD25R,2.203200X1.933200*%
%ADD26C,2.203200*%
%ADD27R,1.853200X0.503200*%
%ADD28R,1.933200X2.203200*%
%ADD29P,1.95198X8X292.5*%
%ADD30P,1.95198X8X202.5*%
%ADD31P,2.42802X8X202.5*%
%ADD32P,2.42802X8X112.5*%
%ADD33C,2.578100*%
%ADD34P,1.95198X8X112.5*%
%ADD35C,0.914400*%
%ADD36R,1.016000X1.016000*%
%ADD37C,1.219200*%
%ADD38C,0.959600*%
%ADD39C,0.863600*%
D10*
X288925Y394494D03*
X600075Y394494D03*
D11*
X279400Y25400D03*
X304800Y25400D03*
X330200Y25400D03*
X355600Y25400D03*
X381000Y25400D03*
X406400Y25400D03*
X431800Y25400D03*
X457200Y25400D03*
X508000Y25400D03*
X533400Y25400D03*
X558800Y25400D03*
X584200Y25400D03*
X609600Y25400D03*
X635000Y25400D03*
X660400Y25400D03*
X685800Y25400D03*
X736600Y25400D03*
X762000Y25400D03*
X787400Y25400D03*
X812800Y25400D03*
X838200Y25400D03*
X863600Y25400D03*
X889000Y25400D03*
X914400Y25400D03*
X939800Y76200D03*
X965200Y76200D03*
X939800Y101600D03*
X939800Y127000D03*
X965200Y101600D03*
X965200Y127000D03*
X939800Y152400D03*
X965200Y152400D03*
X939800Y177800D03*
X965200Y177800D03*
X939800Y203200D03*
X965200Y203200D03*
X939800Y228600D03*
X965200Y228600D03*
X939800Y254000D03*
X965200Y254000D03*
X939800Y279400D03*
X965200Y279400D03*
X939800Y304800D03*
X965200Y304800D03*
X939800Y330200D03*
X965200Y330200D03*
X939800Y355600D03*
X965200Y355600D03*
X939800Y381000D03*
X965200Y381000D03*
X939800Y406400D03*
X965200Y406400D03*
X939800Y431800D03*
X965200Y431800D03*
X939800Y457200D03*
X965200Y457200D03*
X939800Y482600D03*
X965200Y482600D03*
X939800Y508000D03*
X965200Y508000D03*
X863600Y508000D03*
X838200Y508000D03*
X812800Y508000D03*
X787400Y508000D03*
X762000Y508000D03*
X736600Y508000D03*
X711200Y508000D03*
X685800Y508000D03*
X635000Y508000D03*
X609600Y508000D03*
X584200Y508000D03*
X558800Y508000D03*
X533400Y508000D03*
X508000Y508000D03*
X482600Y508000D03*
X457200Y508000D03*
X416560Y508000D03*
X391160Y508000D03*
X365760Y508000D03*
X340360Y508000D03*
X314960Y508000D03*
X289560Y508000D03*
X264160Y508000D03*
X238760Y508000D03*
X213360Y508000D03*
X187960Y508000D03*
D12*
X815784Y273050D03*
X800292Y273050D03*
D13*
X814388Y221551D03*
X801688Y221551D03*
X788988Y221551D03*
X776288Y221551D03*
X776288Y172149D03*
X788988Y172149D03*
X801688Y172149D03*
X814388Y172149D03*
D14*
X831636Y139700D03*
X847940Y139700D03*
X879690Y215900D03*
X863386Y215900D03*
X847940Y234950D03*
X831636Y234950D03*
X879690Y234950D03*
X863386Y234950D03*
X847940Y254000D03*
X831636Y254000D03*
X879690Y254000D03*
X863386Y254000D03*
X847940Y273050D03*
X831636Y273050D03*
X879690Y273050D03*
X863386Y273050D03*
X799886Y247650D03*
X816190Y247650D03*
X761786Y247650D03*
X778090Y247650D03*
D15*
X738188Y285438D03*
X738188Y213038D03*
D14*
X879690Y139700D03*
X863386Y139700D03*
X847940Y158750D03*
X831636Y158750D03*
X879690Y158750D03*
X863386Y158750D03*
X847940Y177800D03*
X831636Y177800D03*
X879690Y177800D03*
X863386Y177800D03*
X847940Y196850D03*
X831636Y196850D03*
X879690Y196850D03*
X863386Y196850D03*
X847940Y215900D03*
X831636Y215900D03*
D12*
X762192Y273050D03*
X777684Y273050D03*
D16*
X685600Y141986D02*
X685600Y124714D01*
X660600Y124714D02*
X660600Y141986D01*
D17*
X796885Y144105D03*
D18*
X761325Y144105D03*
D19*
X613450Y292100D02*
X593050Y292100D01*
X593050Y266700D02*
X613450Y266700D01*
X613450Y241300D02*
X593050Y241300D01*
X593050Y215900D02*
X613450Y215900D01*
X613450Y190500D02*
X593050Y190500D01*
X593050Y165100D02*
X613450Y165100D01*
D20*
X1098550Y165100D03*
X1098550Y190500D03*
X1098550Y215900D03*
X1098550Y241300D03*
X1098550Y266700D03*
X1098550Y292100D03*
X1098550Y317500D03*
X1098550Y342900D03*
X1098550Y368300D03*
X1123950Y165100D03*
X1123950Y190500D03*
X1123950Y215900D03*
X1123950Y241300D03*
X1123950Y266700D03*
X1123950Y292100D03*
X1123950Y317500D03*
X1123950Y342900D03*
X1123950Y368300D03*
D21*
X1056640Y126560D03*
X1056640Y416560D03*
X1346640Y416560D03*
X1346640Y126560D03*
D22*
X1063625Y353798D03*
X1063625Y370102D03*
X1155700Y353798D03*
X1155700Y370102D03*
X1155700Y269978D03*
X1155700Y286282D03*
X1155700Y296648D03*
X1155700Y312952D03*
D23*
X1283335Y541020D03*
X1308735Y541020D03*
X1283335Y515620D03*
X1308735Y515620D03*
X1283335Y490220D03*
X1308735Y490220D03*
X1283335Y464820D03*
X1308735Y464820D03*
D14*
X1236448Y482600D03*
X1252752Y482600D03*
X1236448Y463550D03*
X1252752Y463550D03*
X1334873Y514350D03*
X1351177Y514350D03*
X1334873Y495300D03*
X1351177Y495300D03*
X1351177Y476250D03*
X1334873Y476250D03*
X1351177Y533400D03*
X1334873Y533400D03*
D24*
X197325Y423050D03*
X192325Y423050D03*
X187325Y423050D03*
X182325Y423050D03*
X177325Y423050D03*
X177325Y377050D03*
X182325Y377050D03*
X187325Y377050D03*
X192325Y377050D03*
X197325Y377050D03*
D25*
X187325Y400050D03*
D26*
X241300Y304400D03*
X241300Y279400D03*
X241300Y254400D03*
X203200Y304400D03*
X203200Y279400D03*
X203200Y254400D03*
X165100Y304400D03*
X165100Y279400D03*
X165100Y254400D03*
X127000Y304400D03*
X127000Y279400D03*
X127000Y254400D03*
D16*
X145850Y199136D02*
X145850Y181864D01*
X120850Y181864D02*
X120850Y199136D01*
X247450Y199136D02*
X247450Y181864D01*
X222450Y181864D02*
X222450Y199136D01*
D24*
X508475Y423050D03*
X503475Y423050D03*
X498475Y423050D03*
X493475Y423050D03*
X488475Y423050D03*
X488475Y377050D03*
X493475Y377050D03*
X498475Y377050D03*
X503475Y377050D03*
X508475Y377050D03*
D25*
X498475Y400050D03*
D26*
X527050Y304400D03*
X527050Y279400D03*
X527050Y254400D03*
X488950Y304400D03*
X488950Y279400D03*
X488950Y254400D03*
X450850Y304400D03*
X450850Y279400D03*
X450850Y254400D03*
X412750Y304400D03*
X412750Y279400D03*
X412750Y254400D03*
D16*
X412550Y199136D02*
X412550Y181864D01*
X387550Y181864D02*
X387550Y199136D01*
X514150Y199136D02*
X514150Y181864D01*
X489150Y181864D02*
X489150Y199136D01*
D27*
X896125Y415450D03*
X896125Y420450D03*
X896125Y425450D03*
X896125Y430450D03*
X896125Y435450D03*
X850125Y435450D03*
X850125Y430450D03*
X850125Y425450D03*
X850125Y420450D03*
X850125Y415450D03*
D28*
X873125Y425450D03*
D26*
X882650Y374250D03*
X882650Y349250D03*
X882650Y324250D03*
X844550Y374250D03*
X844550Y349250D03*
X844550Y324250D03*
X806450Y374250D03*
X806450Y349250D03*
X806450Y324250D03*
X768350Y374250D03*
X768350Y349250D03*
X768350Y324250D03*
D16*
X685600Y307086D02*
X685600Y289814D01*
X660600Y289814D02*
X660600Y307086D01*
X685600Y224536D02*
X685600Y207264D01*
X660600Y207264D02*
X660600Y224536D01*
D29*
X111125Y382270D03*
D18*
X111125Y417830D03*
D29*
X422275Y382270D03*
D18*
X422275Y417830D03*
D30*
X718820Y444500D03*
D18*
X754380Y444500D03*
D31*
X228600Y25400D03*
X228600Y50800D03*
X228600Y76200D03*
X228600Y101600D03*
X165100Y25400D03*
X165100Y50800D03*
X165100Y76200D03*
X165100Y101600D03*
X101600Y25400D03*
X101600Y50800D03*
X101600Y76200D03*
X101600Y101600D03*
X38100Y25400D03*
X38100Y50800D03*
X38100Y76200D03*
X38100Y101600D03*
D32*
X317500Y114300D03*
X342900Y114300D03*
X368300Y114300D03*
X393700Y114300D03*
X457200Y114300D03*
X482600Y114300D03*
X508000Y114300D03*
X533400Y114300D03*
D31*
X1041400Y0D03*
X1041400Y25400D03*
X1041400Y50800D03*
X1041400Y76200D03*
X1104900Y0D03*
X1104900Y25400D03*
X1104900Y50800D03*
X1104900Y76200D03*
D33*
X116650Y542925D02*
X92901Y542925D01*
X92901Y492125D02*
X116650Y492125D01*
D34*
X54610Y297180D03*
D18*
X54610Y261620D03*
D35*
X187325Y400050D03*
X180975Y404813D03*
X193675Y404813D03*
X180975Y395288D03*
X193675Y395288D03*
X498475Y400050D03*
X492125Y404813D03*
X504825Y404813D03*
X492125Y395288D03*
X504825Y395288D03*
X873125Y425450D03*
X868363Y431800D03*
X877888Y431800D03*
X868363Y419100D03*
X877888Y419100D03*
D36*
X711200Y546100D03*
X190500Y546100D03*
X1155700Y552450D03*
X990600Y7620D03*
X426720Y107950D03*
X565150Y82550D03*
X831850Y125730D03*
D37*
X920750Y425450D03*
X187325Y449263D03*
X498475Y450850D03*
D38*
X457200Y457200D03*
D39*
X1219200Y539750D03*
X1362075Y502158D03*
X1362075Y527050D03*
X814388Y258763D03*
X517525Y439738D03*
X512763Y454025D03*
X482600Y452438D03*
X471250Y454025D03*
D35*
X50800Y381000D03*
X38100Y381000D03*
X63500Y381000D03*
X63500Y368300D03*
X50800Y368300D03*
X38100Y368300D03*
X38100Y355600D03*
X50800Y355600D03*
X63500Y355600D03*
X800100Y258763D03*
X788988Y190500D03*
M02*
