G04 EAGLE Gerber RS-274X export*
G75*
%MOMM*%
%FSLAX34Y34*%
%LPD*%
%INSoldermask Bottom*%
%IPPOS*%
%AMOC8*
5,1,8,0,0,1.08239X$1,22.5*%
G01*
G04 Define Apertures*
%ADD10R,1.903200X1.903200*%
%ADD11C,1.463200*%
%ADD12C,1.930400*%
%ADD13P,1.95198X8X22.5*%
%ADD14C,1.803400*%
%ADD15C,2.243200*%
%ADD16C,2.081869*%
%ADD17C,3.203200*%
%ADD18P,2.08945X8X292.5*%
%ADD19C,2.203200*%
%ADD20P,1.95198X8X292.5*%
%ADD21P,1.95198X8X202.5*%
%ADD22P,2.42802X8X202.5*%
%ADD23R,1.001900X1.177100*%
%ADD24P,2.42802X8X112.5*%
%ADD25R,1.177100X1.001900*%
%ADD26C,2.578100*%
%ADD27R,6.003200X6.403200*%
%ADD28R,1.803200X3.203200*%
%ADD29P,1.95198X8X112.5*%
%ADD30C,0.914400*%
%ADD31R,1.016000X1.016000*%
%ADD32C,1.219200*%
%ADD33C,0.959600*%
%ADD34C,0.863600*%
D10*
X279400Y25400D03*
X304800Y25400D03*
X330200Y25400D03*
X355600Y25400D03*
X381000Y25400D03*
X406400Y25400D03*
X431800Y25400D03*
X457200Y25400D03*
X508000Y25400D03*
X533400Y25400D03*
X558800Y25400D03*
X584200Y25400D03*
X609600Y25400D03*
X635000Y25400D03*
X660400Y25400D03*
X685800Y25400D03*
X736600Y25400D03*
X762000Y25400D03*
X787400Y25400D03*
X812800Y25400D03*
X838200Y25400D03*
X863600Y25400D03*
X889000Y25400D03*
X914400Y25400D03*
X939800Y76200D03*
X965200Y76200D03*
X939800Y101600D03*
X939800Y127000D03*
X965200Y101600D03*
X965200Y127000D03*
X939800Y152400D03*
X965200Y152400D03*
X939800Y177800D03*
X965200Y177800D03*
X939800Y203200D03*
X965200Y203200D03*
X939800Y228600D03*
X965200Y228600D03*
X939800Y254000D03*
X965200Y254000D03*
X939800Y279400D03*
X965200Y279400D03*
X939800Y304800D03*
X965200Y304800D03*
X939800Y330200D03*
X965200Y330200D03*
X939800Y355600D03*
X965200Y355600D03*
X939800Y381000D03*
X965200Y381000D03*
X939800Y406400D03*
X965200Y406400D03*
X939800Y431800D03*
X965200Y431800D03*
X939800Y457200D03*
X965200Y457200D03*
X939800Y482600D03*
X965200Y482600D03*
X939800Y508000D03*
X965200Y508000D03*
X863600Y508000D03*
X838200Y508000D03*
X812800Y508000D03*
X787400Y508000D03*
X762000Y508000D03*
X736600Y508000D03*
X711200Y508000D03*
X685800Y508000D03*
X635000Y508000D03*
X609600Y508000D03*
X584200Y508000D03*
X558800Y508000D03*
X533400Y508000D03*
X508000Y508000D03*
X482600Y508000D03*
X457200Y508000D03*
X416560Y508000D03*
X391160Y508000D03*
X365760Y508000D03*
X340360Y508000D03*
X314960Y508000D03*
X289560Y508000D03*
X264160Y508000D03*
X238760Y508000D03*
X213360Y508000D03*
X187960Y508000D03*
D11*
X738188Y285438D03*
X738188Y213038D03*
D12*
X685600Y141986D02*
X685600Y124714D01*
X660600Y124714D02*
X660600Y141986D01*
D13*
X796885Y144105D03*
D14*
X761325Y144105D03*
D15*
X613450Y292100D02*
X593050Y292100D01*
X593050Y266700D02*
X613450Y266700D01*
X613450Y241300D02*
X593050Y241300D01*
X593050Y215900D02*
X613450Y215900D01*
X613450Y190500D02*
X593050Y190500D01*
X593050Y165100D02*
X613450Y165100D01*
D16*
X1098550Y165100D03*
X1098550Y190500D03*
X1098550Y215900D03*
X1098550Y241300D03*
X1098550Y266700D03*
X1098550Y292100D03*
X1098550Y317500D03*
X1098550Y342900D03*
X1098550Y368300D03*
X1123950Y165100D03*
X1123950Y190500D03*
X1123950Y215900D03*
X1123950Y241300D03*
X1123950Y266700D03*
X1123950Y292100D03*
X1123950Y317500D03*
X1123950Y342900D03*
X1123950Y368300D03*
D17*
X1056640Y126560D03*
X1056640Y416560D03*
X1346640Y416560D03*
X1346640Y126560D03*
D18*
X1283335Y541020D03*
X1308735Y541020D03*
X1283335Y515620D03*
X1308735Y515620D03*
X1283335Y490220D03*
X1308735Y490220D03*
X1283335Y464820D03*
X1308735Y464820D03*
D19*
X241300Y304400D03*
X241300Y279400D03*
X241300Y254400D03*
X203200Y304400D03*
X203200Y279400D03*
X203200Y254400D03*
X165100Y304400D03*
X165100Y279400D03*
X165100Y254400D03*
X127000Y304400D03*
X127000Y279400D03*
X127000Y254400D03*
D12*
X145850Y199136D02*
X145850Y181864D01*
X120850Y181864D02*
X120850Y199136D01*
X247450Y199136D02*
X247450Y181864D01*
X222450Y181864D02*
X222450Y199136D01*
D19*
X527050Y304400D03*
X527050Y279400D03*
X527050Y254400D03*
X488950Y304400D03*
X488950Y279400D03*
X488950Y254400D03*
X450850Y304400D03*
X450850Y279400D03*
X450850Y254400D03*
X412750Y304400D03*
X412750Y279400D03*
X412750Y254400D03*
D12*
X412550Y199136D02*
X412550Y181864D01*
X387550Y181864D02*
X387550Y199136D01*
X514150Y199136D02*
X514150Y181864D01*
X489150Y181864D02*
X489150Y199136D01*
D19*
X882650Y374250D03*
X882650Y349250D03*
X882650Y324250D03*
X844550Y374250D03*
X844550Y349250D03*
X844550Y324250D03*
X806450Y374250D03*
X806450Y349250D03*
X806450Y324250D03*
X768350Y374250D03*
X768350Y349250D03*
X768350Y324250D03*
D12*
X685600Y307086D02*
X685600Y289814D01*
X660600Y289814D02*
X660600Y307086D01*
X685600Y224536D02*
X685600Y207264D01*
X660600Y207264D02*
X660600Y224536D01*
D20*
X111125Y382270D03*
D14*
X111125Y417830D03*
D20*
X422275Y382270D03*
D14*
X422275Y417830D03*
D21*
X718820Y444500D03*
D14*
X754380Y444500D03*
D22*
X228600Y25400D03*
X228600Y50800D03*
X228600Y76200D03*
X228600Y101600D03*
D23*
X265327Y50800D03*
X249023Y50800D03*
X265327Y76200D03*
X249023Y76200D03*
X265327Y101600D03*
X249023Y101600D03*
D22*
X165100Y25400D03*
X165100Y50800D03*
X165100Y76200D03*
X165100Y101600D03*
D23*
X201827Y50800D03*
X185523Y50800D03*
X201827Y76200D03*
X185523Y76200D03*
X201827Y101600D03*
X185523Y101600D03*
D22*
X101600Y25400D03*
X101600Y50800D03*
X101600Y76200D03*
X101600Y101600D03*
D23*
X138327Y50800D03*
X122023Y50800D03*
X138327Y76200D03*
X122023Y76200D03*
X138327Y101600D03*
X122023Y101600D03*
D22*
X38100Y25400D03*
X38100Y50800D03*
X38100Y76200D03*
X38100Y101600D03*
D23*
X74827Y50800D03*
X58523Y50800D03*
X74827Y76200D03*
X58523Y76200D03*
X74827Y101600D03*
X58523Y101600D03*
D24*
X317500Y114300D03*
X342900Y114300D03*
X368300Y114300D03*
X393700Y114300D03*
D25*
X342900Y77573D03*
X342900Y93877D03*
X368300Y77573D03*
X368300Y93877D03*
X393700Y77573D03*
X393700Y93877D03*
D24*
X457200Y114300D03*
X482600Y114300D03*
X508000Y114300D03*
X533400Y114300D03*
D25*
X482600Y77573D03*
X482600Y93877D03*
X508000Y77573D03*
X508000Y93877D03*
X533400Y77573D03*
X533400Y93877D03*
D22*
X1041400Y0D03*
X1041400Y25400D03*
X1041400Y50800D03*
X1041400Y76200D03*
D23*
X1078127Y25400D03*
X1061823Y25400D03*
X1078127Y50800D03*
X1061823Y50800D03*
X1078127Y76200D03*
X1061823Y76200D03*
D22*
X1104900Y0D03*
X1104900Y25400D03*
X1104900Y50800D03*
X1104900Y76200D03*
D23*
X1141627Y25400D03*
X1125323Y25400D03*
X1141627Y50800D03*
X1125323Y50800D03*
X1141627Y76200D03*
X1125323Y76200D03*
D26*
X116650Y542925D02*
X92901Y542925D01*
X92901Y492125D02*
X116650Y492125D01*
D27*
X50800Y369900D03*
D28*
X28000Y441700D03*
X73600Y441700D03*
D29*
X54610Y297180D03*
D14*
X54610Y261620D03*
D23*
X744323Y100013D03*
X760627Y100013D03*
D30*
X187325Y400050D03*
X180975Y404813D03*
X193675Y404813D03*
X180975Y395288D03*
X193675Y395288D03*
X498475Y400050D03*
X492125Y404813D03*
X504825Y404813D03*
X492125Y395288D03*
X504825Y395288D03*
X873125Y425450D03*
X868363Y431800D03*
X877888Y431800D03*
X868363Y419100D03*
X877888Y419100D03*
D31*
X711200Y546100D03*
X190500Y546100D03*
X1155700Y552450D03*
X990600Y7620D03*
X426720Y107950D03*
X565150Y82550D03*
X831850Y125730D03*
D32*
X920750Y425450D03*
X187325Y449263D03*
X498475Y450850D03*
D33*
X457200Y457200D03*
D34*
X1219200Y539750D03*
X1362075Y502158D03*
X1362075Y527050D03*
X814388Y258763D03*
X517525Y439738D03*
X512763Y454025D03*
X482600Y452438D03*
X471250Y454025D03*
D30*
X50800Y381000D03*
X38100Y381000D03*
X63500Y381000D03*
X63500Y368300D03*
X50800Y368300D03*
X38100Y368300D03*
X38100Y355600D03*
X50800Y355600D03*
X63500Y355600D03*
X800100Y258763D03*
X788988Y190500D03*
M02*
