M48
;GenerationSoftware,Autodesk,EAGLE,9.7.0*%
;CreationDate,2021-09-23T22:08:42Z*%
FMAT,2
ICI,OFF
METRIC,TZ,000.000
T14C0.254
T13C0.305
T12C0.350
T11C0.406
T10C0.610
T9C0.660
T8C0.813
T7C1.000
T6C1.016
T5C1.105
T4C1.200
T3C1.397
T2C3.000
%
G90
M71
T2
X105664Y41656
X105664Y12656
X134664Y12656
X134664Y41656
T3
X10478Y54292
X10478Y49212
T4
X22860Y2540
X22860Y7620
X16510Y2540
X16510Y5080
X16510Y7620
X16510Y10160
X10160Y2540
X22860Y10160
X10160Y5080
X10160Y7620
X22860Y5080
X10160Y10160
X3810Y2540
X3810Y7620
X3810Y10160
X31750Y11430
X34290Y11430
X36830Y11430
X39370Y11430
X45720Y11430
X48260Y11430
X50800Y11430
X104140Y0
X104140Y2540
X104140Y5080
X104140Y7620
X110490Y0
X110490Y2540
X110490Y5080
X110490Y7620
X53340Y11430
X60325Y26670
X60325Y16510
X60325Y19050
X60325Y21590
X60325Y24130
X3810Y5080
X60325Y29210
T5
X112395Y34290
X109855Y26670
X112395Y31750
X112395Y29210
X112395Y26670
X112395Y24130
X112395Y21590
X112395Y19050
X112395Y16510
X109855Y36830
X109855Y34290
X109855Y31750
X112395Y36830
X109855Y21590
X109855Y24130
X109855Y16510
X109855Y19050
X109855Y29210
T6
X66060Y29845
X68560Y29845
X48915Y19050
X51415Y19050
X38755Y19050
X41255Y19050
X22245Y19050
X24745Y19050
X14585Y19050
X130873Y46482
X128333Y46482
X130873Y49022
X128333Y49022
X130873Y51562
X128333Y51562
X130873Y54102
X128333Y54102
X12085Y19050
X68560Y21590
X66060Y21590
X66060Y13335
X68560Y13335
T7
X93980Y20320
X96520Y20320
X93980Y22860
X96520Y22860
X93980Y25400
X96520Y25400
X93980Y27940
X96520Y27940
X93980Y30480
X96520Y30480
X93980Y33020
X96520Y33020
X93980Y35560
X96520Y35560
X93980Y38100
X96520Y38100
X96520Y40640
X93980Y43180
X96520Y43180
X93980Y45720
X96520Y45720
X93980Y48260
X96520Y48260
X93980Y50800
X96520Y50800
X86360Y50800
X83820Y50800
X81280Y50800
X78740Y50800
X76200Y50800
X73660Y50800
X71120Y50800
X68580Y50800
X63500Y50800
X60960Y50800
X58420Y50800
X55880Y50800
X53340Y50800
X50800Y50800
X48260Y50800
X45720Y50800
X41656Y50800
X39116Y50800
X36576Y50800
X34036Y50800
X31496Y50800
X28956Y50800
X41275Y30440
X23876Y50800
X21336Y50800
X18796Y50800
X26416Y50800
X24130Y30440
X24130Y27940
X24130Y25440
X20320Y30440
X20320Y27940
X20320Y25440
X16510Y30440
X16510Y27940
X16510Y25440
X12700Y30440
X12700Y27940
X12700Y25440
X52705Y30440
X52705Y27940
X52705Y25440
X48895Y30440
X48895Y27940
X48895Y25440
X45085Y30440
X45085Y27940
X45085Y25440
X41275Y27940
X41275Y25440
X88265Y37425
X88265Y34925
X88265Y32425
X84455Y37425
X84455Y34925
X84455Y32425
X80645Y37425
X80645Y34925
X80645Y32425
X76835Y37425
X76835Y34925
X76835Y32425
X68580Y2540
X93980Y40640
X27940Y2540
X30480Y2540
X33020Y2540
X35560Y2540
X38100Y2540
X40640Y2540
X43180Y2540
X45720Y2540
X50800Y2540
X53340Y2540
X55880Y2540
X58420Y2540
X60960Y2540
X63500Y2540
X66040Y2540
X73660Y2540
X76200Y2540
X78740Y2540
X81280Y2540
X83820Y2540
X86360Y2540
X88900Y2540
X91440Y2540
X93980Y7620
X96520Y7620
X93980Y10160
X93980Y12700
X96520Y10160
X96520Y12700
X93980Y15240
X96520Y15240
X93980Y17780
X96520Y17780
T8
X5461Y26162
X5461Y29718
X79689Y14411
X76133Y14411
X11112Y38227
X11112Y41783
X42228Y38227
X42228Y41783
X71882Y44450
X75438Y44450
T9
X73819Y28544
X73819Y21304
T10
X18733Y44926
X92075Y42545
X49847Y45085
T11
X83185Y12573
X56515Y8255
X42672Y10795
X99060Y762
X115570Y55245
X19050Y54610
X71120Y54610
T12
X45720Y45720
T13
X87789Y41910
X19368Y40481
X18098Y40481
X86836Y41910
X87789Y43180
X78899Y19050
X5080Y35560
X3810Y35560
X3810Y36830
X5080Y36830
X6350Y36830
X86836Y43180
X87313Y42545
X50482Y39529
X49212Y39529
X6350Y38100
X3810Y38100
X5080Y38100
X80010Y25876
X50482Y40481
X6350Y35560
X49212Y40481
X49847Y40005
X19368Y39529
X18098Y39529
X18733Y40005
T14
X48260Y45244
X81439Y25876
X136208Y52705
X136208Y50216
X47125Y45402
X121920Y53975
X51752Y43974
X51276Y45402
M30